<svg width="54" height="54" viewBox="0 0 54 54" fill="none" xmlns="http://www.w3.org/2000/svg">
<path d="M11.2796 2C9.89192 2 8.75 3.14192 8.75 4.52963V31.5297C8.75 32.6558 10.4391 32.6558 10.4391 31.5297V10.4408H44.1842V31.5297C44.1587 32.6802 45.8975 32.6802 45.8717 31.5297V4.52963C45.8717 3.14192 44.7315 2 43.3437 2H11.2796ZM11.2796 3.68918H43.3437C43.8258 3.68918 44.1842 4.04759 44.1842 4.52963V8.75166H10.4391V4.52963C10.4391 4.04759 10.7976 3.68918 11.2796 3.68918ZM12.9687 5.37505C12.5027 5.37505 12.125 5.75284 12.125 6.21881C12.125 6.68482 12.5027 7.06248 12.9687 7.06248C13.4347 7.06248 13.8125 6.68482 13.8125 6.21881C13.8125 5.75284 13.4347 5.37505 12.9687 5.37505ZM16.3437 5.37505C15.8778 5.37505 15.5 5.75284 15.5 6.21881C15.5 6.68482 15.8778 7.06248 16.3437 7.06248C16.8098 7.06248 17.1875 6.68482 17.1875 6.21881C17.1875 5.75284 16.8098 5.37505 16.3437 5.37505ZM19.7187 5.37505C19.2528 5.37505 18.875 5.75284 18.875 6.21881C18.875 6.68482 19.2528 7.06248 19.7187 7.06248C20.1848 7.06248 20.5625 6.68482 20.5625 6.21881C20.5625 5.75284 20.1848 5.37505 19.7187 5.37505ZM31.4884 5.37671C30.3492 5.4542 30.427 7.09214 31.528 7.06423H41.6562C42.7566 7.03872 42.7566 5.4011 41.6562 5.37671H31.4884ZM4.53455 7.06423C3.14683 7.06423 2 8.2045 2 9.59221V39.9688C2 41.3565 3.14683 42.4984 4.53455 42.4984H50.0954C51.4831 42.4984 52.625 41.3565 52.625 39.9688V9.59211C52.625 8.2044 51.4831 7.06413 50.0954 7.06413H48.4079C47.2577 7.03862 47.2577 8.77717 48.4079 8.75166H50.0954C50.5774 8.75166 50.9359 9.11007 50.9359 9.59211V34.0642H3.6875V9.59211C3.6875 9.11007 4.05253 8.75166 4.53455 8.75166H6.21545C7.36568 8.77717 7.36568 7.03862 6.21545 7.06413L4.53455 7.06423ZM29.8536 13.7993C29.4827 13.7968 29.1537 14.037 29.0428 14.3911L23.9787 29.5768C23.6216 30.6447 25.2235 31.1803 25.5805 30.1124L30.6446 14.9216C30.8356 14.3753 30.4324 13.8032 29.8536 13.7993ZM33.522 18.6773L37.8066 22.2517L33.522 25.8212C32.6065 26.5379 33.7369 27.8903 34.6047 27.1165L39.6622 22.8993C40.0661 22.562 40.0661 21.9414 39.6622 21.6041L34.6047 17.3804C34.4535 17.251 34.2615 17.1791 34.0196 17.1795C33.2221 17.2493 32.9329 18.2006 33.522 18.6773ZM20.5411 17.181C20.3511 17.1874 20.1687 17.2576 20.0236 17.3803L14.9611 21.604C14.5573 21.9413 14.5573 22.5619 14.9611 22.8992L20.0236 27.1164C20.8943 27.9273 22.0571 26.5298 21.1014 25.8211L16.8167 22.2516L21.1014 18.6772C21.7248 18.1668 21.3465 17.1565 20.5411 17.181ZM3.6875 35.7533H50.9359V39.9688C50.9359 40.4508 50.5774 40.8092 50.0954 40.8092H4.53455C4.05253 40.8092 3.6875 40.4508 3.6875 39.9688V35.7533ZM29.0461 37.4392L25.5838 37.4409C24.5083 37.5694 24.5805 39.093 25.6234 39.1218H29C30.1587 39.2241 30.2552 37.4625 29.0461 37.4392ZM22.5796 44.1199C22.2409 44.1135 21.9307 44.3087 21.7919 44.6176C21.3856 45.4891 20.6576 46.5067 19.4007 47.5609H18.0312C16.6435 47.5609 15.5033 48.7094 15.5033 50.0971V51.778C15.5016 52.244 15.8778 52.6232 16.3437 52.625H38.2796C38.7482 52.6267 39.1284 52.2466 39.1266 51.778V50.0971C39.1266 48.7094 37.9798 47.5609 36.5921 47.5609H35.2243C33.9675 46.5068 33.2394 45.489 32.8331 44.6176C32.6903 44.3006 32.3678 44.1038 32.0207 44.1216C31.4179 44.1535 31.0414 44.7877 31.3038 45.3313C31.6327 46.0367 32.135 46.7934 32.8117 47.5609H21.8133C22.49 46.7934 22.9922 46.0367 23.3212 45.3313C23.589 44.7779 23.1942 44.133 22.5796 44.1199ZM18.0312 49.25H36.5921C37.0741 49.25 37.4391 49.6151 37.4391 50.0971V50.9376H17.1908V50.0971C17.1908 49.6151 17.5492 49.25 18.0312 49.25Z" fill="white"/>
</svg>
