<svg width="54" height="54" viewBox="0 0 54 54" fill="none" xmlns="http://www.w3.org/2000/svg">
<path d="M42.5 19.7187V14.6562C42.5 14.5454 42.4782 14.4357 42.4358 14.3333C42.3934 14.2309 42.3313 14.1379 42.2529 14.0596C42.1746 13.9812 42.0816 13.9191 41.9792 13.8767C41.8768 13.8343 41.7671 13.8125 41.6562 13.8125H7.90625C7.79544 13.8125 7.68571 13.8343 7.58333 13.8767C7.48095 13.9191 7.38792 13.9812 7.30956 14.0596C7.23121 14.1379 7.16906 14.2309 7.12667 14.3333C7.08428 14.4357 7.06247 14.5454 7.0625 14.6562V19.7187C7.06247 19.8296 7.08428 19.9393 7.12667 20.0417C7.16906 20.1441 7.23121 20.2371 7.30956 20.3154C7.38792 20.3938 7.48095 20.4559 7.58333 20.4983C7.68571 20.5407 7.79544 20.5625 7.90625 20.5625H41.6562C41.7671 20.5625 41.8768 20.5407 41.9792 20.4983C42.0816 20.4559 42.1746 20.3938 42.2529 20.3154C42.3313 20.2371 42.3934 20.1441 42.4358 20.0417C42.4782 19.9393 42.5 19.8296 42.5 19.7187ZM8.75 15.5H35.75V18.875H8.75V15.5ZM40.8125 18.875H37.4375V15.5H40.8125V18.875ZM7.0625 6.21875C7.0625 6.05187 7.11199 5.88874 7.2047 5.74999C7.29741 5.61123 7.42919 5.50309 7.58336 5.43923C7.73754 5.37536 7.90719 5.35866 8.07086 5.39121C8.23453 5.42377 8.38487 5.50413 8.50287 5.62213C8.62087 5.74013 8.70123 5.89047 8.73379 6.05414C8.76634 6.21781 8.74963 6.38746 8.68577 6.54164C8.62191 6.69581 8.51377 6.82759 8.37501 6.9203C8.23626 7.01301 8.07313 7.0625 7.90625 7.0625C7.68247 7.0625 7.46786 6.9736 7.30963 6.81537C7.1514 6.65714 7.0625 6.44253 7.0625 6.21875ZM12.125 6.21875C12.125 6.05187 12.1745 5.88874 12.2672 5.74999C12.3599 5.61123 12.4917 5.50309 12.6459 5.43923C12.8 5.37536 12.9697 5.35866 13.1334 5.39121C13.297 5.42377 13.4474 5.50413 13.5654 5.62213C13.6834 5.74013 13.7637 5.89047 13.7963 6.05414C13.8288 6.21781 13.8121 6.38746 13.7483 6.54164C13.6844 6.69581 13.5763 6.82759 13.4375 6.9203C13.2988 7.01301 13.1356 7.0625 12.9688 7.0625C12.745 7.0625 12.5304 6.9736 12.3721 6.81537C12.2139 6.65714 12.125 6.44253 12.125 6.21875ZM17.1875 6.21875C17.1875 6.05187 17.237 5.88874 17.3297 5.74999C17.4224 5.61123 17.5542 5.50309 17.7084 5.43923C17.8625 5.37536 18.0322 5.35866 18.1959 5.39121C18.3595 5.42377 18.5099 5.50413 18.6279 5.62213C18.7459 5.74013 18.8262 5.89047 18.8588 6.05414C18.8913 6.21781 18.8746 6.38746 18.8108 6.54164C18.7469 6.69581 18.6388 6.82759 18.5 6.9203C18.3613 7.01301 18.1981 7.0625 18.0312 7.0625C17.8075 7.0625 17.5929 6.9736 17.4346 6.81537C17.2764 6.65714 17.1875 6.44253 17.1875 6.21875ZM22.25 30.6875H16.3438C16.12 30.6875 15.9054 30.5986 15.7471 30.4404C15.5889 30.2821 15.5 30.0675 15.5 29.8437C15.5 29.62 15.5889 29.4054 15.7471 29.2471C15.9054 29.0889 16.12 29 16.3438 29H22.25C22.4738 29 22.6884 29.0889 22.8466 29.2471C23.0049 29.4054 23.0938 29.62 23.0938 29.8437C23.0938 30.0675 23.0049 30.2821 22.8466 30.4404C22.6884 30.5986 22.4738 30.6875 22.25 30.6875ZM7.0625 29.8437C7.06247 29.7329 7.08428 29.6232 7.12667 29.5208C7.16906 29.4184 7.23121 29.3254 7.30956 29.2471C7.38792 29.1687 7.48095 29.1066 7.58333 29.0642C7.68571 29.0218 7.79544 29 7.90625 29H12.9688C13.1925 29 13.4071 29.0889 13.5654 29.2471C13.7236 29.4054 13.8125 29.62 13.8125 29.8437C13.8125 30.0675 13.7236 30.2821 13.5654 30.4404C13.4071 30.5986 13.1925 30.6875 12.9688 30.6875H7.90625C7.79544 30.6875 7.68571 30.6657 7.58333 30.6233C7.48095 30.5809 7.38792 30.5188 7.30956 30.4404C7.23121 30.3621 7.16906 30.2691 7.12667 30.1667C7.08428 30.0643 7.06247 29.9546 7.0625 29.8437ZM15.5 39.9687C15.5 39.8579 15.5218 39.7482 15.5642 39.6458C15.6066 39.5434 15.6687 39.4504 15.7471 39.3721C15.8254 39.2937 15.9184 39.2316 16.0208 39.1892C16.1232 39.1468 16.2329 39.125 16.3438 39.125H21.4062C21.63 39.125 21.8446 39.2139 22.0029 39.3721C22.1611 39.5304 22.25 39.745 22.25 39.9687C22.25 40.1925 22.1611 40.4071 22.0029 40.5654C21.8446 40.7236 21.63 40.8125 21.4062 40.8125H16.3438C16.2329 40.8125 16.1232 40.7907 16.0208 40.7483C15.9184 40.7059 15.8254 40.6438 15.7471 40.5654C15.6687 40.4871 15.6066 40.3941 15.5642 40.2917C15.5218 40.1893 15.5 40.0796 15.5 39.9687ZM12.9688 39.125C13.1925 39.125 13.4071 39.2139 13.5654 39.3721C13.7236 39.5304 13.8125 39.745 13.8125 39.9687C13.8125 40.1925 13.7236 40.4071 13.5654 40.5654C13.4071 40.7236 13.1925 40.8125 12.9688 40.8125H7.90625C7.68247 40.8125 7.46786 40.7236 7.30963 40.5654C7.1514 40.4071 7.0625 40.1925 7.0625 39.9687C7.0625 39.745 7.1514 39.5304 7.30963 39.3721C7.46786 39.2139 7.68247 39.125 7.90625 39.125H12.9688ZM26.4688 25.625H7.90625C7.68247 25.625 7.46786 25.5361 7.30963 25.3779C7.1514 25.2196 7.0625 25.005 7.0625 24.7812C7.0625 24.5575 7.1514 24.3429 7.30963 24.1846C7.46786 24.0264 7.68247 23.9375 7.90625 23.9375H26.4688C26.6925 23.9375 26.9071 24.0264 27.0654 24.1846C27.2236 24.3429 27.3125 24.5575 27.3125 24.7812C27.3125 25.005 27.2236 25.2196 27.0654 25.3779C26.9071 25.5361 26.6925 25.625 26.4688 25.625ZM20.5625 35.75H7.90625C7.68247 35.75 7.46786 35.6611 7.30963 35.5029C7.1514 35.3446 7.0625 35.13 7.0625 34.9062C7.0625 34.6825 7.1514 34.4679 7.30963 34.3096C7.46786 34.1514 7.68247 34.0625 7.90625 34.0625H20.5625C20.7863 34.0625 21.0009 34.1514 21.1591 34.3096C21.3174 34.4679 21.4062 34.6825 21.4062 34.9062C21.4062 35.13 21.3174 35.3446 21.1591 35.5029C21.0009 35.6611 20.7863 35.75 20.5625 35.75ZM51.6787 47.111L46.0625 41.4947C47.4542 39.0006 47.897 36.0872 47.3091 33.2922C46.7211 30.4972 45.1422 28.0091 42.8636 26.2869C40.585 24.5648 37.7605 23.7248 34.9111 23.922C32.0617 24.1192 29.3798 25.3402 27.3601 27.3598C25.3404 29.3794 24.1193 32.0613 23.922 34.9106C23.7247 37.76 24.5645 40.5846 26.2866 42.8633C28.0086 45.142 30.4967 46.721 33.2917 47.309C36.0867 47.897 39 47.4544 41.4942 46.0628L47.1106 51.6791C47.4105 51.979 47.7666 52.217 48.1585 52.3793C48.5504 52.5416 48.9704 52.6252 49.3946 52.6252C49.8188 52.6252 50.2389 52.5416 50.6308 52.3793C51.0227 52.2169 51.3787 51.979 51.6787 51.6791C51.9786 51.3791 52.2166 51.023 52.3789 50.6311C52.5412 50.2392 52.6248 49.8192 52.6248 49.395C52.6248 48.9708 52.5412 48.5508 52.3789 48.1589C52.2166 47.767 51.9786 47.4109 51.6787 47.111ZM25.625 35.75C25.625 33.7475 26.2188 31.7899 27.3314 30.1248C28.4439 28.4598 30.0252 27.1621 31.8753 26.3957C33.7254 25.6294 35.7612 25.4289 37.7253 25.8195C39.6893 26.2102 41.4935 27.1745 42.9095 28.5905C44.3255 30.0065 45.2898 31.8107 45.6805 33.7747C46.0711 35.7388 45.8706 37.7746 45.1043 39.6247C44.3379 41.4748 43.0402 43.0561 41.3751 44.1686C39.7101 45.2812 37.7525 45.875 35.75 45.875C33.0656 45.872 30.492 44.8043 28.5939 42.9061C26.6957 41.008 25.628 38.4344 25.625 35.75ZM50.4856 50.486C50.196 50.7748 49.8036 50.9371 49.3946 50.9371C48.9856 50.9371 48.5932 50.7748 48.3037 50.486L42.9278 45.11C43.7467 44.4806 44.4802 43.7471 45.1097 42.9282L50.4856 48.3041C50.6289 48.4473 50.7425 48.6174 50.8201 48.8046C50.8976 48.9918 50.9375 49.1924 50.9375 49.395C50.9375 49.5976 50.8976 49.7983 50.8201 49.9854C50.7425 50.1726 50.6288 50.3427 50.4856 50.486ZM24.8245 44.1875H6.21875C5.54765 44.1868 4.90424 43.9198 4.4297 43.4453C3.95515 42.9708 3.68823 42.3274 3.6875 41.6562V10.4375H45.875V26.5165C45.875 26.7403 45.9639 26.9549 46.1221 27.1132C46.2804 27.2714 46.495 27.3603 46.7188 27.3603C46.9425 27.3603 47.1571 27.2714 47.3154 27.1132C47.4736 26.9549 47.5625 26.7403 47.5625 26.5165V6.21875C47.5612 5.10027 47.1163 4.02798 46.3254 3.23709C45.5345 2.44621 44.4622 2.00131 43.3438 2H6.21875C5.10027 2.00131 4.02798 2.44621 3.23709 3.23709C2.44621 4.02798 2.00131 5.10027 2 6.21875V41.6562C2.00131 42.7747 2.44621 43.847 3.23709 44.6379C4.02798 45.4288 5.10027 45.8737 6.21875 45.875H24.8245C25.0483 45.875 25.2629 45.7861 25.4211 45.6279C25.5794 45.4696 25.6683 45.255 25.6683 45.0312C25.6683 44.8075 25.5794 44.5929 25.4211 44.4346C25.2629 44.2764 25.0483 44.1875 24.8245 44.1875ZM6.21875 3.6875H43.3438C44.0149 3.68823 44.6583 3.95515 45.1328 4.42969C45.6073 4.90424 45.8743 5.54765 45.875 6.21875V8.75H3.6875V6.21875C3.68823 5.54765 3.95515 4.90424 4.4297 4.42969C4.90424 3.95515 5.54765 3.68823 6.21875 3.6875ZM35.75 27.3125C34.0812 27.3125 32.4499 27.8073 31.0624 28.7345C29.6748 29.6616 28.5934 30.9794 27.9548 32.5211C27.3162 34.0629 27.1491 35.7594 27.4746 37.3961C27.8002 39.0328 28.6038 40.5362 29.7838 41.7162C30.9638 42.8962 32.4672 43.6998 34.1039 44.0254C35.7406 44.3509 37.4371 44.1838 38.9789 43.5452C40.5206 42.9066 41.8384 41.8252 42.7655 40.4376C43.6927 39.0501 44.1875 37.4188 44.1875 35.75C44.1849 33.513 43.2952 31.3684 41.7134 29.7866C40.1316 28.2048 37.987 27.3151 35.75 27.3125ZM35.75 42.5C34.415 42.5 33.1099 42.1041 31.9999 41.3624C30.8899 40.6207 30.0247 39.5665 29.5138 38.3331C29.0029 37.0997 28.8692 35.7425 29.1297 34.4331C29.3901 33.1238 30.033 31.921 30.977 30.977C31.921 30.033 33.1238 29.3901 34.4331 29.1297C35.7425 28.8692 37.0997 29.0029 38.3331 29.5138C39.5665 30.0247 40.6207 30.8899 41.3624 31.9999C42.1041 33.1099 42.5 34.415 42.5 35.75C42.498 37.5396 41.7861 39.2553 40.5207 40.5207C39.2553 41.7861 37.5396 42.4979 35.75 42.5Z" fill="white"/>
</svg>
