<svg width="116" height="116" viewBox="0 0 116 116" fill="none" xmlns="http://www.w3.org/2000/svg">
<path d="M11.3177 52.9329C11.7492 52.9243 12.1624 52.7576 12.4789 52.4643C12.7955 52.171 12.9932 51.7717 13.0345 51.3421C13.0758 50.9126 12.9579 50.4829 12.7031 50.1346C12.4482 49.7864 12.0744 49.5439 11.6525 49.4533C11.4098 49.4012 11.1588 49.401 10.9161 49.4527C10.6734 49.5045 10.4443 49.607 10.244 49.7536C10.0437 49.9001 9.87664 50.0874 9.75385 50.3031C9.63106 50.5188 9.55529 50.7581 9.53152 51.0051C9.50776 51.2522 9.53653 51.5015 9.61595 51.7366C9.69536 51.9718 9.82363 52.1875 9.99233 52.3696C10.161 52.5516 10.3663 52.6959 10.5948 52.793C10.8232 52.8901 11.0696 52.9378 11.3177 52.9329Z" fill="#3A59FC"/>
<path d="M32.5094 20.1209C32.8968 20.1175 33.2719 19.9852 33.5757 19.745C33.8796 19.5048 34.0948 19.1703 34.1875 18.7942C34.2801 18.4181 34.245 18.0219 34.0876 17.668C33.9302 17.3141 33.6594 17.0227 33.318 16.8397C32.9767 16.6567 32.5841 16.5926 32.2022 16.6574C31.8204 16.7222 31.471 16.9123 31.2091 17.1977C30.9472 17.483 30.7878 17.8474 30.7559 18.2335C30.7241 18.6195 30.8216 19.0051 31.0332 19.3295C31.193 19.5747 31.4121 19.7758 31.6701 19.9141C31.9281 20.0524 32.2167 20.1235 32.5094 20.1209Z" fill="#3A59FC"/>
<path d="M24.6949 26.4528C25.0301 26.4462 25.3566 26.3451 25.6367 26.161C25.9169 25.9769 26.1393 25.7174 26.2783 25.4124C26.4173 25.1074 26.4673 24.7692 26.4225 24.437C26.3776 24.1048 26.2398 23.7921 26.0249 23.5348C25.869 23.3617 25.6803 23.2212 25.4697 23.1217C25.259 23.0221 25.0307 22.9655 24.798 22.9549C24.5653 22.9444 24.3328 22.9802 24.114 23.0604C23.8953 23.1405 23.6946 23.2633 23.5238 23.4217C23.3529 23.58 23.2152 23.7708 23.1188 23.9828C23.0223 24.1949 22.9689 24.424 22.9618 24.6568C22.9546 24.8897 22.9938 25.1216 23.0771 25.3392C23.1604 25.5568 23.2861 25.7556 23.447 25.9241C23.609 26.0913 23.803 26.2242 24.0174 26.315C24.2317 26.4058 24.4621 26.4526 24.6949 26.4528Z" fill="#3A59FC"/>
<path d="M41.4673 15.6101C41.8415 15.6088 42.2056 15.4881 42.5066 15.2656C42.8075 15.0431 43.0296 14.7303 43.1405 14.3729C43.2514 14.0154 43.2453 13.6319 43.1232 13.2781C43.001 12.9243 42.7692 12.6188 42.4613 12.4059C42.1535 12.193 41.7858 12.0839 41.4117 12.0945C41.0375 12.105 40.6766 12.2347 40.3812 12.4646C40.0859 12.6945 39.8717 13.0127 39.7697 13.3728C39.6677 13.7329 39.6833 14.1162 39.8142 14.4668C39.9413 14.8025 40.1675 15.0916 40.4627 15.2958C40.758 15.5 41.1083 15.6096 41.4673 15.6101Z" fill="#3A59FC"/>
<path d="M17.4144 33.9725C17.697 34.1559 18.0267 34.2537 18.3636 34.254C18.787 34.2553 19.1967 34.104 19.5175 33.8277C19.8384 33.5514 20.0489 33.1687 20.1103 32.7498C20.1718 32.3309 20.0802 31.9038 19.8523 31.547C19.6244 31.1901 19.2755 30.9274 18.8696 30.807C18.4637 30.6866 18.0279 30.7166 17.6423 30.8915C17.2567 31.0664 16.9471 31.3744 16.7702 31.7591C16.5934 32.1438 16.5612 32.5794 16.6795 32.9859C16.7978 33.3925 17.0587 33.7427 17.4144 33.9725Z" fill="#3A59FC"/>
<path d="M13.2166 43.091C13.4174 43.174 13.6327 43.216 13.85 43.2146C14.2381 43.2032 14.6118 43.0647 14.9136 42.8204C15.2154 42.576 15.4287 42.2394 15.5206 41.8621C15.6126 41.4849 15.5782 41.0878 15.4227 40.732C15.2672 40.3762 14.9992 40.0813 14.6598 39.8925C14.4386 39.7819 14.1969 39.7182 13.9499 39.7055C13.7029 39.6928 13.456 39.7314 13.2246 39.8188C12.9933 39.9063 12.7825 40.0407 12.6056 40.2135C12.4288 40.3864 12.2896 40.5941 12.1969 40.8234C12.0348 41.2595 12.0508 41.7419 12.2417 42.1663C12.4325 42.5907 12.7827 42.9229 13.2166 43.091Z" fill="#3A59FC"/>
<path d="M51.1997 13.0826C51.4558 13.0756 51.7072 13.0127 51.9364 12.8983C52.1656 12.7839 52.367 12.6207 52.5265 12.4202C52.686 12.2197 52.7997 11.9867 52.8596 11.7376C52.9195 11.4886 52.9242 11.2294 52.8734 10.9783C52.8226 10.7272 52.7174 10.4903 52.5654 10.2841C52.4133 10.0779 52.218 9.90754 51.9931 9.78485C51.7682 9.66215 51.5191 9.59014 51.2635 9.57386C51.0078 9.55758 50.7517 9.59743 50.513 9.6906C50.1466 9.85611 49.8473 10.1411 49.664 10.499C49.4807 10.8568 49.4243 11.2663 49.504 11.6604C49.5838 12.0544 49.795 12.4097 50.103 12.6681C50.4111 12.9265 50.7977 13.0726 51.1997 13.0826Z" fill="#3A59FC"/>
<path d="M58.2421 9.02344C57.7759 9.02344 57.3288 9.20864 56.9992 9.53829C56.6695 9.86794 56.4843 10.315 56.4843 10.7812C56.4843 11.2474 56.6695 11.6946 56.9992 12.0242C57.3288 12.3539 57.7759 12.5391 58.2421 12.5391C67.2814 12.5391 76.1176 15.2195 83.6334 20.2414C91.1492 25.2633 97.0071 32.4012 100.466 40.7523C103.925 49.1035 104.831 58.2928 103.067 67.1584C101.304 76.0239 96.9508 84.1674 90.5591 90.5591C84.1674 96.9508 76.0239 101.304 67.1584 103.067C58.2928 104.831 49.1035 103.925 40.7523 100.466C32.4012 97.0071 25.2633 91.1492 20.2414 83.6334C15.2195 76.1176 12.5391 67.2814 12.5391 58.2421C12.5391 57.7759 12.3539 57.3288 12.0242 56.9992C11.6946 56.6695 11.2474 56.4843 10.7812 56.4843C10.315 56.4843 9.86794 56.6695 9.53829 56.9992C9.20864 57.3288 9.02344 57.7759 9.02344 58.2421C9.02344 67.9767 11.9101 77.4926 17.3183 85.5866C22.7265 93.6806 30.4134 99.989 39.407 103.714C48.4005 107.44 58.2967 108.414 67.8442 106.515C77.3917 104.616 86.1616 99.9284 93.045 93.045C99.9284 86.1616 104.616 77.3917 106.515 67.8442C108.414 58.2967 107.44 48.4005 103.714 39.407C99.989 30.4134 93.6806 22.7265 85.5866 17.3183C77.4926 11.9101 67.9767 9.02344 58.2421 9.02344Z" fill="#3A59FC"/>
<path d="M56.7713 25.9054L56.5001 58.2412C56.4982 58.4746 56.5428 58.706 56.6312 58.922C56.7196 59.138 56.8501 59.3343 57.0151 59.4995L73.5443 76.0287C73.7074 76.1922 73.9011 76.3219 74.1143 76.4103C74.3276 76.4987 74.5563 76.544 74.7871 76.5438C75.1322 76.5382 75.4682 76.4318 75.7536 76.2377C76.039 76.0436 76.2615 75.7703 76.3935 75.4514C76.5256 75.1326 76.5616 74.782 76.4969 74.443C76.4323 74.1039 76.27 73.7911 76.0299 73.5432L60.0225 57.534L60.2869 25.9365C60.2803 25.4772 60.0944 25.0387 59.7687 24.7148C59.443 24.3909 59.0036 24.2073 58.5443 24.2032C58.085 24.1991 57.6423 24.3749 57.311 24.693C56.9796 25.0111 56.7859 25.4463 56.7713 25.9054Z" fill="#3A59FC"/>
</svg>
