<svg width="116" height="116" viewBox="0 0 116 116" fill="none" xmlns="http://www.w3.org/2000/svg">
<path d="M92.641 37.9009C103.304 55.5668 97.5241 80.2592 80.0755 91.3464C79.7583 91.5655 79.5188 91.8795 79.3914 92.2433C79.264 92.6072 79.2553 93.002 79.3665 93.3711C79.4778 93.7402 79.7032 94.0645 80.0104 94.2973C80.3176 94.5302 80.6907 94.6596 81.0761 94.667C101.064 83.7378 107.461 55.3104 95.7674 36.0765C95.5202 35.6725 95.1246 35.3814 94.6653 35.2658C94.2061 35.1501 93.7198 35.219 93.3107 35.4577C92.9017 35.6964 92.6025 36.0859 92.4773 36.5427C92.3521 36.9994 92.4109 37.487 92.641 37.9009Z" fill="#3A59FC"/>
<path d="M33.8067 21.5082C24.5196 27.6442 17.9288 37.0976 15.3831 47.9337C12.8374 58.7697 14.5294 70.169 20.1127 79.7984C20.2325 80.0037 20.3916 80.1834 20.5808 80.3272C20.7701 80.471 20.9858 80.5761 21.2157 80.6366C21.4455 80.697 21.685 80.7116 21.9205 80.6794C22.156 80.6473 22.3829 80.5691 22.5882 80.4493C22.7935 80.3295 22.9731 80.1704 23.1169 79.9812C23.2607 79.792 23.3659 79.5762 23.4263 79.3464C23.4868 79.1165 23.5013 78.877 23.4692 78.6415C23.4371 78.406 23.3589 78.1791 23.2391 77.9738C12.5765 60.3079 18.356 35.6156 35.8046 24.5282C36.195 24.259 36.4643 23.8474 36.5544 23.3818C36.6446 22.9162 36.5486 22.4338 36.2869 22.0383C36.0253 21.6428 35.6189 21.3657 35.1551 21.2666C34.6914 21.1674 34.2072 21.2542 33.8067 21.5082Z" fill="#3A59FC"/>
<path d="M106.829 56.125C106.591 56.1249 106.356 56.1717 106.136 56.2627C105.916 56.3537 105.716 56.487 105.548 56.6552C105.38 56.8233 105.247 57.0229 105.156 57.2426C105.065 57.4623 105.018 57.6978 105.018 57.9355C105.034 64.9148 103.483 71.8087 100.479 78.1088C100.274 78.5425 100.249 79.0402 100.41 79.4924C100.571 79.9446 100.905 80.3144 101.338 80.5204C101.772 80.7264 102.27 80.7519 102.722 80.5911C103.174 80.4303 103.544 80.0964 103.75 79.663C106.985 72.8776 108.656 65.4526 108.639 57.9355C108.639 57.6978 108.593 57.4623 108.502 57.2426C108.411 57.0229 108.277 56.8233 108.109 56.6552C107.941 56.487 107.741 56.3537 107.522 56.2627C107.302 56.1717 107.067 56.1249 106.829 56.125Z" fill="#3A59FC"/>
<path d="M91.2296 91.2257C86.866 95.6083 81.6776 99.0831 75.9638 101.45C70.2501 103.816 64.1241 105.027 57.9397 105.013C57.4656 105.023 57.0141 105.217 56.6821 105.556C56.3501 105.895 56.1641 106.35 56.1641 106.824C56.164 107.298 56.35 107.753 56.682 108.092C57.014 108.43 57.4655 108.625 57.9396 108.635C64.5989 108.65 71.1953 107.346 77.3479 104.798C83.5005 102.25 89.0875 98.5084 93.7863 93.7895C93.955 93.6217 94.0891 93.4223 94.1807 93.2027C94.2723 92.983 94.3197 92.7475 94.3202 92.5095C94.3207 92.2716 94.2743 92.0358 94.1837 91.8158C94.093 91.5958 93.9598 91.3958 93.7918 91.2273C93.6237 91.0588 93.4241 90.9251 93.2043 90.8338C92.9846 90.7425 92.749 90.6955 92.511 90.6953C92.273 90.6952 92.0374 90.7419 91.8175 90.833C91.5976 90.924 91.3978 91.0574 91.2296 91.2257Z" fill="#3A59FC"/>
<path d="M100.473 37.767C100.575 37.982 100.718 38.1748 100.894 38.3344C101.07 38.4941 101.277 38.6174 101.501 38.6973C101.725 38.7772 101.962 38.8122 102.2 38.8003C102.437 38.7884 102.67 38.7297 102.885 38.6277C103.1 38.5257 103.293 38.3824 103.452 38.2059C103.612 38.0294 103.735 37.8232 103.815 37.5991C103.894 37.375 103.929 37.1374 103.917 36.8998C103.905 36.6623 103.846 36.4294 103.744 36.2146C101.26 30.9704 97.8915 26.1932 93.7858 22.0927C93.4463 21.7532 92.9858 21.5625 92.5057 21.5625C92.0255 21.5625 91.5651 21.7532 91.2255 22.0927C90.886 22.4322 90.6953 22.8927 90.6953 23.3729C90.6953 23.853 90.886 24.3135 91.2255 24.653C95.0375 28.4614 98.1655 32.8975 100.473 37.767Z" fill="#3A59FC"/>
<path d="M12.1311 36.2136C8.8962 42.999 7.22552 50.4239 7.24231 57.941C7.24231 58.4212 7.43307 58.8817 7.77261 59.2212C8.11215 59.5608 8.57267 59.7515 9.05286 59.7515C9.53304 59.7515 9.99356 59.5608 10.3331 59.2212C10.6726 58.8817 10.8634 58.4212 10.8634 57.941C10.848 50.9618 12.3989 44.068 15.402 37.7679C15.5974 37.3357 15.6154 36.8441 15.4521 36.3987C15.2889 35.9534 14.9575 35.5898 14.529 35.3862C14.1006 35.1827 13.6094 35.1553 13.1611 35.31C12.7127 35.4647 12.3429 35.7891 12.1311 36.2136Z" fill="#3A59FC"/>
<path d="M23.3716 25.1798C23.609 25.1804 23.8442 25.1339 24.0636 25.0432C24.283 24.9525 24.4822 24.8192 24.6499 24.6511C29.0135 20.2686 34.2019 16.7938 39.9157 14.4273C45.6295 12.0608 51.7554 10.8496 57.9398 10.8634C58.4139 10.8542 58.8655 10.6594 59.1975 10.3209C59.5295 9.98233 59.7155 9.52708 59.7155 9.05292C59.7155 8.57875 59.5295 8.1235 59.1975 7.78495C58.8656 7.4464 58.414 7.25157 57.9399 7.24232C51.2807 7.22714 44.6843 8.53117 38.5317 11.0791C32.3791 13.6271 26.7922 17.3685 22.0934 22.0874C21.8455 22.3426 21.6777 22.6647 21.6107 23.0141C21.5437 23.3635 21.5805 23.7248 21.7164 24.0536C21.8523 24.3824 22.0814 24.6642 22.3755 24.8643C22.6697 25.0644 23.0159 25.1741 23.3716 25.1798Z" fill="#3A59FC"/>
<path d="M15.3996 78.1137C15.2978 77.8987 15.1547 77.7059 14.9783 77.5462C14.8019 77.3866 14.5959 77.2633 14.3718 77.1834C14.1478 77.1035 13.9102 77.0685 13.6726 77.0804C13.4351 77.0923 13.2022 77.151 12.9873 77.253C12.7724 77.355 12.5797 77.4983 12.4202 77.6748C12.2607 77.8513 12.1376 78.0575 12.0579 78.2816C11.9781 78.5057 11.9433 78.7433 11.9555 78.9809C11.9676 79.2184 12.0265 79.4513 12.1286 79.6661C14.6123 84.9103 17.9809 89.6875 22.0866 93.788C22.2547 93.9561 22.4543 94.0894 22.674 94.1804C22.8936 94.2714 23.129 94.3182 23.3667 94.3182C23.6045 94.3182 23.8399 94.2714 24.0595 94.1804C24.2792 94.0894 24.4787 93.9561 24.6468 93.788C24.815 93.6198 24.9483 93.4203 25.0393 93.2006C25.1303 92.981 25.1771 92.7456 25.1771 92.5078C25.1771 92.2701 25.1303 92.0347 25.0393 91.8151C24.9483 91.5954 24.815 91.3958 24.6468 91.2277C20.8349 87.4193 17.7069 82.9832 15.3996 78.1137Z" fill="#3A59FC"/>
<path d="M60.1168 85.1855C68.3802 81.4676 75.15 75.074 79.3337 67.0364C83.5175 58.9988 84.8712 49.786 83.1765 40.8846C83.139 40.5537 83.0134 40.239 82.8128 39.9733C82.6122 39.7075 82.3439 39.5005 82.036 39.3737L58.612 30.0036C58.1805 29.8321 57.6998 29.8321 57.2683 30.0036L33.8444 39.3737C33.5357 39.5011 33.2669 39.709 33.066 39.9757C32.8651 40.2423 32.7394 40.5581 32.7022 40.8899C31.0093 49.7907 32.3642 59.0022 36.5481 67.0386C40.7321 75.075 47.5012 81.4677 55.7636 85.1855C56.2355 85.3528 57.4043 86.0654 57.9402 86.0015C58.4685 86.0775 59.6342 85.3585 60.1168 85.1855ZM35.9891 43.0656C36.0263 42.833 36.0652 42.6005 36.1076 42.3689L57.9402 33.6353L79.7728 42.3689C81.1228 50.4942 79.7045 58.8374 75.7454 66.0601C71.7863 73.2828 65.516 78.9664 57.9402 82.1991C50.4764 79.012 44.2763 73.4457 40.3059 66.3674C36.3355 59.2891 34.8178 51.0964 35.9891 43.0656Z" fill="#3A59FC"/>
<path d="M61.2751 52.9701L56.8071 59.0489L54.4095 56.6513C54.0678 56.3227 53.6108 56.1412 53.1367 56.1458C52.6626 56.1504 52.2093 56.3408 51.8741 56.6761C51.5388 57.0113 51.3484 57.4647 51.3438 57.9388C51.3392 58.4129 51.5207 58.8698 51.8494 59.2115L55.7373 63.1006C55.9227 63.2833 56.145 63.4242 56.3894 63.5138C56.6338 63.6033 56.8945 63.6395 57.154 63.6198C57.4136 63.6001 57.6659 63.525 57.8939 63.3996C58.122 63.2742 58.3205 63.1013 58.4762 62.8927L64.1925 55.1149C64.476 54.728 64.5944 54.2444 64.5216 53.7703C64.4489 53.2961 64.191 52.8703 63.8045 52.5861C63.418 52.302 62.9346 52.1829 62.4603 52.2549C61.9861 52.3269 61.5598 52.5841 61.2751 52.9701Z" fill="#3A59FC"/>
</svg>
