<svg width="116" height="116" viewBox="0 0 116 116" fill="none" xmlns="http://www.w3.org/2000/svg">
<path d="M30.8893 7.24216H14.1506C12.7105 7.24373 11.3299 7.81649 10.3116 8.83478C9.2933 9.85307 8.72054 11.2337 8.71896 12.6738V29.4125C8.72054 30.8526 9.2933 32.2332 10.3116 33.2515C11.3299 34.2698 12.7105 34.8426 14.1506 34.8441H30.8893C32.3294 34.8426 33.71 34.2698 34.7283 33.2515C35.7466 32.2332 36.3194 30.8526 36.3209 29.4125V12.6738C36.3194 11.2337 35.7466 9.85307 34.7283 8.83478C33.71 7.81649 32.3294 7.24373 30.8893 7.24216ZM32.6998 29.4125C32.6994 29.8925 32.5084 30.3528 32.169 30.6922C31.8296 31.0317 31.3693 31.2226 30.8893 31.223H14.1506C13.6706 31.2226 13.2103 31.0317 12.8709 30.6922C12.5314 30.3528 12.3405 29.8925 12.3401 29.4125V12.6738C12.3405 12.1938 12.5314 11.7335 12.8709 11.3941C13.2103 11.0546 13.6706 10.8637 14.1506 10.8632H30.8893C31.3693 10.8637 31.8296 11.0546 32.169 11.3941C32.5084 11.7335 32.6994 12.1938 32.6998 12.6738V29.4125Z" fill="#3A59FC"/>
<path d="M30.8891 44.1406H14.1504C12.7103 44.1422 11.3297 44.715 10.3114 45.7333C9.29309 46.7515 8.72032 48.1322 8.71875 49.5723V66.311C8.72032 67.751 9.29309 69.1317 10.3114 70.15C11.3297 71.1683 12.7103 71.741 14.1504 71.7426H30.8891C32.3292 71.741 33.7098 71.1683 34.7281 70.15C35.7464 69.1317 36.3191 67.751 36.3207 66.311V49.5723C36.3191 48.1322 35.7464 46.7515 34.7281 45.7333C33.7098 44.715 32.3292 44.1422 30.8891 44.1406ZM32.6996 66.311C32.6991 66.791 32.5082 67.2513 32.1688 67.5907C31.8294 67.9301 31.3691 68.121 30.8891 68.1215H14.1504C13.6703 68.121 13.2101 67.9301 12.8707 67.5907C12.5312 67.2513 12.3403 66.791 12.3398 66.311V49.5723C12.3403 49.0922 12.5312 48.632 12.8707 48.2925C13.2101 47.9531 13.6703 47.7622 14.1504 47.7617H30.8891C31.3691 47.7622 31.8294 47.9531 32.1688 48.2925C32.5082 48.632 32.6991 49.0922 32.6996 49.5723V66.311Z" fill="#3A59FC"/>
<path d="M30.8891 81.0312H14.1504C12.7103 81.0328 11.3297 81.6056 10.3114 82.6239C9.29309 83.6422 8.72032 85.0228 8.71875 86.4629V103.202C8.72032 104.642 9.29309 106.022 10.3114 107.041C11.3297 108.059 12.7103 108.632 14.1504 108.633H30.8891C32.3292 108.632 33.7098 108.059 34.7281 107.041C35.7464 106.022 36.3191 104.642 36.3207 103.202V86.4629C36.3191 85.0228 35.7464 83.6422 34.7281 82.6239C33.7098 81.6056 32.3292 81.0328 30.8891 81.0312ZM32.6996 103.202C32.6991 103.682 32.5082 104.142 32.1688 104.481C31.8294 104.821 31.3691 105.012 30.8891 105.012H14.1504C13.6703 105.012 13.2101 104.821 12.8707 104.481C12.5312 104.142 12.3403 103.682 12.3398 103.202V86.4629C12.3403 85.9828 12.5312 85.5226 12.8707 85.1832C13.2101 84.8437 13.6703 84.6528 14.1504 84.6523H30.8891C31.3691 84.6528 31.8294 84.8437 32.1688 85.1832C32.5082 85.5226 32.6991 85.9828 32.6996 86.4629V103.202Z" fill="#3A59FC"/>
<path d="M40.9668 11.7852H105.344C105.824 11.7852 106.284 11.5944 106.624 11.2549C106.963 10.9153 107.154 10.4548 107.154 9.97461C107.154 9.49442 106.963 9.0339 106.624 8.69436C106.284 8.35482 105.824 8.16406 105.344 8.16406H40.9668C40.4866 8.16406 40.0261 8.35482 39.6865 8.69436C39.347 9.0339 39.1562 9.49442 39.1562 9.97461C39.1562 10.4548 39.347 10.9153 39.6865 11.2549C40.0261 11.5944 40.4866 11.7852 40.9668 11.7852Z" fill="#3A59FC"/>
<path d="M40.9668 22.8477H86.9058C87.3859 22.8477 87.8465 22.6569 88.186 22.3174C88.5256 21.9778 88.7163 21.5173 88.7163 21.0371C88.7163 20.5569 88.5256 20.0964 88.186 19.7569C87.8465 19.4173 87.3859 19.2266 86.9058 19.2266H40.9668C40.4866 19.2266 40.0261 19.4173 39.6865 19.7569C39.347 20.0964 39.1562 20.5569 39.1562 21.0371C39.1562 21.5173 39.347 21.9778 39.6865 22.3174C40.0261 22.6569 40.4866 22.8477 40.9668 22.8477Z" fill="#3A59FC"/>
<path d="M40.9668 33.9258H74.3946C74.8748 33.9258 75.3353 33.735 75.6748 33.3955C76.0144 33.0559 76.2051 32.5954 76.2051 32.1152C76.2051 31.635 76.0144 31.1745 75.6748 30.835C75.3353 30.4954 74.8748 30.3047 74.3946 30.3047H40.9668C40.4866 30.3047 40.0261 30.4954 39.6865 30.835C39.347 31.1745 39.1562 31.635 39.1562 32.1152C39.1562 32.5954 39.347 33.0559 39.6865 33.3955C40.0261 33.735 40.4866 33.9258 40.9668 33.9258Z" fill="#3A59FC"/>
<path d="M105.344 45.0625H40.9668C40.4866 45.0625 40.0261 45.2533 39.6865 45.5928C39.347 45.9323 39.1562 46.3929 39.1562 46.873C39.1562 47.3532 39.347 47.8137 39.6865 48.1533C40.0261 48.4928 40.4866 48.6836 40.9668 48.6836H105.344C105.824 48.6836 106.284 48.4928 106.624 48.1533C106.963 47.8137 107.154 47.3532 107.154 46.873C107.154 46.3929 106.963 45.9323 106.624 45.5928C106.284 45.2533 105.824 45.0625 105.344 45.0625Z" fill="#3A59FC"/>
<path d="M40.9668 59.7461H86.9058C87.3859 59.7461 87.8465 59.5553 88.186 59.2158C88.5256 58.8763 88.7163 58.4157 88.7163 57.9355C88.7163 57.4554 88.5256 56.9948 88.186 56.6553C87.8465 56.3158 87.3859 56.125 86.9058 56.125H40.9668C40.4866 56.125 40.0261 56.3158 39.6865 56.6553C39.347 56.9948 39.1562 57.4554 39.1562 57.9355C39.1562 58.4157 39.347 58.8763 39.6865 59.2158C40.0261 59.5553 40.4866 59.7461 40.9668 59.7461Z" fill="#3A59FC"/>
<path d="M40.9668 70.8164H74.3946C74.8748 70.8164 75.3353 70.6256 75.6748 70.2861C76.0144 69.9466 76.2051 69.486 76.2051 69.0059C76.2051 68.5257 76.0144 68.0652 75.6748 67.7256C75.3353 67.3861 74.8748 67.1953 74.3946 67.1953H40.9668C40.4866 67.1953 40.0261 67.3861 39.6865 67.7256C39.347 68.0652 39.1562 68.5257 39.1562 69.0059C39.1562 69.486 39.347 69.9466 39.6865 70.2861C40.0261 70.6256 40.4866 70.8164 40.9668 70.8164Z" fill="#3A59FC"/>
<path d="M105.344 81.9453H40.9668C40.4866 81.9453 40.0261 82.1361 39.6865 82.4756C39.347 82.8152 39.1562 83.2757 39.1562 83.7559C39.1562 84.236 39.347 84.6966 39.6865 85.0361C40.0261 85.3757 40.4866 85.5664 40.9668 85.5664H105.344C105.824 85.5664 106.284 85.3757 106.624 85.0361C106.963 84.6966 107.154 84.236 107.154 83.7559C107.154 83.2757 106.963 82.8152 106.624 82.4756C106.284 82.1361 105.824 81.9453 105.344 81.9453Z" fill="#3A59FC"/>
<path d="M86.9058 93.0234H40.9668C40.4866 93.0234 40.0261 93.2142 39.6865 93.5537C39.347 93.8933 39.1562 94.3538 39.1562 94.834C39.1562 95.3142 39.347 95.7747 39.6865 96.1142C40.0261 96.4538 40.4866 96.6445 40.9668 96.6445H86.9058C87.3859 96.6445 87.8465 96.4538 88.186 96.1142C88.5256 95.7747 88.7163 95.3142 88.7163 94.834C88.7163 94.3538 88.5256 93.8933 88.186 93.5537C87.8465 93.2142 87.3859 93.0234 86.9058 93.0234Z" fill="#3A59FC"/>
<path d="M74.3716 104.086H40.9668C40.4866 104.086 40.0261 104.277 39.6865 104.616C39.347 104.956 39.1562 105.416 39.1562 105.896C39.1562 106.377 39.347 106.837 39.6865 107.177C40.0261 107.516 40.4866 107.707 40.9668 107.707H74.3717C74.8519 107.707 75.3124 107.516 75.652 107.177C75.9915 106.837 76.1823 106.377 76.1823 105.896C76.1823 105.416 75.9915 104.956 75.652 104.616C75.3124 104.277 74.8518 104.086 74.3716 104.086Z" fill="#3A59FC"/>
</svg>
