<svg width="60" height="60" viewBox="0 0 60 60" fill="none" xmlns="http://www.w3.org/2000/svg">
<g clip-path="url(#clip0_98_57)">
<path fill-rule="evenodd" clip-rule="evenodd" d="M29.9972 14.1465C25.9911 14.1465 22.7435 17.3941 22.7435 21.4002C22.7435 25.4063 25.9911 28.6539 29.9972 28.6539C34.0033 28.6539 37.2509 25.4063 37.2509 21.4002C37.2509 17.3941 34.0033 14.1465 29.9972 14.1465ZM20.0569 21.4002C20.0569 15.9103 24.5073 11.4599 29.9972 11.4599C35.4871 11.4599 39.9375 15.9103 39.9375 21.4002C39.9375 26.8901 35.4871 31.3405 29.9972 31.3405C24.5073 31.3405 20.0569 26.8901 20.0569 21.4002Z" fill="#3A59FC"/>
<path fill-rule="evenodd" clip-rule="evenodd" d="M17.2941 43.5835C15.1939 45.7615 14.4614 48.9147 14.2368 52.9964C14.196 53.7371 13.5625 54.3046 12.8217 54.2638C12.0809 54.223 11.5135 53.5895 11.5543 52.8487C11.7857 48.6443 12.5497 44.6333 15.3602 41.7187C18.1869 38.7872 22.7955 37.2509 30.0013 37.2509C37.207 37.2509 41.8156 38.7872 44.6423 41.7187C47.4528 44.6333 48.2168 48.6443 48.4482 52.8487C48.489 53.5895 47.9216 54.223 47.1808 54.2638C46.4401 54.3046 45.8065 53.7371 45.7657 52.9964C45.5411 48.9147 44.8086 45.7615 42.7084 43.5835C40.6244 41.4223 36.9082 39.9375 30.0013 39.9375C23.0943 39.9375 19.3781 41.4223 17.2941 43.5835Z" fill="#3A59FC"/>
<path fill-rule="evenodd" clip-rule="evenodd" d="M30 2.68657C14.9152 2.68657 2.68657 14.9152 2.68657 30C2.68657 45.0848 14.9152 57.3134 30 57.3134C45.0848 57.3134 57.3134 45.0848 57.3134 30C57.3134 14.9152 45.0848 2.68657 30 2.68657ZM0 30C0 13.4315 13.4315 0 30 0C46.5685 0 60 13.4315 60 30C60 46.5685 46.5685 60 30 60C13.4315 60 0 46.5685 0 30Z" fill="#3A59FC"/>
</g>
<defs>
<clipPath id="clip0_98_57">
<rect width="60" height="60" fill="white"/>
</clipPath>
</defs>
</svg>
