<svg width="60" height="60" viewBox="0 0 60 60" fill="none" xmlns="http://www.w3.org/2000/svg">
<g clip-path="url(#clip0_98_58)">
<path d="M58.1139 50.8646C63.8876 40.0661 55.6773 26.3919 43.3744 26.5745C38.9743 26.5953 34.7602 28.3525 31.6488 31.464C28.5374 34.5754 26.7803 38.7895 26.7596 43.1897C26.5747 55.4967 40.2741 63.7084 51.0499 57.9285L57.8781 58.9042C58.0427 58.9278 58.2104 58.9128 58.3682 58.8603C58.5259 58.8077 58.6692 58.7192 58.7868 58.6016C58.9043 58.4841 58.9929 58.3407 59.0454 58.183C59.0979 58.0253 59.1129 57.8575 59.0893 57.6929L58.1139 50.8646ZM56.7632 56.5781L51.0069 55.7634C50.7749 55.7261 50.5371 55.7676 50.3316 55.8813C35.5273 63.5639 21.5693 45.0197 33.1485 32.963C45.2095 21.3839 63.7481 35.3443 56.0664 50.1466C55.9578 50.3539 55.9165 50.59 55.9485 50.8218L56.7632 56.5781Z" fill="#3A59FC"/>
<path d="M43.3766 44.7992C44.2645 44.7992 44.9843 44.0794 44.9843 43.1915C44.9843 42.3036 44.2645 41.5838 43.3766 41.5838C42.4887 41.5838 41.7689 42.3036 41.7689 43.1915C41.7689 44.0794 42.4887 44.7992 43.3766 44.7992Z" fill="#3A59FC"/>
<path d="M50.8822 44.7992C51.7701 44.7992 52.4899 44.0794 52.4899 43.1915C52.4899 42.3036 51.7701 41.5838 50.8822 41.5838C49.9943 41.5838 49.2745 42.3036 49.2745 43.1915C49.2745 44.0794 49.9943 44.7992 50.8822 44.7992Z" fill="#3A59FC"/>
<path d="M35.871 44.7992C36.7589 44.7992 37.4787 44.0794 37.4787 43.1915C37.4787 42.3036 36.7589 41.5838 35.871 41.5838C34.9831 41.5838 34.2633 42.3036 34.2633 43.1915C34.2633 44.0794 34.9831 44.7992 35.871 44.7992Z" fill="#3A59FC"/>
<path d="M24.8752 50.6937L15.9239 56.022C15.4528 56.304 14.9091 56.4411 14.3606 56.4162C13.8121 56.3914 13.283 56.2056 12.8394 55.8822C12.3957 55.5587 12.057 55.1118 11.8656 54.5973C11.6741 54.0827 11.6384 53.5231 11.7627 52.9883L14.7315 39.9282C14.9263 39.0571 14.8832 38.1497 14.6068 37.301C14.3304 36.4523 13.8307 35.6936 13.1603 35.1044L3.0719 26.2707C2.65421 25.9119 2.35193 25.4377 2.20306 24.9076C2.0542 24.3775 2.06539 23.8152 2.23524 23.2914C2.40509 22.7676 2.72601 22.3058 3.15765 21.9639C3.58928 21.6221 4.11236 21.4155 4.66111 21.3701L18.0165 20.1484C18.9045 20.0676 19.7543 19.749 20.4766 19.2261C21.1989 18.7033 21.767 17.9954 22.1211 17.177L27.4065 4.84815C27.6207 4.34266 27.9791 3.91146 28.4369 3.60838C28.8947 3.3053 29.4316 3.14376 29.9806 3.14392C30.5296 3.14409 31.0664 3.30596 31.524 3.60932C31.9816 3.91267 32.3397 4.34409 32.5537 4.84972L37.8401 17.1818C38.1944 17.999 38.7622 18.7057 39.4839 19.2277C40.2056 19.7496 41.0546 20.0675 41.9416 20.148L55.2971 21.3701C55.8458 21.4154 56.3689 21.6218 56.8007 21.9636C57.2324 22.3053 57.5534 22.767 57.7235 23.2907C57.8935 23.8144 57.9049 24.3767 57.7563 24.9068C57.6077 25.437 57.3056 25.9114 56.8881 26.2704L55.6236 27.3742C55.4153 27.5626 55.2892 27.8254 55.2726 28.1058C55.256 28.3863 55.3502 28.662 55.5349 28.8737C55.7195 29.0854 55.9799 29.2162 56.26 29.2379C56.5402 29.2595 56.8176 29.1703 57.0326 28.9895L58.298 27.8851C59.0173 27.2435 59.5344 26.4065 59.7863 25.4761C60.0381 24.5457 60.0139 23.5622 59.7165 22.6454C59.4192 21.7285 58.8615 20.918 58.1115 20.3126C57.3615 19.7072 56.4516 19.333 55.4927 19.2357L42.1352 18.0129C41.6322 17.9673 41.1508 17.7872 40.7413 17.4915C40.3319 17.1958 40.0096 16.7954 39.8081 16.3323L34.5248 4.00645C34.1458 3.11485 33.5128 2.35443 32.7048 1.81986C31.8968 1.28528 30.9494 1.00017 29.9806 1C29.0117 0.999833 28.0643 1.28462 27.2561 1.81892C26.4479 2.35321 25.8147 3.11341 25.4353 4.00488L20.153 16.3276C19.9517 16.7919 19.6291 17.1934 19.2191 17.4901C18.8091 17.7867 18.3268 17.9675 17.8228 18.0135L4.46548 19.2357C3.50672 19.3332 2.59701 19.7074 1.84718 20.3128C1.09735 20.9181 0.539791 21.7285 0.242424 22.6452C-0.0549436 23.5619 -0.0792751 24.5453 0.172394 25.4755C0.424062 26.4058 0.940866 27.2428 1.65983 27.8845L11.746 36.7155C12.1269 37.0505 12.4109 37.4817 12.5682 37.964C12.7254 38.4463 12.7502 38.962 12.6399 39.4571L9.67237 52.5119C9.44862 53.4571 9.50912 54.4474 9.84628 55.3583C10.1834 56.2692 10.7822 57.0602 11.5674 57.6319C12.3527 58.2037 13.2893 58.5306 14.2597 58.5718C15.2302 58.613 16.1912 58.3665 17.022 57.8634L25.9722 52.5361C26.2104 52.3877 26.3809 52.1518 26.4472 51.879C26.5134 51.6063 26.4701 51.3185 26.3265 51.0774C26.1829 50.8362 25.9505 50.661 25.6792 50.5893C25.4079 50.5175 25.1192 50.555 24.8752 50.6937Z" fill="#3A59FC"/>
</g>
<defs>
<clipPath id="clip0_98_58">
<rect width="60" height="60" fill="white"/>
</clipPath>
</defs>
</svg>
