<svg width="60" height="60" viewBox="0 0 60 60" fill="none" xmlns="http://www.w3.org/2000/svg">
<path d="M56.7857 1H3.21429C2.36257 1.00248 1.54644 1.34193 0.944187 1.94419C0.341929 2.54644 0.00248463 3.36257 0 4.21429V55.6429C0.00249588 56.4946 0.341944 57.3107 0.944199 57.9129C1.54645 58.5152 2.36257 58.8546 3.21429 58.8571H56.7857C57.6374 58.8546 58.4535 58.5152 59.0558 57.9129C59.6581 57.3107 59.9975 56.4946 60 55.6429V4.21429C59.9975 3.36257 59.6581 2.54644 59.0558 1.94419C58.4536 1.34193 57.6374 1.00248 56.7857 1ZM57.8571 55.6429C57.8563 55.9268 57.7431 56.1988 57.5424 56.3995C57.3416 56.6003 57.0696 56.7134 56.7857 56.7143H3.21429C2.93039 56.7134 2.65836 56.6003 2.45761 56.3995C2.25686 56.1988 2.14371 55.9268 2.14286 55.6429V16H57.8571V55.6429ZM57.8571 13.8571H2.14286V4.21429C2.14371 3.93039 2.25686 3.65836 2.45761 3.45761C2.65836 3.25686 2.93039 3.1437 3.21429 3.14286H56.7857C57.0696 3.1437 57.3416 3.25686 57.5424 3.45761C57.7431 3.65836 57.8563 3.93039 57.8571 4.21429V13.8571Z" fill="#3A59FC"/>
<path d="M8.5655 10.6429C9.74896 10.6429 10.7084 9.6835 10.7084 8.50003C10.7084 7.31657 9.74896 6.35718 8.5655 6.35718C7.38203 6.35718 6.42264 7.31657 6.42264 8.50003C6.42264 9.6835 7.38203 10.6429 8.5655 10.6429Z" fill="#3A59FC"/>
<path d="M17.1414 10.6429C18.3249 10.6429 19.2842 9.6835 19.2842 8.50003C19.2842 7.31657 18.3249 6.35718 17.1414 6.35718C15.9579 6.35718 14.9985 7.31657 14.9985 8.50003C14.9985 9.6835 15.9579 10.6429 17.1414 10.6429Z" fill="#3A59FC"/>
<path d="M25.7099 10.6429C26.8933 10.6429 27.8527 9.6835 27.8527 8.50003C27.8527 7.31657 26.8933 6.35718 25.7099 6.35718C24.5264 6.35718 23.567 7.31657 23.567 8.50003C23.567 9.6835 24.5264 10.6429 25.7099 10.6429Z" fill="#3A59FC"/>
<path d="M8.56697 45.6269H51.4241C51.7083 45.6269 51.9808 45.5141 52.1817 45.3131C52.3827 45.1122 52.4955 44.8397 52.4955 44.5555C52.4955 44.2713 52.3827 43.9988 52.1817 43.7979C51.9808 43.597 51.7083 43.4841 51.4241 43.4841H48.2098V27.218C48.2098 26.9339 48.0969 26.6614 47.896 26.4604C47.6951 26.2595 47.4226 26.1466 47.1384 26.1466C46.8542 26.1466 46.5817 26.2595 46.3808 26.4604C46.1799 26.6614 46.067 26.9339 46.067 27.218V43.4841H39.698V32.0719C39.698 31.7877 39.5852 31.5152 39.3842 31.3143C39.1833 31.1133 38.9108 31.0005 38.6266 31.0005C38.3424 31.0005 38.0699 31.1133 37.869 31.3143C37.6681 31.5152 37.5552 31.7877 37.5552 32.0719V43.4841H31.0868V30.1404C31.0868 29.8562 30.974 29.5837 30.773 29.3828C30.5721 29.1819 30.2996 29.069 30.0154 29.069C29.7313 29.069 29.4587 29.1819 29.2578 29.3828C29.0569 29.5837 28.944 29.8562 28.944 30.1404V43.4841H22.4757V34.3915C22.4757 34.1074 22.3628 33.8349 22.1619 33.6339C21.9609 33.433 21.6884 33.3201 21.4042 33.3201C21.1201 33.3201 20.8476 33.433 20.6466 33.6339C20.4457 33.8349 20.3328 34.1074 20.3328 34.3915V43.484H13.8645V37.4112C13.8645 37.127 13.7516 36.8545 13.5507 36.6536C13.3497 36.4526 13.0772 36.3397 12.7931 36.3397C12.5089 36.3397 12.2364 36.4526 12.0354 36.6536C11.8345 36.8545 11.7216 37.127 11.7216 37.4112V43.484H8.56697C8.28281 43.484 8.01029 43.5969 7.80936 43.7978C7.60843 43.9988 7.49554 44.2713 7.49554 44.5555C7.49554 44.8396 7.60843 45.1121 7.80936 45.3131C8.01029 45.514 8.28281 45.6269 8.56697 45.6269Z" fill="#3A59FC"/>
<path d="M51.4212 7.43008H38.6237C38.3395 7.43008 38.067 7.54297 37.866 7.7439C37.6651 7.94483 37.5522 8.21735 37.5522 8.50151C37.5522 8.78567 37.6651 9.0582 37.866 9.25913C38.067 9.46006 38.3395 9.57294 38.6237 9.57294H51.4212C51.7053 9.57294 51.9778 9.46006 52.1788 9.25913C52.3797 9.0582 52.4926 8.78567 52.4926 8.50151C52.4926 8.21735 52.3797 7.94483 52.1788 7.7439C51.9778 7.54297 51.7053 7.43008 51.4212 7.43008Z" fill="#3A59FC"/>
</svg>
