<svg width="204" height="57" viewBox="0 0 204 57" fill="none" xmlns="http://www.w3.org/2000/svg">
<g clip-path="url(#clip0_89_16)">
<path d="M90.5818 45.7334C87.8263 45.7334 85.3617 45.3354 83.188 44.5394C81.0143 43.7433 79.162 42.6259 77.6312 41.1869C76.1004 39.748 74.9217 38.0488 74.0951 36.0893C73.2991 34.1299 72.901 31.9868 72.901 29.66C72.901 27.3332 73.2991 25.1901 74.0951 23.2306C74.9217 21.2712 76.1004 19.572 77.6312 18.1331C79.162 16.6941 81.0143 15.5767 83.188 14.7806C85.3617 13.9846 87.8263 13.5866 90.5818 13.5866H95.4956V20.7048H90.8573C89.4184 20.7048 88.1325 20.9344 86.9997 21.3937C85.8975 21.8529 84.9637 22.4959 84.1983 23.3225C83.4329 24.1185 82.8512 25.0676 82.4532 26.1698C82.0552 27.2413 81.8562 28.4047 81.8562 29.66C81.8562 30.9153 82.0552 32.094 82.4532 33.1961C82.8512 34.2983 83.4329 35.2474 84.1983 36.0434C84.9637 36.8394 85.8975 37.4671 86.9997 37.9263C88.1325 38.3855 89.4184 38.6152 90.8573 38.6152H95.4956V45.7334H90.5818Z" fill="white"/>
<path d="M111.885 45.7334C109.221 45.7334 106.864 45.2588 104.812 44.3097C102.792 43.3606 101.184 41.9982 99.9904 40.2225C98.827 38.4468 98.2453 36.3496 98.2453 33.9309C98.2453 31.2367 98.8117 28.9711 99.9445 27.1342C101.077 25.2972 102.577 23.9042 104.445 22.9551C106.313 22.006 108.318 21.5315 110.461 21.5315C112.788 21.5315 114.793 22.0213 116.477 23.001C118.192 23.9501 119.508 25.2972 120.427 27.0423C121.376 28.7874 121.85 30.8234 121.85 33.1502C121.85 33.6401 121.82 34.2065 121.758 34.8494C121.728 35.4617 121.651 35.9822 121.529 36.4108H106.512C106.695 37.0844 106.986 37.6508 107.384 38.11C107.813 38.5386 108.364 38.8601 109.037 39.0744C109.742 39.2887 110.538 39.3959 111.425 39.3959H119.233V45.7334H111.885ZM106.236 31.7725H114.319C114.319 31.3133 114.257 30.8999 114.135 30.5326C114.013 30.1345 113.844 29.7672 113.63 29.4304C113.416 29.0936 113.155 28.8028 112.849 28.5578C112.543 28.3129 112.176 28.1292 111.747 28.0067C111.318 27.8843 110.859 27.823 110.369 27.823C109.726 27.823 109.16 27.9302 108.67 28.1445C108.18 28.3588 107.767 28.6497 107.43 29.0171C107.093 29.3538 106.818 29.7672 106.603 30.257C106.42 30.7162 106.297 31.2214 106.236 31.7725Z" fill="white"/>
<path d="M125.577 45.7334V12.2089H133.522V45.7334H125.577Z" fill="white"/>
<path d="M138.179 45.7334V22.0825H146.17V45.7334H138.179ZM142.174 19.5108C140.95 19.5108 139.894 19.0669 139.006 18.179C138.148 17.2912 137.72 16.2502 137.72 15.0562C137.72 13.8315 138.148 12.7906 139.006 11.9334C139.894 11.0455 140.95 10.6016 142.174 10.6016C143.399 10.6016 144.44 11.0455 145.297 11.9334C146.185 12.7906 146.629 13.8315 146.629 15.0562C146.629 16.2502 146.185 17.2912 145.297 18.179C144.44 19.0669 143.399 19.5108 142.174 19.5108Z" fill="white"/>
<path d="M162.859 46.2845C160.471 46.2845 158.297 45.764 156.338 44.723C154.409 43.6515 152.863 42.1819 151.7 40.3144C150.536 38.4468 149.955 36.3037 149.955 33.885C149.955 31.497 150.536 29.3691 151.7 27.5016C152.863 25.634 154.425 24.1797 156.384 23.1388C158.343 22.0672 160.517 21.5315 162.905 21.5315C165.293 21.5315 167.452 22.0672 169.38 23.1388C171.34 24.1797 172.886 25.634 174.019 27.5016C175.182 29.3691 175.764 31.497 175.764 33.885C175.764 36.3037 175.182 38.4468 174.019 40.3144C172.886 42.1819 171.34 43.6515 169.38 44.723C167.452 45.764 165.278 46.2845 162.859 46.2845ZM162.859 39.2122C163.839 39.2122 164.696 38.9826 165.431 38.5233C166.196 38.0641 166.778 37.4364 167.176 36.6404C167.574 35.8138 167.773 34.8953 167.773 33.885C167.773 32.8441 167.574 31.9256 167.176 31.1296C166.778 30.3335 166.196 29.7059 165.431 29.2467C164.696 28.7874 163.839 28.5578 162.859 28.5578C161.88 28.5578 161.022 28.7874 160.287 29.2467C159.553 29.7059 158.971 30.3335 158.542 31.1296C158.144 31.9256 157.945 32.8441 157.945 33.885C157.945 34.8953 158.144 35.8138 158.542 36.6404C158.971 37.4364 159.553 38.0641 160.287 38.5233C161.022 38.9826 161.88 39.2122 162.859 39.2122Z" fill="white"/>
<path d="M179.529 45.7334V32.1399C179.529 30.1192 180.018 28.3129 180.998 26.7209C182.008 25.0982 183.417 23.8277 185.223 22.9092C187.06 21.9907 189.203 21.5315 191.652 21.5315C194.102 21.5315 196.214 21.9907 197.99 22.9092C199.766 23.8277 201.128 25.0982 202.077 26.7209C203.026 28.3129 203.501 30.1192 203.501 32.1399V45.7334H195.51V32.5073C195.51 31.8031 195.342 31.1602 195.005 30.5785C194.668 29.9662 194.194 29.4763 193.581 29.1089C193 28.7415 192.311 28.5578 191.515 28.5578C190.749 28.5578 190.045 28.7415 189.402 29.1089C188.79 29.4763 188.315 29.9662 187.979 30.5785C187.642 31.1602 187.473 31.8031 187.473 32.5073V45.7334H179.529Z" fill="white"/>
<path d="M26.5241 15.6008L28.8672 17.6231C29.7435 18.3794 29.7967 19.7194 28.9831 20.5429L22.3612 27.2446C21.6272 27.9874 21.5862 29.1706 22.2935 29.9388C29.0052 37.2291 41.153 47.3976 46.6962 51.8082C56.2808 58.7121 61.8207 57.14 63.346 55.4189C67.2435 51.0213 62.9411 41.8395 59.9773 37.1728C59.6614 36.6755 59.5668 36.0691 59.7089 35.4974C62.7054 23.4409 56.9201 13.6811 53.5675 10.2439C46.2846 1.77858 36.0656 0.471628 29.3597 1.11665C27.663 1.27986 27.2315 3.41134 28.5455 4.49709C35.3783 10.1427 46.0728 20.8151 52.2083 27.1506C52.9655 27.9324 52.9518 29.1761 52.182 29.9456L40.8273 41.2957C40.0698 42.0529 38.8503 42.0789 38.0611 41.3547L35.9776 39.4427C35.1434 38.6772 35.1105 37.3725 35.905 36.5658L42.4756 29.8943C43.2147 29.1439 43.2461 27.9478 42.5362 27.1697C29.4054 12.7789 16.1407 3.99587 11.018 1.3501C5.9437 -1.32692 2.38491 0.586917 1.2398 1.87846C-2.01931 5.94296 1.85397 14.997 4.74222 19.952C5.03099 20.4475 5.1035 21.0388 4.95434 21.5925C1.75444 33.471 7.6065 43.4711 11.018 47.0532C18.377 55.5886 28.6876 56.8952 35.4984 56.2267C37.2227 56.0575 37.6426 53.8462 36.2982 52.7532C29.4901 47.2184 18.6437 36.4289 12.3737 29.9649C11.6172 29.1849 11.6299 27.9452 12.396 27.1746L23.799 15.7048C24.5392 14.9602 25.7292 14.9148 26.5241 15.6008Z" fill="url(#paint0_linear_89_16)"/>
</g>
<defs>
<linearGradient id="paint0_linear_89_16" x1="-1.83306" y1="-1.98239e-06" x2="72.4838" y2="71.862" gradientUnits="userSpaceOnUse">
<stop stop-color="#2D5DFF"/>
<stop offset="1" stop-color="#F51AD6"/>
</linearGradient>
<clipPath id="clip0_89_16">
<rect width="204" height="57" fill="white"/>
</clipPath>
</defs>
</svg>
