<svg width="40" height="40" viewBox="0 0 40 40" fill="none" xmlns="http://www.w3.org/2000/svg">
<path d="M1.5 20.2127C1.5 27.2714 5.57303 33.5007 11.1389 36.5601C13.0741 37.6475 14.6775 35.0673 12.5396 33.8326C7.91365 31.2522 4.65154 26.1287 4.65154 20.2127C4.65154 11.5137 11.5812 4.54716 20.2802 4.54716C28.9793 4.54716 35.9642 11.5137 35.9642 20.2127C35.9642 21.3185 36.8119 21.853 37.623 21.853C38.3785 21.853 39.0972 21.3001 39.0972 20.2127C39.0972 9.92874 30.5642 1.41406 20.2802 1.41406C10.0147 1.41406 1.5 9.92874 1.5 20.2127ZM8.94574 20.2127C8.94574 24.3226 11.1942 27.769 13.885 29.5015C15.7464 30.7546 17.3498 28.2666 15.7833 27.1977C13.498 25.7049 11.9867 23.1431 11.9867 20.2127C11.9867 15.5683 15.6727 11.8823 20.2802 11.8823C24.8877 11.8823 28.4447 15.5499 28.6106 20.2127C28.6474 21.0605 29.2925 21.7239 30.1402 21.7239C30.9881 21.7239 31.6516 21.0605 31.6516 20.2127C31.6516 13.9833 26.5095 8.84136 20.2802 8.84136C14.0877 8.84136 8.94574 13.9833 8.94574 20.2127ZM19.5799 33.5561C19.5615 34.2748 20.4092 34.5145 20.87 34.0537L23.6898 31.2338L26.8413 39.0113C26.9887 39.3615 27.3573 39.5275 27.689 39.3983L29.5137 38.6612C29.8453 38.5137 29.9745 38.1267 29.8085 37.7766L26.5095 30.1097L30.4721 29.9622C31.1724 29.9254 31.5041 29.2434 31.0065 28.7274L20.9437 18.3697C20.4645 17.8905 19.7642 18.1669 19.7458 18.8489L19.5799 33.5561Z" fill="white"/>
</svg>
