<svg width="40" height="40" viewBox="0 0 40 40" fill="none" xmlns="http://www.w3.org/2000/svg">
<path d="M4.28516 13.3292C4.28516 14.8025 5.85881 15.1708 6.79631 14.2165L14.2126 6.80022C15.1836 5.84598 14.7986 4.28906 13.3253 4.28906H5.8086C4.87109 4.28906 4.28516 4.92522 4.28516 5.82923V13.3292ZM8.60436 10.7176L29.8153 31.9453L31.9414 29.8526L10.7305 8.60826L8.60436 10.7176ZM36.2773 27.2411C36.2773 25.7511 34.7037 25.3995 33.7494 26.3371L26.3332 33.7533C25.3789 34.7243 25.764 36.2812 27.2372 36.2812H34.7539C35.6914 36.2812 36.2773 35.6283 36.2773 34.7411V27.2411ZM36.2773 13.3292V5.82923C36.2773 4.92522 35.6914 4.28906 34.7539 4.28906H27.2372C25.764 4.28906 25.3789 5.84598 26.3332 6.80022L33.7494 14.2165C34.7037 15.1708 36.2773 14.8025 36.2773 13.3292ZM10.7305 31.9453L31.9582 10.7176L29.832 8.60826L8.60436 29.8359L10.7305 31.9453ZM4.28516 27.2411V34.7411C4.28516 35.6283 4.87109 36.2812 5.8086 36.2812H13.3253C14.7986 36.2812 15.1836 34.7243 14.2126 33.7533L6.79631 26.3371C5.85881 25.3995 4.28516 25.7511 4.28516 27.2411Z" fill="white"/>
</svg>
