<svg width="40" height="40" viewBox="0 0 40 40" fill="none" xmlns="http://www.w3.org/2000/svg">
<path d="M4 21.6972V24.0665C4 27.175 5.56938 28.7444 8.73833 28.7444H12.5561V26.3149H8.7685C7.25948 26.3149 6.42952 25.5001 6.42952 23.9306V21.6972H4ZM6.42952 19.63V12.779H4V19.63H6.42952ZM6.42952 10.7267V8.93096C6.42952 7.36158 7.25948 6.54671 8.7685 6.54671H10.9566V4.11719H8.73833C5.56938 4.11719 4 5.68657 4 8.79515V10.7267H6.42952ZM19.8598 4.11719H13.0088V6.54671H19.8598V4.11719ZM21.9121 6.54671H23.8437C25.3375 6.54671 26.1826 7.36158 26.1826 8.93096V12.2357H28.6121V8.79515C28.6121 5.68657 27.0276 4.11719 23.8889 4.11719H21.9121V6.54671ZM35.9309 27.4617V15.7819C35.9309 12.6733 34.3464 11.1039 31.2076 11.1039H16.0571C12.8881 11.1039 11.3187 12.6582 11.3187 15.7819V31.0532C11.3187 34.1617 12.8881 35.7312 16.0571 35.7312H23.6625V33.3017H16.0873C14.5933 33.3017 13.7483 32.4867 13.7483 30.9174V15.9178C13.7483 14.3483 14.5933 13.5335 16.0873 13.5335H31.1624C32.6563 13.5335 33.5014 14.3483 33.5014 15.9178V25.0172L35.9309 27.4617ZM25.0206 32.9999C25.0056 33.5883 25.6998 33.7694 26.0769 33.4073L28.3858 31.0984L30.9662 37.4665C31.087 37.7533 31.3887 37.8891 31.6604 37.7834L33.1693 37.1799C33.4259 37.0591 33.5466 36.7422 33.3957 36.4555L30.6946 30.178L33.954 30.0572C34.5124 30.0271 34.7991 29.4687 34.3917 29.0462L26.1373 20.5655C25.76 20.1731 25.1715 20.3995 25.1565 20.9578L25.0206 32.9999Z" fill="white"/>
</svg>
