<svg width="70" height="70" viewBox="0 0 70 70" fill="none" xmlns="http://www.w3.org/2000/svg">
<path d="M5.79614 31.6895C6.06458 31.6842 6.32172 31.5804 6.51866 31.3979C6.71561 31.2154 6.83863 30.9669 6.86434 30.6997C6.89005 30.4324 6.81666 30.165 6.65812 29.9483C6.49957 29.7317 6.26693 29.5808 6.00442 29.5244C5.85342 29.492 5.69728 29.4919 5.54623 29.5241C5.39519 29.5563 5.25267 29.6201 5.12803 29.7113C5.00339 29.8025 4.89946 29.919 4.82306 30.0532C4.74665 30.1874 4.69951 30.3363 4.68472 30.49C4.66993 30.6437 4.68783 30.7988 4.73725 30.9452C4.78666 31.0915 4.86648 31.2257 4.97144 31.339C5.07641 31.4523 5.20416 31.5421 5.34629 31.6025C5.48842 31.6629 5.64173 31.6925 5.79614 31.6895Z" fill="white"/>
<path d="M18.9776 11.2758C19.2186 11.2737 19.452 11.1914 19.6411 11.0419C19.8301 10.8925 19.964 10.6843 20.0217 10.4503C20.0794 10.2163 20.0575 9.96979 19.9595 9.7496C19.8616 9.5294 19.6931 9.34808 19.4807 9.23422C19.2683 9.12036 19.024 9.08044 18.7864 9.12077C18.5488 9.16109 18.3314 9.27936 18.1685 9.45693C18.0055 9.63449 17.9063 9.86124 17.8865 10.1014C17.8667 10.3416 17.9274 10.5816 18.059 10.7834C18.1585 10.936 18.2948 11.0611 18.4553 11.1471C18.6158 11.2332 18.7954 11.2774 18.9776 11.2758Z" fill="white"/>
<path d="M14.1258 15.2127C14.3344 15.2087 14.5375 15.1457 14.7118 15.0312C14.8861 14.9166 15.0245 14.7552 15.111 14.5654C15.1975 14.3756 15.2286 14.1652 15.2007 13.9585C15.1728 13.7518 15.0871 13.5572 14.9533 13.3971C14.8563 13.2894 14.7389 13.202 14.6079 13.14C14.4768 13.0781 14.3348 13.0428 14.1899 13.0363C14.0451 13.0297 13.9005 13.052 13.7644 13.1019C13.6282 13.1517 13.5034 13.2282 13.3971 13.3267C13.2908 13.4252 13.2051 13.5439 13.1451 13.6759C13.085 13.8078 13.0518 13.9504 13.0474 14.0952C13.0429 14.2401 13.0673 14.3845 13.1192 14.5198C13.171 14.6552 13.2492 14.7789 13.3493 14.8838C13.4501 14.9878 13.5708 15.0705 13.7042 15.127C13.8376 15.1835 13.981 15.2126 14.1258 15.2127Z" fill="white"/>
<path d="M24.5586 8.46528C24.7915 8.46448 25.018 8.3894 25.2053 8.25095C25.3926 8.11249 25.5307 7.91789 25.5997 7.69547C25.6688 7.47305 25.665 7.23441 25.589 7.01428C25.513 6.79415 25.3687 6.60402 25.1772 6.47156C24.9856 6.33909 24.7568 6.27121 24.524 6.27778C24.2912 6.28435 24.0666 6.36504 23.8829 6.5081C23.6991 6.65116 23.5658 6.84913 23.5023 7.0732C23.4389 7.29726 23.4486 7.53574 23.53 7.75391C23.6091 7.96279 23.7499 8.14268 23.9336 8.26973C24.1173 8.39678 24.3353 8.46497 24.5586 8.46528Z" fill="white"/>
<path d="M9.58683 19.8898C9.76269 20.0039 9.96781 20.0648 10.1775 20.065C10.4409 20.0658 10.6958 19.9716 10.8955 19.7997C11.0951 19.6278 11.2261 19.3897 11.2643 19.129C11.3026 18.8684 11.2456 18.6027 11.1038 18.3806C10.962 18.1586 10.7449 17.9951 10.4923 17.9202C10.2397 17.8453 9.9686 17.8639 9.72867 17.9728C9.48873 18.0816 9.29608 18.2733 9.18603 18.5126C9.07599 18.752 9.05594 19.023 9.12956 19.276C9.20318 19.5289 9.36553 19.7469 9.58683 19.8898Z" fill="white"/>
<path d="M6.98476 25.569C7.1097 25.6206 7.2437 25.6467 7.37889 25.6459C7.6204 25.6388 7.8529 25.5526 8.04069 25.4006C8.22848 25.2485 8.36118 25.0391 8.4184 24.8043C8.47562 24.5696 8.45421 24.3225 8.35745 24.1011C8.26069 23.8798 8.09393 23.6962 7.88278 23.5788C7.74516 23.5099 7.59476 23.4703 7.44107 23.4624C7.28738 23.4545 7.13372 23.4785 6.98976 23.5329C6.8458 23.5873 6.71467 23.671 6.60461 23.7785C6.49456 23.8861 6.40797 24.0153 6.3503 24.158C6.24941 24.4294 6.25941 24.7295 6.37815 24.9936C6.49688 25.2576 6.7148 25.4643 6.98476 25.569Z" fill="white"/>
<path d="M30.6161 6.89246C30.7754 6.88812 30.9319 6.84898 31.0745 6.77778C31.2171 6.70658 31.3424 6.60504 31.4417 6.48028C31.5409 6.35553 31.6116 6.21058 31.6489 6.05559C31.6862 5.90061 31.6891 5.73935 31.6575 5.58311C31.6259 5.42688 31.5605 5.27945 31.4658 5.15117C31.3712 5.02289 31.2497 4.91686 31.1097 4.84052C30.9698 4.76418 30.8149 4.71937 30.6558 4.70924C30.4967 4.69911 30.3373 4.7239 30.1888 4.78188C29.9608 4.88486 29.7746 5.0622 29.6605 5.28486C29.5465 5.50752 29.5114 5.7623 29.561 6.0075C29.6107 6.2527 29.7421 6.47378 29.9337 6.63455C30.1254 6.79532 30.366 6.88626 30.6161 6.89246Z" fill="white"/>
<path d="M35 4.37109C34.7099 4.37109 34.4317 4.48633 34.2266 4.69145C34.0215 4.89656 33.9062 5.17476 33.9062 5.46484C33.9062 5.75492 34.0215 6.03312 34.2266 6.23824C34.4317 6.44336 34.7099 6.55859 35 6.55859C40.6244 6.55859 46.1225 8.22642 50.799 11.3512C55.4755 14.4759 59.1205 18.9173 61.2728 24.1135C63.4252 29.3098 63.9883 35.0276 62.8911 40.544C61.7938 46.0603 59.0854 51.1274 55.1083 55.1044C51.1313 59.0815 46.0642 61.7899 40.5479 62.8872C35.0315 63.9844 29.3137 63.4213 24.1174 61.2689C18.9212 59.1166 14.4798 55.4716 11.3551 50.7951C8.23033 46.1186 6.5625 40.6205 6.5625 34.9961C6.5625 34.706 6.44727 34.4278 6.24215 34.2227C6.03703 34.0176 5.75883 33.9023 5.46875 33.9023C5.17867 33.9023 4.90047 34.0176 4.69535 34.2227C4.49023 34.4278 4.375 34.706 4.375 34.9961C4.375 41.0531 6.17113 46.9742 9.53624 52.0104C12.9014 57.0467 17.6843 60.972 23.2803 63.2899C28.8763 65.6078 35.034 66.2143 40.9746 65.0326C46.9153 63.851 52.3722 60.9342 56.6551 56.6512C60.9381 52.3683 63.8549 46.9114 65.0365 40.9707C66.2182 35.0301 65.6117 28.8724 63.2938 23.2764C60.9759 17.6804 57.0506 12.8975 52.0143 9.53234C46.9781 6.16722 41.0571 4.37109 35 4.37109Z" fill="white"/>
<path d="M34.0829 14.8717L33.9141 34.9918C33.913 35.137 33.9407 35.281 33.9957 35.4154C34.0507 35.5498 34.1319 35.6719 34.2346 35.7747L44.5194 46.0596C44.6209 46.1613 44.7414 46.242 44.8741 46.297C45.0068 46.352 45.1491 46.3802 45.2927 46.38C45.5075 46.3766 45.7165 46.3104 45.8941 46.1896C46.0717 46.0688 46.2101 45.8988 46.2923 45.7004C46.3745 45.502 46.3968 45.2838 46.3566 45.0729C46.3164 44.8619 46.2154 44.6673 46.066 44.513L36.1058 34.5518L36.2703 14.891C36.2663 14.6053 36.1506 14.3324 35.9479 14.1309C35.7453 13.9293 35.4718 13.8151 35.1861 13.8125C34.9003 13.81 34.6248 13.9194 34.4187 14.1173C34.2125 14.3153 34.092 14.586 34.0829 14.8717Z" fill="#3A59FC"/>
</svg>
