<svg width="1920" height="1817" viewBox="0 0 1920 1817" fill="none" xmlns="http://www.w3.org/2000/svg">
<g clip-path="url(#clip0_116_940)">
<g opacity="0.5">
<path d="M790.284 478.062C763.597 437.277 775.477 382.872 816.818 356.545C858.16 330.217 913.307 341.937 939.995 382.722C966.681 423.506 954.801 477.911 913.46 504.239C872.119 530.566 816.971 518.846 790.284 478.062Z" fill="url(#paint0_radial_116_940)"/>
<path fill-rule="evenodd" clip-rule="evenodd" d="M184.976 1024.59C293.212 899.277 464.033 762.616 671.781 644.284C879.531 525.95 1084.9 448.334 1249.02 418.514C1331.07 403.604 1402.84 400.638 1459.44 410.523C1516.04 420.407 1557.54 443.153 1578.95 479.728C1600.35 516.302 1599.57 563.135 1579.94 616.435C1560.31 669.737 1521.83 729.571 1467.71 792.223C1359.48 917.53 1188.65 1054.19 980.907 1172.52C773.159 1290.85 567.785 1368.47 403.67 1398.29C321.614 1413.2 249.848 1416.17 193.246 1406.29C136.648 1396.4 95.1462 1373.66 73.7426 1337.08C52.3384 1300.51 53.1221 1253.67 72.7466 1200.37C92.3719 1147.07 130.86 1087.24 184.976 1024.59ZM73.6175 1200.68C54.0436 1253.85 53.3316 1300.37 74.5456 1336.62C95.76 1372.87 136.956 1395.52 193.412 1405.38C249.866 1415.24 321.513 1412.29 403.508 1397.39C567.493 1367.59 772.767 1290.02 980.448 1171.73C1188.13 1053.43 1358.86 916.836 1467.01 791.629C1521.08 729.023 1559.5 669.286 1579.07 616.125C1598.64 562.963 1599.36 516.441 1578.15 480.192C1556.93 443.94 1515.73 421.286 1459.28 411.427C1402.82 401.568 1331.18 404.518 1249.18 419.417C1085.2 449.213 879.922 526.783 672.24 645.079C464.559 763.372 293.829 899.971 185.68 1025.18C131.603 1087.79 93.1906 1147.52 73.6175 1200.68ZM309.738 1047.42C333.624 979.273 401.066 897.886 499.922 817.91L500.506 818.62C401.697 898.558 334.415 979.812 310.614 1047.72C298.72 1081.65 298.105 1111.05 308.132 1134.85C318.153 1158.65 338.87 1177.01 369.963 1188.76C432.219 1212.28 531.71 1207.62 650.628 1175.42C769.5 1143.22 899.807 1085.65 1018.07 1013.08C1136.34 940.498 1234.74 857.711 1295.59 779.644C1326.01 740.614 1346.01 704.079 1355.21 671.587C1364.41 639.099 1362.8 610.713 1350.11 587.866C1337.41 565.017 1313.95 548.307 1281.14 538.281C1248.3 528.268 1206.17 524.96 1156.25 528.891C1056.39 536.763 932.148 573.03 805.877 631.223L805.49 630.391C931.825 572.169 1056.18 535.859 1156.18 527.977C1206.17 524.039 1248.43 527.346 1281.41 537.403L1281.28 537.842L1281.41 537.403C1314.38 547.476 1338.07 564.304 1350.92 587.419C1363.77 610.536 1365.35 639.185 1356.1 671.83C1346.86 704.473 1326.78 741.114 1296.32 780.202C1235.38 858.385 1136.89 941.241 1018.56 1013.86C900.225 1086.47 769.837 1144.08 650.868 1176.3C531.898 1208.52 432.166 1213.24 369.628 1189.61C338.359 1177.8 317.417 1159.29 307.276 1135.21C297.135 1111.13 297.796 1081.49 309.738 1047.42ZM445.579 1041.59C438.276 1004.41 454.311 956.266 491.418 903.956L492.176 904.48C455.12 956.718 439.259 1004.6 446.489 1041.41C453.694 1078.09 483.544 1102.23 532.264 1110.24C581.013 1118.25 646.024 1109.65 718.128 1085.55C790.215 1061.47 865.668 1023.14 933.812 975.986C1001.96 928.832 1059.31 875.261 1097.79 822.859C1136.29 770.431 1153.83 721.972 1148.25 684.297C1145.46 665.495 1136.99 649.824 1123.32 637.709C1109.63 625.585 1090.7 616.978 1066.98 612.378C1019.51 603.187 955.402 610.57 883.687 633.59L883.406 632.717C955.196 609.673 1019.48 602.244 1067.16 611.477C1091 616.1 1110.1 624.763 1123.94 637.023C1137.77 649.285 1146.35 665.151 1149.17 684.159C1154.8 722.189 1137.09 770.898 1098.54 823.396C1059.99 875.9 1002.55 929.539 934.34 976.737C866.13 1023.94 790.598 1062.31 718.42 1086.42C646.241 1110.54 581.066 1119.19 532.107 1111.14C483.147 1103.1 452.881 1078.77 445.579 1041.59Z" fill="white" fill-opacity="0.15"/>
<path d="M1869.83 473.285C1905.76 492.437 1919.15 536.696 1899.73 572.139C1880.32 607.581 1835.45 620.787 1799.53 601.634C1763.6 582.482 1750.22 538.223 1769.63 502.78C1789.05 467.338 1833.91 454.132 1869.83 473.285Z" fill="url(#paint1_radial_116_940)"/>
<g opacity="0.5">
<g filter="url(#filter0_f_116_940)">
<path d="M1306.2 929.535C1300.6 982.663 1098.36 1004.92 854.478 979.239C610.593 953.562 417.42 889.677 423.013 836.549C428.607 783.421 630.849 761.168 874.734 786.845C1118.62 812.523 1311.79 876.407 1306.2 929.535Z" fill="#9B352E"/>
</g>
<g filter="url(#filter1_f_116_940)">
<path d="M1114.43 982.989C1074.52 1090.2 861.678 1109.93 639.04 1027.04C416.402 944.161 268.276 790.054 308.19 682.838C348.105 575.623 560.946 555.898 783.584 638.782C1006.22 721.667 1154.35 875.773 1114.43 982.989Z" fill="#9B352E"/>
</g>
<g filter="url(#filter2_f_116_940)">
<path d="M900.712 773.007C900.712 866.996 823.481 943.189 728.212 943.189C632.943 943.189 555.712 866.996 555.712 773.007C555.712 679.018 632.943 602.824 728.212 602.824C823.481 602.824 900.712 679.018 900.712 773.007Z" fill="#AE1511"/>
</g>
<g filter="url(#filter3_f_116_940)">
<path d="M878.12 779.024C878.12 854.269 816.291 915.267 740.021 915.267C663.752 915.267 601.923 854.269 601.923 779.024C601.923 703.78 663.752 642.781 740.021 642.781C816.291 642.781 878.12 703.78 878.12 779.024Z" fill="#DD7600"/>
</g>
<g filter="url(#filter4_f_116_940)">
<path d="M793.427 755.227C793.427 797.587 758.62 831.927 715.683 831.927C672.746 831.927 637.938 797.587 637.938 755.227C637.938 712.867 672.746 678.528 715.683 678.528C758.62 678.528 793.427 712.867 793.427 755.227Z" fill="#DD7600"/>
</g>
</g>
</g>
</g>
<defs>
<filter id="filter0_f_116_940" x="-77.105" y="276.174" width="1883.42" height="1213.74" filterUnits="userSpaceOnUse" color-interpolation-filters="sRGB">
<feFlood flood-opacity="0" result="BackgroundImageFix"/>
<feBlend mode="normal" in="SourceGraphic" in2="BackgroundImageFix" result="shape"/>
<feGaussianBlur stdDeviation="250" result="effect1_foregroundBlur_116_940"/>
</filter>
<filter id="filter1_f_116_940" x="-198.307" y="87.5256" width="1819.24" height="1490.78" filterUnits="userSpaceOnUse" color-interpolation-filters="sRGB">
<feFlood flood-opacity="0" result="BackgroundImageFix"/>
<feBlend mode="normal" in="SourceGraphic" in2="BackgroundImageFix" result="shape"/>
<feGaussianBlur stdDeviation="250" result="effect1_foregroundBlur_116_940"/>
</filter>
<filter id="filter2_f_116_940" x="305.712" y="352.824" width="845" height="840.365" filterUnits="userSpaceOnUse" color-interpolation-filters="sRGB">
<feFlood flood-opacity="0" result="BackgroundImageFix"/>
<feBlend mode="normal" in="SourceGraphic" in2="BackgroundImageFix" result="shape"/>
<feGaussianBlur stdDeviation="125" result="effect1_foregroundBlur_116_940"/>
</filter>
<filter id="filter3_f_116_940" x="451.923" y="492.781" width="576.197" height="572.486" filterUnits="userSpaceOnUse" color-interpolation-filters="sRGB">
<feFlood flood-opacity="0" result="BackgroundImageFix"/>
<feBlend mode="normal" in="SourceGraphic" in2="BackgroundImageFix" result="shape"/>
<feGaussianBlur stdDeviation="75" result="effect1_foregroundBlur_116_940"/>
</filter>
<filter id="filter4_f_116_940" x="633.938" y="674.528" width="163.489" height="161.399" filterUnits="userSpaceOnUse" color-interpolation-filters="sRGB">
<feFlood flood-opacity="0" result="BackgroundImageFix"/>
<feBlend mode="normal" in="SourceGraphic" in2="BackgroundImageFix" result="shape"/>
<feGaussianBlur stdDeviation="2" result="effect1_foregroundBlur_116_940"/>
</filter>
<radialGradient id="paint0_radial_116_940" cx="0" cy="0" r="1" gradientUnits="userSpaceOnUse" gradientTransform="translate(928.201 342.481) rotate(126.701) scale(190.768 191.525)">
<stop/>
<stop offset="0.567337" stop-color="#160815"/>
<stop offset="0.840936" stop-color="#460D13"/>
<stop offset="1" stop-color="#9C4F2E"/>
</radialGradient>
<radialGradient id="paint1_radial_116_940" cx="0" cy="0" r="1" gradientUnits="userSpaceOnUse" gradientTransform="translate(1907.02 519.528) rotate(165.388) scale(156.414 154.578)">
<stop stop-color="#090909"/>
<stop offset="0.75" stop-color="#140D17"/>
<stop offset="0.880208" stop-color="#450F15"/>
<stop offset="1" stop-color="#624B10"/>
</radialGradient>
<clipPath id="clip0_116_940">
<rect width="1920" height="1817" fill="white"/>
</clipPath>
</defs>
</svg>
