<svg width="70" height="70" viewBox="0 0 70 70" fill="none" xmlns="http://www.w3.org/2000/svg">
<path fill-rule="evenodd" clip-rule="evenodd" d="M35.0031 58.3374C47.8905 58.3374 58.3381 47.8899 58.3381 35.0024C58.3381 22.1149 47.8905 11.6675 35.0031 11.6675C22.1156 11.6675 11.6681 22.1149 11.6681 35.0024C11.6681 47.8899 22.1156 58.3374 35.0031 58.3374ZM35.0031 64.1711C51.1126 64.1711 64.1718 51.112 64.1718 35.0024C64.1718 18.893 51.1126 5.83374 35.0031 5.83374C18.8937 5.83374 5.8344 18.893 5.8344 35.0024C5.8344 51.112 18.8937 64.1711 35.0031 64.1711Z" fill="#3A59FC"/>
<path fill-rule="evenodd" clip-rule="evenodd" d="M40.0972 53.0189C42.2518 48.7094 43.7529 42.3478 43.7529 35.0024C43.7529 27.657 42.2518 21.2954 40.0972 16.986C37.768 12.3277 35.6296 11.6675 35.0023 11.6675C34.375 11.6675 32.2367 12.3277 29.9075 16.986C27.7528 21.2954 26.2517 27.657 26.2517 35.0024C26.2517 42.3478 27.7528 48.7094 29.9075 53.0189C32.2367 57.6773 34.375 58.3374 35.0023 58.3374C35.6296 58.3374 37.768 57.6773 40.0972 53.0189ZM35.0023 64.1711C43.0571 64.1711 49.5867 51.112 49.5867 35.0024C49.5867 18.893 43.0571 5.83374 35.0023 5.83374C26.9476 5.83374 20.418 18.893 20.418 35.0024C20.418 51.112 26.9476 64.1711 35.0023 64.1711Z" fill="#3A59FC"/>
<path fill-rule="evenodd" clip-rule="evenodd" d="M64.0278 37.9193C64.123 36.9599 64.1718 35.9869 64.1718 35.0024C64.1718 34.018 64.123 33.0449 64.0278 32.0856H5.97843C5.88317 33.0449 5.8344 34.018 5.8344 35.0024C5.8344 35.9869 5.88317 36.9599 5.97843 37.9193H64.0278Z" fill="#3A59FC"/>
</svg>
