<svg width="36" height="37" viewBox="0 0 36 37" fill="none" xmlns="http://www.w3.org/2000/svg">
<path d="M18 5.32812H24.3C26.8202 5.32812 28.0804 5.32812 29.043 5.81859C29.8897 6.25002 30.5781 6.93843 31.0095 7.78516C31.5 8.74777 31.5 10.0079 31.5 12.5281V25.1281C31.5 27.6483 31.5 28.9085 31.0095 29.8711C30.5781 30.7178 29.8897 31.4062 29.043 31.8376C28.0804 32.3281 26.8202 32.3281 24.3 32.3281H11.7C9.17976 32.3281 7.91965 32.3281 6.95704 31.8376C6.11031 31.4062 5.4219 30.7178 4.99047 29.8711C4.5 28.9085 4.5 27.6483 4.5 25.1281V18.8281M12 20.3281V26.3281M24 17.3281V26.3281M18 11.3281V26.3281M3 8.32812L7.5 12.8281M7.5 12.8281L12 8.32812M7.5 12.8281V3.82812" stroke="url(#paint0_linear_346_24207)" stroke-width="2.5" stroke-linecap="round" stroke-linejoin="round"/>
<defs>
<linearGradient id="paint0_linear_346_24207" x1="2.19505" y1="3.82812" x2="38.9403" y2="34.9764" gradientUnits="userSpaceOnUse">
<stop stop-color="#2D5DFF"/>
<stop offset="1" stop-color="#F51AD6"/>
</linearGradient>
</defs>
</svg>
