<svg width="656" height="144" viewBox="0 0 656 144" fill="none" xmlns="http://www.w3.org/2000/svg"><path d="M240.079 143.977C176.927 138.027 109.844 135.933 52.6548 120.11C-3.95181 104.445 -19.4745 77.6676 28.6595 53.5581C155.583 -8.12712 462.56 -18.2314 607.117 32.1423C635.375 42.9616 662.012 60.0643 654.808 78.8256C635.408 116.394 496.459 130.556 429.2 136.021C335.962 141.831 197.314 146.622 116.107 120.246C67.5451 104.146 71.8249 77.097 106.987 56.6388C178.194 14.159 340.795 0.952175 441.327 21.0687C456.268 24.205 470.015 28.5552 482.621 33.6177C484.061 34.1695 484.338 35.2305 483.231 35.9494C479.458 38.3202 469.592 32.165 465.189 31.297C392.578 8.51265 298.107 12.9584 219.233 24.7106C174.251 32.1591 130.283 44.6843 103.405 64.681C88.4436 75.548 79.9232 90.2111 92.78 102.54C123.948 130.035 204.965 133.996 262.087 136.489C353.654 138.718 446.822 134.646 534.045 120.412C603.094 109.33 693.096 84.7886 625.667 45.3186C586.306 23.2822 525.96 14.478 469.991 8.73142C349.888 -2.26471 221.469 3.68027 110.354 29.4714C60.9461 41.6302 -21.3402 67.757 16.17 99.6293C46.3359 120.752 100.69 127.816 149.111 132.73C179.668 135.507 210.229 138.299 240.92 140.676C245.242 140.898 244.319 144.308 240.079 143.977Z" fill="url(#paint0_linear_2027_14423)"/><defs><linearGradient id="paint0_linear_2027_14423" x1="-18.528" y1="-5.0174e-06" x2="72.8177" y2="352.747" gradientUnits="userSpaceOnUse"><stop stop-color="#2D5DFF"/><stop offset="1" stop-color="#F51AD6"/></linearGradient></defs></svg>