<svg width="440" height="470" viewBox="0 0 440 470" fill="none" xmlns="http://www.w3.org/2000/svg">
<g clip-path="url(#clip0_122_234)">
<g opacity="0.6">
<path opacity="0.7" d="M31.0232 146.274C31.0232 146.274 1.46855 222.594 43 299.473C84.5314 376.353 170.093 416.943 238.57 451.66C307.047 486.376 378.154 469.47 411.945 412.605C445.736 355.74 399.388 315.145 399.332 234.052C399.278 152.959 411.468 131.488 367.566 62.9769C323.664 -5.53499 215.898 -20.6977 134.433 30.1156C52.9689 80.9289 31.0232 146.274 31.0232 146.274Z" fill="#A335E7" fill-opacity="0.1"/>
<path d="M2.60908 265.263C-2.0398 243.445 -0.759101 220.373 8.7454 196.876C20.9915 166.602 47.2999 145.091 76.7781 132.538C119.617 114.297 161.67 113.95 196.49 78.2061C207.23 67.1813 216.245 54.5535 227.214 43.7566C259.571 11.9078 306.931 15.7743 342.295 41.0267C416.068 93.7069 442.602 198.041 438.499 284.299C436.658 323.01 418.178 359.037 388.927 384.433C322.77 441.875 210.438 432.212 134.456 402.229C77.7948 379.87 15.9143 327.71 2.60908 265.263Z" fill="#3A59FC"/>
<path opacity="0.7" d="M2.60908 265.263C-2.0398 243.445 -0.759101 220.373 8.7454 196.876C20.9915 166.602 47.2999 145.091 76.7781 132.538C119.617 114.297 161.67 113.95 196.49 78.2061C207.23 67.1813 216.245 54.5535 227.214 43.7566C259.571 11.9078 306.931 15.7743 342.295 41.0267C416.068 93.7069 442.602 198.041 438.499 284.299C436.658 323.01 418.178 359.037 388.927 384.433C322.77 441.875 210.438 432.212 134.456 402.229C77.7948 379.87 15.9143 327.71 2.60908 265.263Z" fill="white"/>
<path fill-rule="evenodd" clip-rule="evenodd" d="M335.43 80.4219H339.14V81.4219H335.43V80.4219Z" fill="#263238"/>
<path fill-rule="evenodd" clip-rule="evenodd" d="M97.9955 81.4219H94.5625V80.4219H97.9955V81.4219ZM111.728 81.4219H104.862V80.4219H111.728V81.4219ZM125.46 81.4219H118.594V80.4219H125.46V81.4219ZM139.192 81.4219H132.326V80.4219H139.192V81.4219ZM152.924 81.4219H146.058V80.4219H152.924V81.4219ZM166.656 81.4219H159.79V80.4219H166.656V81.4219ZM180.388 81.4219H173.522V80.4219H180.388V81.4219ZM194.12 81.4219H187.254V80.4219H194.12V81.4219ZM207.852 81.4219H200.986V80.4219H207.852V81.4219ZM221.585 81.4219H214.719V80.4219H221.585V81.4219ZM235.317 81.4219H228.451V80.4219H235.317V81.4219ZM249.049 81.4219H242.183V80.4219H249.049V81.4219ZM262.781 81.4219H255.915V80.4219H262.781V81.4219ZM276.513 81.4219H269.647V80.4219H276.513V81.4219ZM290.245 81.4219H283.379V80.4219H290.245V81.4219ZM303.977 81.4219H297.111V80.4219H303.977V81.4219ZM317.709 81.4219H310.843V80.4219H317.709V81.4219ZM328.009 81.4219H324.575V80.4219H328.009V81.4219Z" fill="#263238"/>
<path fill-rule="evenodd" clip-rule="evenodd" d="M87.1484 80.4219H90.8591V81.4219H87.1484V80.4219Z" fill="#263238"/>
<path fill-rule="evenodd" clip-rule="evenodd" d="M342.211 379.242V382.953H341.211V379.242H342.211Z" fill="#263238"/>
<path fill-rule="evenodd" clip-rule="evenodd" d="M341.211 94.4477V90.9375H342.211V94.4477H341.211ZM341.211 108.488V101.468H342.211V108.488H341.211ZM341.211 122.529V115.509H342.211V122.529H341.211ZM341.211 136.57V129.55H342.211V136.57H341.211ZM341.211 150.611V143.59H342.211V150.611H341.211ZM341.211 164.651V157.631H342.211V164.651H341.211ZM341.211 178.692V171.672H342.211V178.692H341.211ZM341.211 192.733V185.712H342.211V192.733H341.211ZM341.211 206.774V199.753H342.211V206.774H341.211ZM341.211 220.814V213.794H342.211V220.814H341.211ZM341.211 234.855V227.835H342.211V234.855H341.211ZM341.211 248.896V241.875H342.211V248.896H341.211ZM341.211 262.937V255.916H342.211V262.937H341.211ZM341.211 276.977V269.957H342.211V276.977H341.211ZM341.211 291.018V283.998H342.211V291.018H341.211ZM341.211 305.059V298.038H342.211V305.059H341.211ZM341.211 319.1V312.079H342.211V319.1H341.211ZM341.211 333.14V326.12H342.211V333.14H341.211ZM341.211 347.181V340.161H342.211V347.181H341.211ZM341.211 361.222V354.201H342.211V361.222H341.211ZM341.211 371.752V368.242H342.211V371.752H341.211Z" fill="#263238"/>
<path fill-rule="evenodd" clip-rule="evenodd" d="M342.211 83.4844V87.195H341.211V83.4844H342.211Z" fill="#263238"/>
<path fill-rule="evenodd" clip-rule="evenodd" d="M338.641 78.3516C338.641 78.0754 338.864 77.8516 339.141 77.8516H344.277C344.553 77.8516 344.777 78.0754 344.777 78.3516V83.4881C344.777 83.7643 344.553 83.9881 344.277 83.9881H339.141C338.864 83.9881 338.641 83.7643 338.641 83.4881V78.3516ZM339.641 78.8516V82.9881H343.777V78.8516H339.641Z" fill="#263238"/>
<path fill-rule="evenodd" clip-rule="evenodd" d="M346.982 80.2558C347.126 80.1122 347.342 80.0697 347.53 80.1484L384.853 95.8274C385.044 95.9077 385.166 96.0978 385.159 96.3052C385.152 96.5125 385.018 96.694 384.822 96.7613L372.951 100.833L380.718 108.6C380.812 108.693 380.865 108.821 380.865 108.953C380.865 109.086 380.812 109.213 380.718 109.307L376.033 113.992C375.838 114.187 375.522 114.187 375.326 113.992L367.559 106.225L363.488 118.095C363.421 118.291 363.239 118.426 363.032 118.433C362.824 118.44 362.634 118.318 362.554 118.127L346.875 80.803C346.796 80.6157 346.839 80.3995 346.982 80.2558ZM348.271 81.5446L362.968 116.529L366.873 105.143C366.929 104.98 367.065 104.857 367.233 104.818C367.401 104.779 367.577 104.83 367.699 104.952L375.68 112.931L379.658 108.953L371.677 100.974C371.555 100.852 371.505 100.676 371.544 100.507C371.582 100.339 371.705 100.203 371.868 100.147L383.256 96.2411L348.271 81.5446Z" fill="#263238"/>
<path fill-rule="evenodd" clip-rule="evenodd" d="M266.827 394.714C266.827 394.714 266.827 394.714 266.827 394.714L270.929 420.434L270.437 420.513L270.929 420.434C271.305 422.795 273.548 424.72 275.906 424.72H312.739C315.032 424.72 316.581 422.894 316.214 420.592L312.112 394.872C311.736 392.511 309.493 390.586 307.135 390.586H270.303C268.009 390.586 266.46 392.413 266.827 394.714ZM265.84 394.872C265.378 391.975 267.382 389.586 270.303 389.586H307.135C309.992 389.586 312.647 391.876 313.1 394.714L317.202 420.434C317.664 423.332 315.659 425.72 312.739 425.72H275.906C273.049 425.72 270.394 423.43 269.941 420.592L265.84 394.872L265.84 394.872Z" fill="#263238"/>
<path fill-rule="evenodd" clip-rule="evenodd" d="M296.743 383.689C297.033 382.943 297.751 382.453 298.549 382.453H310.593C311.392 382.453 312.109 382.945 312.399 383.689L313.436 386.354C315.986 386.693 317.963 388.856 317.963 391.506V420.505C317.963 423.388 315.626 425.725 312.743 425.725C312.467 425.725 312.243 425.501 312.243 425.225C312.243 424.948 312.467 424.725 312.743 424.725C315.074 424.725 316.963 422.835 316.963 420.505V391.506C316.963 389.282 315.235 387.476 313.044 387.318C312.852 387.304 312.684 387.181 312.614 387.001L311.467 384.052M296.743 383.689L295.734 386.286ZM295.734 386.286H275.909C273.61 386.286 271.661 387.771 270.964 389.831C270.875 390.093 271.016 390.377 271.277 390.465C271.539 390.554 271.823 390.414 271.911 390.152C272.475 388.485 274.052 387.286 275.909 387.286H296.076C296.282 387.286 296.467 387.159 296.542 386.967L297.675 384.051" fill="#263238"/>
<path fill-rule="evenodd" clip-rule="evenodd" d="M128.296 394.714C128.296 394.714 128.296 394.714 128.296 394.714L132.398 420.434L131.906 420.513L132.398 420.434C132.774 422.795 135.017 424.72 137.375 424.72H174.207C176.5 424.72 178.05 422.893 177.683 420.592L173.581 394.872C173.205 392.511 170.962 390.586 168.604 390.586H131.771C129.478 390.586 127.929 392.413 128.296 394.714ZM127.308 394.872C126.846 391.975 128.851 389.586 131.771 389.586H168.604C171.461 389.586 174.116 391.876 174.568 394.714L178.67 420.434L178.177 420.513L178.67 420.434C179.132 423.332 177.127 425.72 174.207 425.72H137.375C134.518 425.72 131.863 423.43 131.41 420.592L127.308 394.872L127.308 394.872Z" fill="#263238"/>
<path fill-rule="evenodd" clip-rule="evenodd" d="M158.211 383.689C158.501 382.943 159.218 382.453 160.017 382.453H172.061C172.86 382.453 173.577 382.945 173.867 383.689L173.867 383.689L174.903 386.354C177.453 386.693 179.431 388.856 179.431 391.506V420.505C179.431 423.388 177.094 425.725 174.211 425.725C173.935 425.725 173.711 425.501 173.711 425.225C173.711 424.948 173.935 424.725 174.211 424.725C176.542 424.725 178.431 422.835 178.431 420.505V391.506C178.431 389.282 176.702 387.476 174.512 387.318C174.319 387.304 174.152 387.181 174.082 387.001L172.935 384.052C172.794 383.691 172.447 383.453 172.061 383.453H160.017C159.631 383.453 159.284 383.69 159.143 384.051C159.143 384.051 159.143 384.051 159.143 384.051L158.01 386.967C157.935 387.159 157.75 387.286 157.544 387.286H137.378C135.521 387.286 133.944 388.485 133.38 390.152C133.291 390.414 133.008 390.554 132.746 390.465C132.484 390.377 132.344 390.093 132.433 389.831C133.13 387.771 135.079 386.286 137.378 386.286H157.202L158.211 383.689L158.211 383.689Z" fill="#263238"/>
<path fill-rule="evenodd" clip-rule="evenodd" d="M197.562 394.714C197.562 394.714 197.562 394.714 197.562 394.714L201.663 420.434L201.17 420.513L201.663 420.434C202.04 422.795 204.283 424.72 206.64 424.72H243.473C245.766 424.72 247.315 422.894 246.948 420.592L242.847 394.872L243.34 394.793L242.847 394.872C242.47 392.511 240.227 390.586 237.87 390.586H201.037C198.744 390.586 197.195 392.413 197.562 394.714ZM196.574 394.872C196.112 391.975 198.117 389.586 201.037 389.586H237.87C240.726 389.586 243.381 391.876 243.834 394.714L247.936 420.434C248.398 423.332 246.393 425.72 243.473 425.72H206.64C203.784 425.72 201.129 423.43 200.676 420.592L196.574 394.872L196.574 394.872Z" fill="#263238"/>
<path fill-rule="evenodd" clip-rule="evenodd" d="M227.477 383.689C227.767 382.943 228.484 382.453 229.283 382.453H241.326C242.126 382.453 242.843 382.945 243.132 383.689L244.169 386.354C246.718 386.693 248.696 388.856 248.696 391.506V420.505C248.696 423.388 246.36 425.725 243.476 425.725C243.2 425.725 242.976 425.501 242.976 425.225C242.976 424.948 243.2 424.725 243.476 424.725C245.807 424.725 247.696 422.835 247.696 420.505V391.506C247.696 389.282 245.968 387.476 243.778 387.318C243.585 387.304 243.418 387.181 243.348 387.001L242.201 384.052C242.06 383.691 241.712 383.453 241.326 383.453H229.283C228.896 383.453 228.549 383.69 228.409 384.051L227.275 386.967C227.201 387.159 227.016 387.286 226.809 387.286H206.644C204.787 387.286 203.21 388.485 202.645 390.152C202.557 390.414 202.273 390.554 202.012 390.465C201.75 390.377 201.61 390.093 201.698 389.831C202.396 387.771 204.345 386.286 206.644 386.286H226.467L227.477 383.689Z" fill="#263238"/>
<path d="M263.7 138.272L273.683 125.937C275.961 123.122 276.842 119.426 276.08 115.885L266.609 71.9353C265.883 68.5639 262.902 66.1562 259.453 66.1562H241.097C239.792 66.1562 238.496 66.3704 237.26 66.7892L59.7109 139.495L104.706 373.153C111.018 382.634 288.54 321.296 288.54 321.296C294.405 319.335 297.804 313.223 296.375 307.208L260.057 154.292C258.723 148.674 260.069 142.758 263.7 138.272Z" fill="#3A59FC"/>
<path fill-rule="evenodd" clip-rule="evenodd" d="M237.1 66.3156C238.387 65.8794 239.737 65.6562 241.097 65.6562H259.453C263.137 65.6562 266.322 68.2284 267.098 71.83L276.568 115.78C277.362 119.469 276.445 123.319 274.071 126.251L264.089 138.586C260.555 142.952 259.246 148.709 260.544 154.177L296.861 307.092C298.35 313.359 294.81 319.726 288.701 321.769C288.7 321.769 288.699 321.77 288.698 321.77L288.695 321.771L288.193 321.944C287.857 322.06 287.358 322.232 286.707 322.455C285.405 322.902 283.495 323.557 281.061 324.386C276.194 326.045 269.234 328.404 260.862 331.206C244.119 336.809 221.728 344.181 199.14 351.257C176.553 358.332 153.76 365.114 136.215 369.535C127.445 371.745 119.972 373.368 114.487 374.142C111.748 374.529 109.482 374.706 107.789 374.633C106.944 374.596 106.219 374.496 105.64 374.316C105.07 374.139 104.578 373.864 104.29 373.43C104.253 373.375 104.228 373.313 104.215 373.248L59.2199 139.59C59.1749 139.356 59.3011 139.123 59.5214 139.032L237.071 66.3265C237.08 66.3226 237.09 66.3189 237.1 66.3156ZM237.435 67.2578L60.2793 139.803L105.175 372.944C105.299 373.085 105.532 373.235 105.937 373.361C106.401 373.505 107.031 373.599 107.832 373.634C109.434 373.703 111.629 373.535 114.348 373.152C119.779 372.386 127.21 370.773 135.971 368.565C153.487 364.152 176.258 357.377 198.841 350.303C221.421 343.229 243.805 335.859 260.545 330.258C268.914 327.457 275.873 325.098 280.738 323.439C283.171 322.61 285.081 321.956 286.382 321.509C287.033 321.286 287.532 321.114 287.868 320.999L288.375 320.824C288.376 320.823 288.377 320.823 288.54 321.296L288.377 320.823L288.381 320.821C294.001 318.943 297.257 313.087 295.888 307.324L259.571 154.408C258.201 148.639 259.583 142.564 263.311 137.957L273.294 125.622C275.477 122.925 276.321 119.383 275.591 115.99L266.12 72.0406C265.444 68.8995 262.666 66.6562 259.453 66.6562H241.097C239.852 66.6562 238.615 66.8597 237.435 67.2578Z" fill="#263238"/>
<path opacity="0.3" d="M237.736 71.3516L293.936 312.201C293.936 312.201 103.923 382.981 112.877 361.081C112.877 361.081 67.657 145.917 71.4705 145.122C75.285 144.326 237.736 71.3516 237.736 71.3516Z" fill="black" fill-opacity="0.7"/>
<path d="M284.658 307.899L120.789 359.923L80.6732 150.873L78.3906 138.98L224.383 68.342C227.308 66.9171 231.008 68.7342 231.843 72.0102L234.86 83.8142L289.663 298.596C290.702 302.67 288.551 306.663 284.658 307.899Z" fill="white"/>
<mask id="mask0_122_234" style="mask-type:luminance" maskUnits="userSpaceOnUse" x="78" y="67" width="212" height="293">
<path d="M284.666 307.891L120.797 359.915L80.6812 150.865L78.3986 138.972L224.391 68.3343C227.316 66.9094 231.016 68.7266 231.851 72.0025L234.868 83.8066L289.671 298.588C290.71 302.662 288.559 306.655 284.666 307.891Z" fill="white"/>
</mask>
<g mask="url(#mask0_122_234)">
<path d="M234.868 83.8066L81.8527 153.847L78.3986 138.972L224.391 68.3343C227.316 66.9094 231.016 68.7266 231.851 72.0025L234.868 83.8066Z" fill="#263238"/>
</g>
<mask id="mask1_122_234" style="mask-type:luminance" maskUnits="userSpaceOnUse" x="78" y="67" width="212" height="293">
<path d="M284.666 307.891L120.797 359.915L80.6812 150.865L78.3986 138.972L224.391 68.3343C227.316 66.9094 231.016 68.7266 231.851 72.0025L234.868 83.8066L289.671 298.588C290.71 302.662 288.559 306.655 284.666 307.891Z" fill="white"/>
</mask>
<g mask="url(#mask1_122_234)">
<path d="M227.195 78.6223C227.195 80.7596 225.677 82.387 223.805 82.2566C221.932 82.1262 220.414 80.2867 220.414 78.1494C220.414 76.011 221.932 74.3847 223.805 74.5151C225.677 74.6455 227.195 76.4849 227.195 78.6223Z" fill="#3A59FC"/>
<path fill-rule="evenodd" clip-rule="evenodd" d="M223.77 75.0139C222.252 74.9082 220.914 76.2309 220.914 78.1494C220.914 80.081 222.282 81.6493 223.839 81.7578C225.357 81.8635 226.695 80.5398 226.695 78.6223C226.695 76.6906 225.327 75.1224 223.77 75.0139ZM219.914 78.1494C219.914 75.7912 221.613 73.8613 223.839 74.0163C226.027 74.1687 227.695 76.2792 227.695 78.6223C227.695 80.9794 225.997 82.9104 223.77 82.7553C221.582 82.603 219.914 80.4924 219.914 78.1494Z" fill="#263238"/>
</g>
<mask id="mask2_122_234" style="mask-type:luminance" maskUnits="userSpaceOnUse" x="78" y="67" width="212" height="293">
<path d="M284.666 307.891L120.797 359.915L80.6812 150.865L78.3986 138.972L224.391 68.3343C227.316 66.9094 231.016 68.7266 231.851 72.0025L234.868 83.8066L289.671 298.588C290.71 302.662 288.559 306.655 284.666 307.891Z" fill="white"/>
</mask>
<g mask="url(#mask2_122_234)">
<path d="M218.457 82.9599C218.457 84.9446 217.048 86.4543 215.311 86.3323C213.573 86.2115 212.164 84.5035 212.164 82.5199C212.164 80.5353 213.573 79.0256 215.311 79.1475C217.048 79.2684 218.457 80.9753 218.457 82.9599Z" fill="#3A59FC"/>
<path fill-rule="evenodd" clip-rule="evenodd" d="M215.276 79.6463C213.893 79.5493 212.664 80.755 212.664 82.5199C212.664 84.298 213.923 85.7346 215.346 85.8336L215.346 85.8336C216.729 85.9306 217.957 84.7249 217.957 82.9599C217.957 81.1809 216.698 79.7452 215.276 79.6463L215.276 79.6463ZM215.346 78.6487C213.253 78.5021 211.664 80.3157 211.664 82.5199C211.664 84.7091 213.223 86.6883 215.276 86.8311C217.368 86.9778 218.957 85.1642 218.957 82.9599C218.957 80.7697 217.399 78.7917 215.346 78.6487" fill="#263238"/>
</g>
<mask id="mask3_122_234" style="mask-type:luminance" maskUnits="userSpaceOnUse" x="78" y="67" width="212" height="293">
<path d="M284.666 307.891L120.797 359.915L80.6812 150.865L78.3986 138.972L224.391 68.3343C227.316 66.9094 231.016 68.7266 231.851 72.0025L234.868 83.8066L289.671 298.588C290.71 302.662 288.559 306.655 284.666 307.891Z" fill="white"/>
</mask>
<g mask="url(#mask3_122_234)">
<path d="M210.199 86.6978C210.199 88.5542 208.881 89.9664 207.256 89.8529C205.63 89.7395 204.313 88.1428 204.313 86.2865C204.313 84.4301 205.63 83.0179 207.256 83.1314C208.881 83.2448 210.199 84.8414 210.199 86.6978Z" fill="#3A59FC"/>
<path fill-rule="evenodd" clip-rule="evenodd" d="M207.221 83.6302C205.95 83.5415 204.813 84.6498 204.813 86.2865C204.813 87.9372 205.981 89.2627 207.291 89.3541C208.561 89.4428 209.699 88.3345 209.699 86.6978C209.699 85.0471 208.531 83.7216 207.221 83.6302ZM203.813 86.2865C203.813 84.2104 205.311 82.4944 207.291 82.6326C209.231 82.768 210.699 84.6358 210.699 86.6978C210.699 88.7739 209.201 90.4899 207.221 90.3517C205.28 90.2163 203.813 88.3485 203.813 86.2865Z" fill="#263238"/>
</g>
<mask id="mask4_122_234" style="mask-type:luminance" maskUnits="userSpaceOnUse" x="78" y="67" width="212" height="293">
<path d="M284.666 307.891L120.797 359.915L80.6812 150.865L78.3986 138.972L224.391 68.3343C227.316 66.9094 231.016 68.7266 231.851 72.0025L234.868 83.8066L289.671 298.588C290.71 302.662 288.559 306.655 284.666 307.891Z" fill="white"/>
</mask>
<g mask="url(#mask4_122_234)">
<path opacity="0.3" d="M284.666 307.891L120.797 359.915L80.6812 150.865L78.3986 138.972L224.391 68.3343C227.316 66.9094 231.016 68.7266 231.851 72.0025L234.868 83.8066L289.671 298.588C290.71 302.662 288.559 306.655 284.666 307.891Z" fill="black" fill-opacity="0.7"/>
</g>
<path fill-rule="evenodd" clip-rule="evenodd" d="M231.358 72.1338C230.595 69.1411 227.22 67.5158 224.601 68.7915L224.6 68.7921L78.954 139.262L121.174 359.276L284.507 307.422C288.136 306.27 290.155 302.549 289.179 298.719L234.376 83.9381L231.358 72.1338ZM232.327 71.8866C231.42 68.3278 227.396 66.3189 224.165 67.8919L224.164 67.8925L78.1728 138.529C77.969 138.628 77.8569 138.851 77.8996 139.074L120.298 360.017C120.325 360.157 120.411 360.28 120.534 360.353C120.656 360.426 120.804 360.443 120.941 360.399L284.809 308.375C288.966 307.056 291.249 302.792 290.148 298.472L235.345 83.6906L232.327 71.8866Z" fill="#263238"/>
<path d="M274.951 297.599L113.295 361.073L73.7205 154.825L71.4687 143.091L215.489 62.2538C218.374 60.6254 222.024 62.1838 222.848 65.4004L225.824 76.9935L279.887 287.947C280.913 291.948 278.792 296.091 274.951 297.599Z" fill="white"/>
<path fill-rule="evenodd" clip-rule="evenodd" d="M222.364 65.5246C221.621 62.6257 218.333 61.223 215.734 62.6893L215.733 62.6898L72.0277 143.351L113.672 360.387L274.768 297.133C278.374 295.718 280.366 291.828 279.403 288.071L225.34 77.1178L222.364 65.5246ZM223.333 65.2761C222.426 61.7421 218.416 60.028 215.243 61.8181C215.244 61.818 215.243 61.8182 215.243 61.8181L71.224 142.655C71.0363 142.761 70.9371 142.974 70.9777 143.186L112.804 361.167C112.832 361.313 112.923 361.439 113.054 361.511C113.184 361.582 113.339 361.592 113.478 361.538L275.134 298.064C279.21 296.464 281.46 292.068 280.371 287.823L226.309 76.8693L223.333 65.2761C223.333 65.2761 223.333 65.2761 223.333 65.2761Z" fill="#263238"/>
<path d="M225.825 76.9935L74.8761 157.725L71.4687 143.091L215.489 62.2538C218.374 60.6254 222.024 62.1838 222.848 65.4004L225.825 76.9935Z" fill="#263238"/>
<path d="M218.259 72.3473C218.259 74.4856 216.762 76.218 214.914 76.218C213.067 76.218 211.57 74.4846 211.57 72.3473C211.57 70.2099 213.067 68.4766 214.914 68.4766C216.762 68.4766 218.259 70.2099 218.259 72.3473Z" fill="#3A59FC"/>
<path fill-rule="evenodd" clip-rule="evenodd" d="M214.914 68.9766C213.41 68.9766 212.07 70.4149 212.07 72.3473C212.07 74.2797 213.41 75.718 214.914 75.718C216.42 75.718 217.759 74.2805 217.759 72.3473C217.759 70.415 216.42 68.9766 214.914 68.9766ZM211.07 72.3473C211.07 70.005 212.725 67.9766 214.914 67.9766C217.104 67.9766 218.759 70.0049 218.759 72.3473C218.759 74.6908 217.104 76.718 214.914 76.718C212.725 76.718 211.07 74.6895 211.07 72.3473Z" fill="#263238"/>
<path d="M209.638 77.2883C209.638 79.2729 208.248 80.8812 206.534 80.8812C204.82 80.8812 203.43 79.2729 203.43 77.2883C203.43 75.3036 204.82 73.6953 206.534 73.6953C208.248 73.6953 209.638 75.3036 209.638 77.2883Z" fill="#3A59FC"/>
<path fill-rule="evenodd" clip-rule="evenodd" d="M206.534 74.1953C205.162 74.1953 203.93 75.5087 203.93 77.2883C203.93 79.0678 205.162 80.3812 206.534 80.3812C207.906 80.3812 209.138 79.0679 209.138 77.2883C209.138 75.5087 207.906 74.1953 206.534 74.1953ZM202.93 77.2883C202.93 75.0985 204.477 73.1953 206.534 73.1953C208.59 73.1953 210.138 75.0985 210.138 77.2883C210.138 79.478 208.59 81.3812 206.534 81.3812C204.477 81.3812 202.93 79.478 202.93 77.2883Z" fill="#263238"/>
<path d="M201.487 81.603C201.487 83.4593 200.188 84.9637 198.584 84.9637C196.979 84.9637 195.68 83.4593 195.68 81.603C195.68 79.7466 196.979 78.2422 198.584 78.2422C200.188 78.2422 201.487 79.7476 201.487 81.603Z" fill="#3A59FC"/>
<path fill-rule="evenodd" clip-rule="evenodd" d="M198.584 78.7422C197.322 78.7422 196.18 79.9516 196.18 81.603C196.18 83.2543 197.322 84.4637 198.584 84.4637C199.845 84.4637 200.987 83.2543 200.987 81.603C200.987 79.9526 199.845 78.7422 198.584 78.7422ZM195.18 81.603C195.18 79.5415 196.637 77.7422 198.584 77.7422C200.53 77.7422 201.987 79.5427 201.987 81.603C201.987 83.6644 200.53 85.4637 198.584 85.4637C196.637 85.4637 195.18 83.6644 195.18 81.603Z" fill="#263238"/>
<path opacity="0.3" d="M224.123 82.2065L271.726 268.595C271.921 269.359 271.536 270.152 270.815 270.471L266.473 272.394C265.572 272.794 264.527 272.284 264.288 271.326L217.956 86.004C217.717 85.0488 218.147 84.0512 219.004 83.5677L222.588 81.5491C223.191 81.211 223.952 81.5364 224.123 82.2065Z" fill="black" fill-opacity="0.7"/>
<path d="M220.034 87.5932L222.664 86.1408C223.742 85.546 225.091 86.1334 225.388 87.3282L230.252 106.852C230.495 107.831 230.042 108.85 229.15 109.323L225.943 111.025C225.165 111.439 224.205 111.012 223.991 110.156L218.964 90.0476C218.723 89.0828 219.162 88.0746 220.034 87.5932Z" fill="#BFBFBF"/>
<path fill-rule="evenodd" clip-rule="evenodd" d="M224.903 87.449C224.685 86.5732 223.696 86.1423 222.905 86.5786L220.275 88.0309C219.602 88.4027 219.263 89.1815 219.449 89.9263C219.449 89.9263 219.449 89.9262 219.449 89.9263L224.476 110.035C224.476 110.035 224.476 110.035 224.476 110.035C224.612 110.575 225.218 110.845 225.708 110.584L228.916 108.881C229.604 108.516 229.955 107.729 229.766 106.973L224.903 87.449C224.903 87.449 224.903 87.4491 224.903 87.449ZM222.422 85.703C223.788 84.9498 225.496 85.6935 225.874 87.2072L230.737 106.732C230.737 106.732 230.737 106.732 230.737 106.732C231.036 107.933 230.479 109.184 229.384 109.764M229.384 109.764L226.178 111.467C226.177 111.467 226.178 111.467 226.178 111.467C225.112 112.033 223.799 111.448 223.506 110.277L218.479 90.1688C218.183 88.9842 218.722 87.7464 219.792 87.1556L222.422 85.703" fill="#263238"/>
<path opacity="0.4" fill-rule="evenodd" clip-rule="evenodd" d="M244.73 295.9C244.94 296.411 244.697 296.996 244.186 297.206L140.06 340.085C139.55 340.295 138.965 340.052 138.755 339.541C138.545 339.03 138.788 338.446 139.299 338.236L243.424 295.357C243.935 295.146 244.519 295.39 244.73 295.9Z" fill="black"/>
<path opacity="0.4" fill-rule="evenodd" clip-rule="evenodd" d="M258.801 282.821C259.016 283.33 258.778 283.917 258.27 284.132L125.991 340.082C125.482 340.297 124.896 340.059 124.681 339.55C124.465 339.042 124.703 338.455 125.212 338.24L257.49 282.29C257.999 282.075 258.586 282.313 258.801 282.821Z" fill="black"/>
<path opacity="0.3" d="M244.889 226.951L234.219 181.562L205.289 195.382L215.864 240.618L244.889 226.951Z" fill="black" fill-opacity="0.7"/>
<path opacity="0.3" d="M193.492 144.954L203.541 187.933L232.422 173.947L222.069 129.906L193.492 144.954Z" fill="black" fill-opacity="0.7"/>
<path opacity="0.3" d="M221.155 126.008L212.696 90.0234L184.148 104.976L192.608 141.158L221.155 126.008Z" fill="black" fill-opacity="0.7"/>
<path opacity="0.3" d="M216.906 245.098L226.638 286.725L255.92 273.9L246.081 232.047L216.906 245.098Z" fill="black" fill-opacity="0.7"/>
<path d="M59.7109 139.491L104.706 373.149C119.107 356.7 221.98 281.357 221.98 281.357C229.982 275.551 233.757 265.536 231.578 255.892L183.928 51.6552C182.169 43.8746 172.709 40.8318 166.744 46.1296C166.744 46.1296 71.0803 106.232 59.7109 139.491Z" fill="#3A59FC"/>
<path fill-rule="evenodd" clip-rule="evenodd" d="M184.415 51.5432C184.415 51.5438 184.415 51.5444 184.416 51.545L232.064 255.779L232.065 255.782C234.289 265.62 230.437 275.838 222.273 281.761L221.98 281.977C221.785 282.12 221.495 282.332 221.117 282.61C220.36 283.166 219.248 283.983 217.828 285.029C214.987 287.121 210.913 290.128 205.979 293.788C196.11 301.108 182.803 311.038 169.046 321.483C155.288 331.928 141.083 342.885 129.419 352.257C117.739 361.642 108.648 369.406 105.082 373.478C104.956 373.622 104.76 373.682 104.575 373.632C104.391 373.582 104.251 373.431 104.215 373.244L59.22 139.586C59.2035 139.5 59.2096 139.412 59.2378 139.329C62.1218 130.893 70.3118 120.829 80.8822 110.514C91.4706 100.182 104.513 89.537 117.189 79.9396C129.868 70.3408 142.189 61.7831 151.34 55.6254C155.916 52.5464 159.7 50.0671 162.34 48.3574C163.66 47.5025 164.694 46.8399 165.399 46.391C165.751 46.1665 166.021 45.9955 166.202 45.8804L166.408 45.7503L166.444 45.7281C172.694 40.2163 182.574 43.4063 184.415 51.5432ZM166.744 46.1296L167.01 46.5529C167.034 46.5383 167.056 46.5217 167.076 46.5034C172.756 41.4584 181.765 44.3559 183.44 51.7654L183.441 51.7688L231.09 256.002C231.09 256.004 231.09 256.005 231.091 256.006C233.225 265.453 229.526 275.264 221.686 280.952L221.684 280.953L221.98 281.357C221.684 280.953 221.684 280.954 221.683 280.954L221.68 280.957L221.389 281.17C221.193 281.313 220.904 281.526 220.525 281.804C219.768 282.36 218.656 283.177 217.235 284.224C214.393 286.316 210.318 289.324 205.383 292.985C195.513 300.306 182.202 310.239 168.441 320.686C154.681 331.133 140.467 342.097 128.792 351.477C117.801 360.309 109.023 367.767 105.008 372.071L60.2272 139.528C63.0665 131.359 71.0699 121.486 81.5806 111.23C92.1268 100.939 105.132 90.3224 117.793 80.7368C130.452 71.1526 142.757 62.606 151.898 56.4551C156.469 53.3798 160.248 50.9037 162.883 49.1967C164.201 48.3432 165.234 47.682 165.936 47.2343C166.287 47.0104 166.556 46.84 166.737 46.7255L166.942 46.5962L167.009 46.5536C167.01 46.5531 167.01 46.5529 166.744 46.1296Z" fill="#263238"/>
<g opacity="0.7">
<path d="M223.414 263.178C222.054 263.178 220.82 262.253 220.485 260.872C219.673 257.53 218.878 254.186 218.095 250.837C217.717 249.214 218.724 247.592 220.346 247.213C221.964 246.833 223.59 247.84 223.969 249.464C224.747 252.795 225.539 256.123 226.347 259.448C226.74 261.066 225.747 262.698 224.128 263.091C223.889 263.149 223.65 263.178 223.414 263.178Z" fill="white"/>
</g>
<g opacity="0.7">
<path d="M217.249 236.327C215.873 236.327 214.629 235.378 214.311 233.98L173.04 52.7997C173.03 52.752 172.997 52.6068 172.817 52.5347C172.638 52.4626 172.521 52.5431 172.483 52.5696C161.887 59.623 126.028 83.6689 109.413 96.9614C98.8311 105.78 89.1294 115.906 77.9997 129.756C76.9575 131.056 75.0577 131.262 73.76 130.218C72.4613 129.175 72.2546 127.276 73.2978 125.979C84.6873 111.803 94.6498 101.413 105.598 92.2892C121.992 79.1738 155.494 56.6322 169.14 47.5486C170.891 46.3824 173.101 46.1534 175.054 46.9316C177.009 47.7119 178.456 49.405 178.923 51.4596L220.193 232.64C220.563 234.264 219.547 235.88 217.922 236.25C217.697 236.303 217.471 236.327 217.249 236.327Z" fill="white"/>
</g>
<path d="M97.0143 459.351C95.5968 446.541 93.6758 428.746 92.0103 411.793C89.5888 387.046 87.7049 364.133 88.7301 361.236C91.0646 354.65 90.5928 349.908 90.5928 349.908C95.6329 349.35 97.89 342.465 97.89 342.465L95.1834 318.277C95.1834 318.277 96.8712 271.964 94.7953 258.81C92.7089 245.645 84.2763 236.834 84.1013 233.329C83.9275 229.834 90.685 214.439 92.9061 210.033C95.1272 205.627 93.8497 180.838 90.2631 173.088C89.2167 170.836 87.7653 169.556 86.2174 168.878C82.4421 167.193 78.1357 169.087 78.1357 169.087C77.154 183.625 72.8645 193.316 68.8899 200.221L68.8909 200.231C65.4125 206.268 62.1991 210.175 61.6181 213.363C60.3788 220.193 45.3094 237.818 42.4628 246.935C39.6258 256.05 38.6939 287.052 34.2295 299.259C32.125 305.012 24.549 323.326 22.5558 379.189C21.4098 411.286 16.4503 440.392 12.4375 459.353H97.0143V459.351Z" fill="white"/>
<path opacity="0.4" d="M92.8959 210.031C90.6748 214.438 83.9183 229.832 84.0911 233.328C84.2661 236.833 92.6977 245.645 94.7851 258.808C96.861 271.964 95.1732 318.276 95.1732 318.276L97.8798 342.464C97.8798 342.464 95.6237 349.348 90.5826 349.906C90.5826 349.906 91.0533 354.648 88.7199 361.234C87.6947 364.132 89.5786 387.045 92.0001 411.792C89.4726 401.112 87.3946 392.856 87.3946 392.856C87.3946 392.856 86.2815 406.01 84.864 416.381C83.4465 426.753 80.0105 441.523 80.0105 441.523C80.0105 441.523 72.4313 370.076 74.1869 358.143C75.932 346.202 80.2936 348.158 76.9328 342.447C73.5826 336.744 53.1827 331.788 55.1758 327.489C57.1308 323.272 73.113 330.823 73.7713 331.134C73.2317 330.701 64.375 323.607 64.4418 320.322C64.5149 316.939 78.6598 325.608 78.6598 325.608C78.6598 325.608 84.5555 322.107 88.8789 317.148C93.2023 312.188 86.7861 264.724 85.5786 261.305C84.371 257.886 76.7886 258.368 74.5718 255.514C72.3549 252.661 78.3757 251.386 77.2201 247.032C76.0645 242.678 72.9539 243.062 72.9539 243.062C72.9539 243.062 77.9336 235.785 77.4862 229.435C77.0462 223.074 85.2934 215.431 84.6986 210.849C82.3811 193.008 71.7612 205.3 68.8786 200.223L68.8776 200.213C72.8522 193.308 77.1417 183.617 78.1234 169.079C78.1234 169.079 82.4298 167.185 86.2051 168.87C87.753 169.549 89.2044 170.829 90.2508 173.08C93.8405 180.836 95.117 205.626 92.8959 210.031Z" fill="#3A59FC"/>
<path fill-rule="evenodd" clip-rule="evenodd" d="M78.6173 169.426C77.653 182.965 73.8341 192.305 70.0888 199.115C68.6536 201.724 67.2261 203.966 65.985 205.916C65.5987 206.523 65.2305 207.101 64.8857 207.653C63.4158 210.008 62.4005 211.847 62.1127 213.444C61.7874 215.251 60.5681 217.704 58.94 220.455C57.301 223.224 55.2042 226.365 53.0674 229.562L52.9933 229.673C50.8765 232.84 48.7237 236.061 46.92 239.055C45.0911 242.092 43.6433 244.86 42.9523 247.078C42.2571 249.31 41.6708 252.915 41.1142 257.298C40.7048 260.522 40.3142 264.141 39.9076 267.909C39.7625 269.254 39.6153 270.617 39.4646 271.988C38.3218 282.382 36.9688 293.253 34.71 299.426C34.6265 299.655 34.5342 299.903 34.4338 300.173C32.0264 306.651 24.9748 325.627 23.0612 379.2C22.2291 402.484 19.3941 424.195 16.3676 441.608C16.3203 441.88 16.0615 442.062 15.7894 442.015C15.5173 441.967 15.3351 441.709 15.3824 441.436C18.4032 424.056 21.2317 402.391 22.0619 379.165C23.9804 325.452 31.0596 306.388 33.4955 299.828C33.5954 299.559 33.6874 299.311 33.7709 299.083C35.9787 293.049 37.3228 282.317 38.4706 271.879C38.6207 270.513 38.7675 269.153 38.9124 267.81C39.3194 264.039 39.7115 260.406 40.1221 257.172C40.6778 252.797 41.2725 249.108 41.9975 246.781C42.7266 244.44 44.2283 241.586 46.0634 238.539C47.8793 235.524 50.0432 232.287 52.1546 229.128L52.236 229.006C54.3769 225.803 56.4571 222.686 58.0794 219.945C59.7127 217.186 60.839 214.875 61.1286 213.267C61.4557 211.451 62.5825 209.454 64.0374 207.124C64.3896 206.56 64.7628 205.973 65.1523 205.362C66.3909 203.416 67.7945 201.211 69.2126 198.633C72.9301 191.874 76.726 182.582 77.6415 169.044C77.6541 168.858 77.7688 168.694 77.9394 168.62L78.1404 169.077C77.9394 168.62 77.9391 168.62 77.9394 168.62L77.9426 168.618L77.9489 168.615L77.9707 168.606C77.9893 168.598 78.016 168.587 78.0502 168.573C78.1186 168.546 78.2175 168.507 78.3435 168.462C78.5954 168.37 78.9566 168.249 79.4005 168.13C80.286 167.892 81.5128 167.656 82.8636 167.673C84.2153 167.69 85.7071 167.96 87.1039 168.751C88.5063 169.545 89.7822 170.846 90.7204 172.873C91.647 174.874 92.4086 177.931 93.0002 181.423C93.5937 184.926 94.0224 188.907 94.2686 192.779C94.5148 196.651 94.5792 200.423 94.4416 203.51C94.3729 205.053 94.2533 206.432 94.0789 207.571C93.9065 208.697 93.6742 209.631 93.3593 210.255C92.2557 212.444 90.0165 217.379 88.0751 222.205C87.1046 224.618 86.2118 226.995 85.5735 228.982C85.2542 229.976 85.0007 230.866 84.8328 231.611C84.6626 232.366 84.5891 232.935 84.6075 233.301C84.6251 233.654 84.7507 234.112 84.9938 234.694C85.2345 235.27 85.576 235.934 85.9969 236.69C86.3872 237.392 86.8395 238.162 87.3348 239.005L87.4506 239.203C87.9901 240.121 88.5755 241.122 89.1761 242.198C91.5788 246.505 94.2399 252.059 95.2928 258.723C96.3404 265.355 96.4352 280.271 96.2725 293.478C96.1911 300.093 96.0446 306.296 95.9185 310.845C95.8555 313.12 95.7975 314.981 95.7553 316.274C95.7342 316.92 95.717 317.424 95.7051 317.767L95.688 318.254L98.3905 342.403C98.3984 342.474 98.3911 342.546 98.3689 342.614L97.8936 342.459C98.3689 342.614 98.369 342.614 98.3689 342.614L98.3681 342.617L98.3665 342.622L98.3607 342.639C98.3557 342.654 98.3485 342.675 98.3391 342.702C98.3201 342.756 98.2922 342.834 98.2551 342.932C98.1808 343.13 98.0698 343.41 97.9207 343.747C97.6231 344.419 97.1713 345.325 96.5551 346.25C95.4068 347.976 93.6247 349.864 91.1283 350.331C91.1329 350.447 91.1369 350.584 91.1392 350.74C91.1473 351.302 91.1331 352.117 91.0447 353.139C90.868 355.183 90.3947 358.057 89.2102 361.395C89.1348 361.607 89.0654 362.017 89.0184 362.653C88.9725 363.276 88.9505 364.073 88.9514 365.032C88.9533 366.95 89.0467 369.489 89.2153 372.522C89.5523 378.587 90.1886 386.599 90.9873 395.505C92.5846 413.315 94.8296 434.682 96.6233 451.147C96.6532 451.422 96.455 451.669 96.1804 451.699C95.9059 451.729 95.6591 451.53 95.6292 451.256C93.8353 434.788 91.5894 413.414 89.9913 395.594C89.1923 386.685 88.5548 378.659 88.2168 372.578C88.0478 369.538 87.9534 366.978 87.9514 365.033C87.9505 364.061 87.9726 363.237 88.0211 362.58C88.0685 361.937 88.1438 361.409 88.2677 361.06C89.4199 357.813 89.8779 355.025 90.0484 353.053C90.1337 352.067 90.147 351.286 90.1393 350.754C90.1354 350.488 90.1263 350.285 90.1184 350.15C90.1144 350.082 90.1107 350.031 90.108 349.998L90.105 349.962L90.1043 349.954L90.1042 349.953C90.1042 349.953 90.1042 349.953 90.1042 349.953C90.077 349.681 90.2746 349.437 90.5471 349.407C92.8452 349.154 94.5569 347.448 95.7226 345.696C96.299 344.83 96.7246 343.979 97.0062 343.342C97.1467 343.024 97.2507 342.762 97.3192 342.58C97.3465 342.507 97.3682 342.448 97.3842 342.403L94.6901 318.329C94.6873 318.304 94.6864 318.28 94.6873 318.255L95.187 318.273C94.6873 318.255 94.6873 318.255 94.6873 318.255L94.6874 318.253L94.7057 317.733C94.7176 317.39 94.7348 316.887 94.7558 316.241C94.798 314.95 94.8559 313.09 94.9189 310.817C95.0449 306.272 95.1912 300.074 95.2726 293.466C95.4357 280.227 95.3365 265.408 94.3051 258.879C93.279 252.384 90.6821 246.951 88.3028 242.686C87.708 241.619 87.1276 240.628 86.5883 239.709L86.4705 239.508C85.9772 238.669 85.5192 237.889 85.1231 237.177C84.696 236.409 84.3333 235.707 84.0711 235.079C83.8112 234.457 83.6348 233.874 83.6087 233.351C83.5833 232.843 83.6828 232.165 83.8573 231.391C84.0341 230.607 84.2971 229.686 84.6214 228.676C85.2701 226.657 86.1726 224.255 87.1473 221.832C89.0963 216.987 91.3469 212.025 92.4664 209.805C92.7073 209.327 92.9214 208.523 93.0905 207.419C93.2576 206.328 93.3748 204.987 93.4426 203.466C93.5782 200.423 93.5152 196.688 93.2707 192.842C93.0261 188.998 92.6008 185.052 92.0143 181.59C91.4258 178.116 90.6813 175.168 89.813 173.293C88.9563 171.443 87.819 170.305 86.6112 169.621C85.3977 168.934 84.0823 168.688 82.8511 168.673C81.6191 168.657 80.4874 168.873 79.6601 169.096C79.2476 169.207 78.9139 169.318 78.6849 169.401C78.6612 169.41 78.6387 169.418 78.6173 169.426Z" fill="#263238"/>
<path fill-rule="evenodd" clip-rule="evenodd" d="M84.2747 232.858C84.5346 232.951 84.6697 233.237 84.5763 233.497L84.1062 233.328C84.5763 233.497 84.5764 233.497 84.5763 233.497L84.5754 233.5L84.5736 233.505L84.5669 233.523C84.5611 233.539 84.5527 233.561 84.5417 233.59C84.5196 233.648 84.4871 233.731 84.4442 233.836C84.3583 234.046 84.2305 234.344 84.061 234.7C83.7227 235.412 83.215 236.365 82.5389 237.32C81.205 239.205 79.1199 241.232 76.2876 241.224C76.0115 241.223 75.7883 240.999 75.7891 240.722C75.7899 240.446 76.0144 240.223 76.2905 240.224C78.6139 240.231 80.4372 238.559 81.7226 236.743C82.3562 235.847 82.8361 234.948 83.1578 234.271C83.3184 233.933 83.4387 233.652 83.5185 233.457C83.5584 233.36 83.5881 233.284 83.6076 233.233C83.6173 233.207 83.6245 233.188 83.6291 233.176L83.6341 233.162L83.6351 233.159C83.6351 233.159 83.6351 233.159 83.6351 233.159M84.2747 232.858C84.0149 232.764 83.7285 232.9 83.6351 233.159Z" fill="#263238"/>
<path fill-rule="evenodd" clip-rule="evenodd" d="M82.3116 236.148C82.5837 236.101 82.8426 236.283 82.89 236.555L82.3974 236.641C82.89 236.555 82.89 236.555 82.89 236.555L82.8905 236.558L82.8916 236.564L82.8953 236.586C82.8984 236.606 82.9028 236.633 82.9081 236.669C82.9189 236.74 82.9336 236.844 82.9502 236.977C82.9833 237.243 83.0238 237.627 83.0546 238.105C83.116 239.06 83.1387 240.394 82.9834 241.912C82.6736 244.939 81.6499 248.751 78.7572 251.731C78.5648 251.929 78.2483 251.934 78.0502 251.741C77.852 251.549 77.8473 251.232 78.0397 251.034C80.715 248.278 81.6909 244.719 81.9886 241.81C82.137 240.359 82.1154 239.082 82.0566 238.17C82.0273 237.713 81.9887 237.349 81.9578 237.101C81.9423 236.976 81.9288 236.881 81.9193 236.818C81.9145 236.786 81.9107 236.762 81.9082 236.747L81.9055 236.73L81.9049 236.727C81.8577 236.455 82.0397 236.195 82.3116 236.148Z" fill="#263238"/>
<path fill-rule="evenodd" clip-rule="evenodd" d="M63.5313 208.931L63.4346 208.441C63.1636 208.494 62.9873 208.757 63.0407 209.028C63.0941 209.299 63.357 209.475 63.6278 209.422L63.6307 209.421L63.6423 209.419L63.6914 209.41C63.7355 209.402 63.8017 209.391 63.8881 209.376C64.0608 209.348 64.3137 209.31 64.63 209.272C65.2634 209.195 66.148 209.116 67.1513 209.11C69.1757 209.097 71.606 209.379 73.4457 210.487C73.6823 210.629 73.9895 210.553 74.132 210.316C74.2745 210.08 74.1982 209.772 73.9617 209.63C71.883 208.378 69.227 208.096 67.1449 208.11C66.0948 208.117 65.171 208.199 64.5094 208.279C64.1782 208.319 63.9119 208.359 63.7273 208.389C63.6349 208.404 63.563 208.417 63.5135 208.426L63.4564 208.437L63.441 208.44L63.4366 208.44L63.4346 208.441C63.4344 208.441 63.4346 208.441 63.5313 208.931Z" fill="#263238"/>
<path fill-rule="evenodd" clip-rule="evenodd" d="M58.7027 328.889C58.7854 328.626 59.066 328.479 59.3295 328.562L59.1797 329.039L59.0299 329.516C58.7664 329.433 58.6199 329.153 58.7027 328.889ZM59.1797 329.039C59.0299 329.516 59.0298 329.516 59.0299 329.516L59.0875 329.534L59.2574 329.588C59.4065 329.635 59.6258 329.705 59.9062 329.796C60.467 329.976 61.272 330.237 62.2482 330.561C64.2009 331.209 66.837 332.106 69.5724 333.104C72.3092 334.102 75.1386 335.198 77.4804 336.244C78.6516 336.767 79.6942 337.274 80.5394 337.748C81.3937 338.227 82.0125 338.653 82.3632 339.005C83.9294 340.58 85.8761 343.353 87.4472 345.764C88.2287 346.963 88.9105 348.062 89.3969 348.862C89.6401 349.261 89.8343 349.586 89.9675 349.81C90.0342 349.922 90.0855 350.009 90.1202 350.068L90.1594 350.135L90.1717 350.156L90.1723 350.157C90.3113 350.396 90.6176 350.477 90.8562 350.338C91.0948 350.199 91.1755 349.892 91.0365 349.654L90.6918 349.855C91.0365 349.654 91.0365 349.654 91.0365 349.654L91.0225 349.63L90.9822 349.561C90.9468 349.501 90.8947 349.413 90.8272 349.299C90.6924 349.072 90.4964 348.745 90.2512 348.342C89.7609 347.536 89.0736 346.428 88.2851 345.218C86.7162 342.81 84.7196 339.957 83.0723 338.3C82.6198 337.845 81.9004 337.364 81.0282 336.876C80.1468 336.382 79.0744 335.861 77.8882 335.331C75.5154 334.271 72.661 333.166 69.915 332.164C67.1676 331.162 64.5217 330.262 62.5631 329.612C61.5836 329.287 60.7757 329.025 60.2124 328.844C59.9308 328.753 59.7103 328.683 59.5601 328.635L59.3887 328.581L59.3305 328.562C59.3303 328.562 59.3295 328.562 59.1797 329.039Z" fill="#263238"/>
<path fill-rule="evenodd" clip-rule="evenodd" d="M74.7228 325.532C74.9294 325.349 75.2454 325.368 75.4287 325.574C76.8756 327.205 79.2434 328.972 81.6917 330.731C82.0125 330.961 82.3347 331.191 82.6561 331.421C84.7588 332.924 86.8261 334.402 88.2258 335.721C89.8937 337.294 91.1095 339.791 91.9022 341.839C92.3022 342.872 92.6015 343.81 92.8008 344.49C92.9006 344.83 92.9755 345.106 93.0257 345.298C93.0508 345.394 93.0697 345.469 93.0824 345.52L93.0969 345.579L93.1007 345.595L93.102 345.6C93.102 345.6 93.1021 345.601 92.6155 345.716L93.102 345.6C93.1654 345.869 92.999 346.139 92.7303 346.202C92.4615 346.266 92.1923 346.099 92.1289 345.831L92.128 345.827L92.1249 345.814L92.1118 345.761C92.1 345.713 92.0822 345.642 92.0582 345.551C92.0103 345.367 91.938 345.101 91.8413 344.771C91.6477 344.111 91.3572 343.201 90.9696 342.2C90.1872 340.178 89.0366 337.86 87.5399 336.449C86.194 335.18 84.1919 333.749 82.0798 332.239C81.7579 332.008 81.4334 331.776 81.1083 331.543C78.679 329.798 76.215 327.967 74.6807 326.238C74.4974 326.032 74.5163 325.716 74.7228 325.532Z" fill="#263238"/>
<path fill-rule="evenodd" clip-rule="evenodd" d="M95.6552 314.189C95.9176 314.275 96.0604 314.558 95.9742 314.82C94.7406 318.575 92.9202 321.06 91.3959 322.612C90.6345 323.387 89.9483 323.927 89.4479 324.277C89.1977 324.451 88.9939 324.578 88.8502 324.662C88.7783 324.704 88.7215 324.736 88.6814 324.758C88.6614 324.768 88.6455 324.777 88.6341 324.783L88.6202 324.79L88.6158 324.792L88.6142 324.793L88.6136 324.793C88.6134 324.793 88.6131 324.793 88.3907 324.346L88.6131 324.793C88.3658 324.916 88.0657 324.815 87.9429 324.568C87.8202 324.321 87.9207 324.021 88.1673 323.898C88.1676 323.898 88.1679 323.898 88.1682 323.898L88.3796 324.323C88.1682 323.898 88.168 323.898 88.1678 323.898L88.168 323.898L88.1682 323.898L88.1743 323.895C88.1808 323.891 88.1916 323.886 88.2065 323.878C88.2364 323.861 88.2827 323.836 88.3439 323.8C88.4664 323.728 88.6481 323.615 88.8756 323.456C89.3307 323.139 89.9687 322.637 90.6826 321.911C92.1088 320.459 93.8427 318.104 95.0241 314.508C95.1103 314.246 95.3929 314.103 95.6552 314.189Z" fill="#263238"/>
<path fill-rule="evenodd" clip-rule="evenodd" d="M83.3581 351.197C83.4822 351.444 83.3829 351.744 83.1362 351.869C82.7385 352.069 82.3097 352.579 81.8988 353.516C81.4952 354.436 81.143 355.69 80.846 357.252C80.2525 360.374 79.8946 364.648 79.7485 369.776C79.4565 380.028 80.0127 393.618 81.1866 408.063C81.209 408.338 81.004 408.579 80.7288 408.602C80.4535 408.624 80.2123 408.419 80.1899 408.144C79.0145 393.68 78.4554 380.05 78.7489 369.748C78.8955 364.6 79.2555 360.264 79.8636 357.065C80.1673 355.467 80.5367 354.132 80.9829 353.114C81.4218 352.114 81.971 351.335 82.6867 350.975C82.9334 350.851 83.234 350.95 83.3581 351.197Z" fill="#263238"/>
<path fill-rule="evenodd" clip-rule="evenodd" d="M85.2347 356.211C85.5108 356.207 85.738 356.427 85.7421 356.703C85.7521 357.369 85.9897 359.204 86.3806 361.922C86.5949 363.412 86.8527 365.152 87.1392 367.084C87.3718 368.654 87.6234 370.351 87.8859 372.146C89.0565 380.149 90.4416 390.071 91.3164 399.137C91.3429 399.412 91.1416 399.656 90.8668 399.683C90.5919 399.709 90.3476 399.508 90.321 399.233C89.4487 390.194 88.0667 380.292 86.8964 372.291C86.6346 370.501 86.3832 368.805 86.1506 367.235C85.8637 365.299 85.6052 363.555 85.3908 362.065C85.0052 359.383 84.7535 357.465 84.7422 356.718C84.7381 356.442 84.9586 356.215 85.2347 356.211Z" fill="#263238"/>
<path d="M265.292 182.953C265.292 182.953 256.984 198.13 257.063 201.565C257.143 205 272.937 228.838 273.387 231.537C273.836 234.236 285.255 239.464 289.431 242.222C293.606 244.981 298.887 224.933 298.205 210.494C297.524 196.056 265.292 182.953 265.292 182.953Z" fill="white"/>
<mask id="mask5_122_234" style="mask-type:luminance" maskUnits="userSpaceOnUse" x="257" y="182" width="42" height="61">
<path d="M265.292 182.945C265.292 182.945 256.984 198.122 257.063 201.557C257.143 204.992 272.937 228.83 273.387 231.529C273.836 234.228 285.255 239.456 289.431 242.215C293.606 244.973 298.887 224.925 298.205 210.487C297.524 196.048 265.292 182.945 265.292 182.945Z" fill="white"/>
</mask>
<g mask="url(#mask5_122_234)">
<path opacity="0.5" d="M265.292 182.945C265.292 182.945 256.984 198.122 257.063 201.557C257.143 204.992 272.937 228.83 273.387 231.529C273.836 234.228 285.255 239.456 289.431 242.215C293.606 244.973 298.887 224.925 298.205 210.487C297.524 196.048 265.292 182.945 265.292 182.945Z" fill="#3A59FC"/>
</g>
<path fill-rule="evenodd" clip-rule="evenodd" d="M265.48 182.49L265.292 182.953L264.854 182.713C264.976 182.49 265.245 182.394 265.48 182.49ZM289.156 242.64C287.908 241.815 286.021 240.777 283.959 239.642C282.592 238.889 281.147 238.093 279.761 237.29C278.04 236.293 276.418 235.288 275.193 234.355C274.581 233.889 274.054 233.431 273.661 232.991C273.277 232.562 272.973 232.098 272.893 231.619C272.876 231.515 272.81 231.312 272.671 230.992C272.537 230.683 272.35 230.298 272.115 229.845C271.646 228.939 270.996 227.781 270.225 226.449C269.087 224.484 267.692 222.154 266.232 219.716C265.712 218.848 265.184 217.967 264.657 217.083C262.65 213.72 260.649 210.326 259.145 207.556C258.393 206.172 257.76 204.935 257.312 203.932C257.088 203.431 256.907 202.98 256.78 202.594C256.655 202.218 256.57 201.867 256.563 201.576C256.551 201.065 256.692 200.389 256.914 199.637C257.14 198.872 257.465 197.981 257.852 197.021C258.626 195.098 259.663 192.867 260.699 190.751C261.735 188.633 262.774 186.624 263.553 185.145C263.942 184.405 264.267 183.798 264.495 183.375C264.609 183.164 264.698 182.998 264.76 182.886L264.829 182.757L264.854 182.713C264.854 182.713 264.854 182.713 265.292 182.953C265.48 182.49 265.48 182.49 265.48 182.49L265.487 182.493L265.505 182.5L265.576 182.529C265.638 182.555 265.729 182.593 265.848 182.643C266.087 182.743 266.435 182.892 266.879 183.086C267.766 183.475 269.033 184.045 270.555 184.775C273.598 186.234 277.666 188.332 281.758 190.885C285.846 193.436 289.978 196.453 293.136 199.754C296.286 203.046 298.526 206.683 298.705 210.471C299.048 217.749 297.891 226.423 296.122 232.938C295.239 236.19 294.194 238.945 293.084 240.724C292.532 241.608 291.933 242.303 291.284 242.677C290.953 242.867 290.597 242.981 290.223 242.979C289.847 242.978 289.488 242.859 289.156 242.64ZM265.516 183.588C265.475 183.665 265.428 183.752 265.376 183.849C265.149 184.27 264.826 184.874 264.438 185.611C263.661 187.085 262.628 189.085 261.597 191.191C260.565 193.298 259.54 195.505 258.779 197.394C258.398 198.339 258.087 199.198 257.873 199.92C257.656 200.655 257.555 201.206 257.563 201.553C257.566 201.692 257.613 201.929 257.729 202.281C257.842 202.623 258.009 203.04 258.225 203.524C258.658 204.493 259.276 205.703 260.023 207.079C261.517 209.829 263.508 213.207 265.515 216.57C266.041 217.45 266.567 218.33 267.086 219.196C268.548 221.637 269.948 223.976 271.09 225.947C271.864 227.283 272.523 228.457 273.003 229.385C273.243 229.848 273.442 230.256 273.589 230.594C273.731 230.921 273.841 231.221 273.88 231.455C273.913 231.651 274.063 231.941 274.407 232.325C274.74 232.698 275.212 233.113 275.799 233.559C276.972 234.452 278.55 235.432 280.262 236.425C281.595 237.197 283.016 237.98 284.376 238.729C286.475 239.885 288.433 240.963 289.707 241.805C289.897 241.931 290.068 241.979 290.228 241.979C290.39 241.98 290.574 241.932 290.786 241.81C291.222 241.559 291.715 241.028 292.235 240.194C293.268 238.539 294.283 235.896 295.157 232.676C296.902 226.248 298.044 217.678 297.706 210.518C297.544 207.087 295.499 203.671 292.414 200.445C289.337 197.229 285.283 194.263 281.228 191.734C277.177 189.206 273.145 187.126 270.123 185.677C268.612 184.953 267.356 184.387 266.478 184.002C266.073 183.825 265.748 183.686 265.516 183.588Z" fill="#263238"/>
<path fill-rule="evenodd" clip-rule="evenodd" d="M271.176 211.622L271.189 211.616C271.201 211.611 271.221 211.603 271.248 211.592C271.303 211.57 271.387 211.538 271.499 211.5C271.722 211.423 272.057 211.323 272.487 211.23C273.349 211.046 274.594 210.896 276.11 211.045C279.129 211.341 283.276 212.823 287.636 217.684C287.82 217.889 288.136 217.907 288.342 217.722C288.547 217.538 288.565 217.222 288.38 217.016C283.862 211.98 279.489 210.371 276.208 210.05C274.574 209.889 273.224 210.05 272.278 210.252C271.805 210.354 271.432 210.466 271.175 210.554C271.046 210.598 270.946 210.636 270.877 210.664C270.842 210.677 270.815 210.689 270.796 210.697L270.773 210.707L270.766 210.71L270.763 210.711L270.762 210.712C270.762 210.712 270.762 210.712 270.969 211.167L270.762 210.712C270.511 210.826 270.399 211.123 270.514 211.374C270.628 211.625 270.925 211.736 271.176 211.622Z" fill="#263238"/>
<path d="M439.41 352.342L389.556 408.616C389.556 408.616 381.358 398.41 371.105 385.937C356.531 368.214 337.804 345.921 332.508 341.859C326.041 336.894 283.998 308.144 272.383 293.912C270.715 291.867 269.269 290.061 267.988 288.413V288.403C260.315 278.529 258.795 274.291 254.981 260.501C250.541 244.39 245.649 235.492 244.406 229.532C244.369 229.357 244.332 229.172 244.296 228.979C243.015 222.365 240.767 202.467 237.848 197.41C234.836 192.196 246.792 189.672 251.352 192.574C255.912 195.466 267.279 209.569 266.56 221.711C266.56 221.711 275.496 243.736 280.055 243.137C280.055 243.137 279.466 221.075 276.435 215.686C274.629 212.48 274.169 209.513 274.105 207.635C274.04 206.363 274.169 205.59 274.169 205.59C274.169 205.59 260.112 190.427 255.985 180.221C251.849 170.014 243.752 154.299 242.195 139.007C242.195 139.007 240.38 128.017 247.04 123.035C249.583 121.127 251.922 120.593 254.29 123.882C255.257 125.245 256.243 127.253 257.247 130.082C267.223 158.242 279.549 169.028 279.549 169.028C279.549 169.028 287.71 171.119 293.643 173.91C294.49 174.307 295.458 174.896 296.526 175.614C296.536 175.614 296.536 175.614 296.544 175.614C296.544 175.624 296.544 175.624 296.544 175.624C299.161 177.383 302.348 179.934 305.627 182.431C310.362 186.024 315.29 189.506 318.994 190.317C331.89 193.117 338.09 199.666 338.09 199.666C338.09 199.666 346.657 197.843 351.188 205.82C355.583 213.539 358.005 215.077 358.005 215.077C358.07 215.077 361.239 215.105 363.836 220.779C368.414 230.783 382.176 284.092 382.849 286.247C388.386 303.878 404.847 322.799 423.666 339.38C423.666 339.38 423.666 339.389 423.676 339.389C428.807 343.904 434.105 348.243 439.41 352.342Z" fill="white"/>
<path opacity="0.4" d="M296.542 175.627C296.542 175.627 296.532 175.627 296.523 175.617C296.533 175.617 296.533 175.617 296.542 175.617C296.542 175.627 296.542 175.627 296.542 175.627Z" fill="#3A59FC"/>
<path opacity="0.4" d="M310.411 197.243C310.411 197.243 295.506 194.554 292.569 187.792C289.639 181.03 277.158 166.596 274.172 165.656C271.196 164.708 269.318 166.808 269.318 166.808C269.318 166.808 264.151 158.637 260.263 151.59C256.569 144.893 238.312 124.802 254.294 123.891C255.261 125.254 256.247 127.262 257.251 130.091C267.227 158.251 279.553 169.037 279.553 169.037C279.553 169.037 287.714 171.128 293.647 173.919C294.494 174.316 295.462 174.905 296.53 175.623C296.144 175.531 290.183 174.048 291.363 177.097C292.57 180.256 302.288 189.053 307.392 192.914C312.493 196.783 310.411 197.243 310.411 197.243Z" fill="#3A59FC"/>
<path opacity="0.4" d="M423.665 339.387C415.237 334.772 402.506 327.154 398.25 321.166C391.691 311.936 386.827 307.321 382.46 301.968C378.085 296.626 369.822 292.259 371.765 292.987C373.709 293.714 382.46 296.727 382.46 296.727C382.46 296.727 375.902 288.611 370.798 275.006C365.695 261.401 356.41 213.555 349.51 208.239C342.61 202.923 349.51 255.191 349.51 255.191C349.51 255.191 342.86 240.508 339.699 223.347C336.54 206.176 333.656 197.748 329.925 195.426C326.195 193.113 319.046 197.996 317.103 195.426C315.159 192.865 317.352 191.915 305.625 182.438C310.36 186.03 315.289 189.512 318.992 190.323C331.888 193.123 338.088 199.673 338.088 199.673C338.088 199.673 346.655 197.849 351.186 205.826C355.581 213.545 358.003 215.084 358.003 215.084C358.068 215.084 361.237 215.111 363.834 220.785C368.412 230.789 382.174 284.098 382.847 286.253C388.385 303.885 404.846 322.806 423.665 339.387Z" fill="#3A59FC"/>
<path opacity="0.4" d="M284.976 253.277C284.432 256.501 280.416 247.068 280.056 248.524C279.697 249.989 278.61 254.77 278.546 253.277C278.491 251.784 269.978 247.068 268.514 240.021C267.059 232.974 266.092 229.962 265.363 228.194C264.636 226.416 263.337 229.373 263.254 225.099C263.179 221.276 250.863 217.241 244.296 228.987C243.015 222.373 240.767 202.475 237.848 197.418C234.836 192.204 246.792 189.68 251.352 192.582C255.912 195.474 267.279 209.577 266.56 221.719C266.56 221.719 275.496 243.744 280.055 243.145C280.055 243.145 279.466 221.082 276.435 215.694C274.629 212.488 274.169 209.521 274.105 207.643L278.545 208.242C279.742 210.876 277.403 214.616 278.545 216.514C279.696 218.402 286.872 232.229 284.495 239.378C282.12 246.515 285.518 250.053 284.976 253.277Z" fill="#3A59FC"/>
<path opacity="0.4" d="M371.101 385.946C356.527 368.223 337.8 345.93 332.504 341.868C326.037 336.903 283.994 308.153 272.379 293.921C270.711 291.876 269.265 290.07 267.984 288.422C274.168 295.974 281.723 299.947 285.031 301.735C290.862 304.885 307.75 307.608 319.533 320.397C325.258 326.611 328.524 331.128 335.571 338.903C342.608 346.678 352.816 347.166 358.885 357.861C361.935 363.22 366.992 375.296 371.101 385.946Z" fill="#3A59FC"/>
<path fill-rule="evenodd" clip-rule="evenodd" d="M251.968 122.353C250.571 121.614 249.107 122.109 247.342 123.432C244.174 125.805 242.99 129.631 242.617 132.948C242.431 134.597 242.45 136.097 242.514 137.185C242.547 137.728 242.591 138.167 242.626 138.469C242.644 138.62 242.66 138.736 242.671 138.814C242.677 138.853 242.681 138.882 242.684 138.901L242.687 138.923L242.688 138.927C242.69 138.937 242.691 138.949 242.692 138.959C243.929 151.125 249.337 163.551 253.578 173.296C254.634 175.722 255.617 177.983 256.446 180.031C258.481 185.062 262.987 191.356 267.018 196.423C269.028 198.949 270.909 201.157 272.288 202.735C272.977 203.523 273.541 204.153 273.932 204.586C274.127 204.803 274.28 204.97 274.383 205.082C274.434 205.139 274.474 205.182 274.5 205.21L274.537 205.25L274.539 205.252C274.539 205.252 274.54 205.253 274.173 205.593L274.539 205.252C274.644 205.365 274.691 205.521 274.666 205.673M276.869 215.441C277.674 216.872 278.29 219.341 278.771 222.164C279.256 225.01 279.616 228.288 279.88 231.389C280.144 234.491 280.313 237.423 280.416 239.58C280.468 240.658 280.503 241.543 280.525 242.158C280.536 242.466 280.544 242.707 280.549 242.87L280.555 243.057L280.557 243.117L280.557 243.12C280.557 243.12 280.557 243.121 280.407 243.125L280.557 243.121C280.564 243.377 280.376 243.597 280.122 243.631C279.347 243.733 278.57 243.349 277.856 242.778C277.128 242.195 276.375 241.346 275.625 240.341C274.121 238.328 272.562 235.602 271.156 232.879C269.748 230.152 268.484 227.408 267.572 225.347C267.116 224.316 266.748 223.456 266.494 222.852C266.367 222.55 266.268 222.313 266.201 222.151C266.168 222.07 266.142 222.008 266.125 221.965L266.105 221.917L266.1 221.905L266.099 221.902C266.099 221.902 266.099 221.901 266.562 221.713L266.099 221.901C266.071 221.832 266.058 221.758 266.063 221.683C266.412 215.765 263.81 209.309 260.509 203.937C257.204 198.56 253.271 194.382 251.085 192.993C250.046 192.333 248.541 191.959 246.872 191.872C245.211 191.786 243.439 191.987 241.902 192.431C240.352 192.879 239.108 193.556 238.432 194.368C238.1 194.767 237.912 195.188 237.874 195.63C237.837 196.071 237.944 196.579 238.279 197.159C239.072 198.533 239.792 200.885 240.45 203.673C241.112 206.478 241.723 209.784 242.277 213.105C242.761 216.004 243.201 218.906 243.595 221.505C244.108 224.883 244.542 227.748 244.895 229.428C245.427 231.966 246.633 235.054 248.21 239.094C248.453 239.716 248.704 240.36 248.964 241.029C250.9 246.019 253.239 252.288 255.468 260.367C257.692 268.426 259.125 273.173 261.439 277.681C263.753 282.19 266.96 286.48 272.77 293.598C278.533 300.659 291.895 311.368 304.678 320.965C311.06 325.755 317.281 330.257 322.313 333.872C323.496 334.722 324.614 335.523 325.653 336.269C329.028 338.688 331.572 340.512 332.815 341.466C333.977 342.359 335.739 344.079 337.914 346.376C340.097 348.682 342.717 351.592 345.605 354.886C351.38 361.474 358.232 369.606 364.8 377.52C371.369 385.433 377.655 393.13 382.299 398.848C384.622 401.707 386.533 404.072 387.864 405.722C388.53 406.547 389.05 407.193 389.404 407.633L389.938 408.296L389.944 408.305L389.946 408.307C389.946 408.307 389.946 408.307 389.644 408.55L389.946 408.307C390.119 408.522 390.085 408.837 389.869 409.01C389.654 409.183 389.339 409.149 389.167 408.933L389.472 408.688C389.167 408.933 389.167 408.934 389.167 408.933L389.164 408.931L388.625 408.26C388.272 407.82 387.751 407.174 387.086 406.35C385.756 404.701 383.845 402.337 381.523 399.479C376.88 393.762 370.596 386.068 364.031 378.158C357.465 370.248 350.619 362.123 344.853 355.545C341.969 352.256 339.358 349.356 337.188 347.064C335.01 344.764 333.298 343.098 332.206 342.259C330.978 341.316 328.455 339.508 325.086 337.092C324.044 336.345 322.92 335.54 321.729 334.684C316.696 331.067 310.468 326.561 304.078 321.764C291.319 312.187 277.85 301.404 271.995 294.23C266.186 287.113 262.917 282.751 260.549 278.138C258.181 273.525 256.725 268.682 254.504 260.633C252.288 252.601 249.962 246.367 248.032 241.391C247.774 240.727 247.523 240.084 247.28 239.461C245.708 235.438 244.467 232.26 243.916 229.633C243.559 227.934 243.116 225.014 242.598 221.6C242.204 219.003 241.767 216.12 241.291 213.27C240.738 209.957 240.131 206.676 239.477 203.902C238.818 201.11 238.124 198.891 237.413 197.659C236.996 196.937 236.82 196.226 236.878 195.544C236.936 194.862 237.226 194.254 237.663 193.728C238.525 192.693 239.992 191.943 241.625 191.471C243.271 190.995 245.155 190.782 246.923 190.874C248.684 190.965 250.381 191.361 251.621 192.149C253.991 193.654 258.02 197.978 261.361 203.414C264.684 208.821 267.395 215.441 267.068 221.628C267.083 221.665 267.102 221.713 267.126 221.769C267.192 221.929 267.289 222.165 267.416 222.464C267.668 223.063 268.034 223.918 268.487 224.942C269.393 226.993 270.648 229.717 272.044 232.42C273.442 235.128 274.972 237.796 276.426 239.743C277.154 240.718 277.848 241.49 278.481 241.997C278.892 242.326 279.245 242.516 279.54 242.598C279.536 242.481 279.531 242.346 279.526 242.194C279.504 241.582 279.469 240.702 279.418 239.628C279.315 237.479 279.146 234.56 278.884 231.474C278.621 228.386 278.264 225.139 277.785 222.332C277.303 219.503 276.708 217.194 275.998 215.931C274.443 213.165 273.861 210.573 273.669 208.669C273.573 207.716 273.575 206.935 273.601 206.388C273.613 206.12 273.632 205.909 273.648 205.76C273.647 205.759 273.646 205.759 273.645 205.758C273.541 205.643 273.387 205.475 273.19 205.256C272.796 204.82 272.228 204.186 271.535 203.393C270.149 201.807 268.257 199.586 266.235 197.045C262.204 191.977 257.614 185.584 255.519 180.406C254.707 178.4 253.737 176.172 252.691 173.769C248.449 164.027 242.956 151.41 241.699 139.074L241.696 139.054C241.692 139.031 241.687 138.998 241.681 138.955C241.669 138.87 241.652 138.745 241.633 138.586C241.596 138.268 241.55 137.809 241.516 137.244C241.449 136.116 241.43 134.557 241.623 132.836C242.008 129.411 243.248 125.249 246.742 122.631C248.564 121.266 250.486 120.437 252.436 121.469C253.378 121.968 254.267 122.876 255.131 124.243C255.996 125.611 256.854 127.47 257.72 129.914C262.694 143.951 268.249 153.649 272.552 159.83C274.703 162.921 276.542 165.133 277.84 166.569C278.489 167.288 279.002 167.812 279.352 168.155C279.526 168.327 279.66 168.453 279.749 168.536C279.766 168.551 279.781 168.565 279.794 168.577C279.855 168.593 279.938 168.615 280.041 168.642C280.278 168.705 280.621 168.798 281.052 168.919C281.914 169.159 283.125 169.509 284.521 169.946C287.311 170.819 290.86 172.046 293.857 173.455C295.39 174.176 297.295 175.478 299.377 177.022C300.621 177.945 301.948 178.968 303.31 180.018C304.23 180.728 305.165 181.45 306.103 182.162C308.442 183.937 310.81 185.665 313.046 187.047C315.289 188.433 317.36 189.447 319.106 189.827C325.616 191.243 330.442 193.607 333.646 195.623C335.248 196.63 336.444 197.551 337.242 198.222C337.641 198.558 337.941 198.832 338.143 199.023C338.186 199.064 338.225 199.102 338.26 199.135C338.301 199.129 338.347 199.122 338.397 199.115C338.653 199.079 339.02 199.037 339.473 199.013C340.379 198.964 341.635 198.986 343.039 199.266C345.859 199.828 349.275 201.433 351.627 205.572C353.809 209.413 355.494 211.701 356.624 213.022C357.188 213.683 357.613 214.1 357.89 214.349C358.019 214.465 358.116 214.544 358.181 214.593C358.188 214.594 358.195 214.595 358.202 214.596C358.317 214.609 358.475 214.634 358.669 214.683C359.058 214.782 359.589 214.977 360.201 215.361C361.427 216.13 362.943 217.636 364.288 220.569C365.452 223.108 367.181 228.35 369.124 234.781C371.071 241.225 373.243 248.898 375.292 256.323C377.861 265.633 380.233 274.538 381.73 280.159C382.624 283.516 383.206 285.701 383.332 286.102C386.825 297.221 394.719 308.901 404.862 320.207C414.999 331.507 427.353 342.402 439.72 351.952C439.939 352.121 439.979 352.435 439.81 352.654C439.642 352.872 439.328 352.913 439.109 352.744C426.71 343.169 414.307 332.233 404.118 320.875C393.934 309.523 385.933 297.717 382.378 286.401C382.249 285.99 381.655 283.759 380.745 280.344C379.241 274.701 376.877 265.825 374.328 256.589C372.28 249.167 370.11 241.503 368.167 235.07C366.219 228.624 364.509 223.451 363.379 220.986C362.101 218.198 360.702 216.856 359.669 216.208C359.151 215.883 358.716 215.727 358.422 215.652C358.275 215.615 358.162 215.597 358.09 215.589C358.055 215.585 358.029 215.584 358.015 215.583L358.005 215.583M358.003 215.583C358.003 215.583 358.004 215.583 358.005 215.583ZM337.727 200.017C337.847 200.143 338.024 200.198 338.194 200.162ZM279.55 169.03C279.221 169.407 279.221 169.406 279.22 169.406L279.217 169.404L279.209 169.396L279.18 169.37C279.155 169.347 279.118 169.314 279.07 169.269C278.973 169.18 278.833 169.047 278.651 168.869C278.287 168.512 277.76 167.973 277.098 167.24C275.773 165.773 273.907 163.528 271.731 160.401C267.377 154.148 261.781 144.37 256.777 130.248C256.777 130.248 256.777 130.248 256.777 130.248C255.925 127.842 255.096 126.059 254.285 124.777C253.473 123.492 252.699 122.74 251.968 122.353M279.55 169.03L279.426 169.515C279.35 169.495 279.279 169.458 279.22 169.406L279.55 169.03ZM279.55 169.03L279.426 169.515L279.428 169.515L279.432 169.516L279.449 169.521L279.517 169.538C279.543 169.545 279.574 169.553 279.61 169.563C279.658 169.575 279.717 169.591 279.784 169.609C280.017 169.671 280.357 169.763 280.784 169.882C281.637 170.12 282.838 170.467 284.223 170.9C286.997 171.768 290.495 172.979 293.432 174.36C294.865 175.034 296.698 176.28 298.782 177.825C300.022 178.745 301.331 179.755 302.685 180.799C303.605 181.509 304.546 182.235 305.499 182.958C307.842 184.737 310.242 186.489 312.52 187.897C314.79 189.3 316.978 190.387 318.893 190.804C325.276 192.192 329.995 194.507 333.113 196.469C334.673 197.45 335.832 198.343 336.598 198.988C336.982 199.31 337.267 199.57 337.455 199.748C337.548 199.838 337.618 199.906 337.663 199.952C337.686 199.974 337.703 199.991 337.713 200.002L337.725 200.014L337.727 200.017M274.666 205.673L274.665 205.681L274.66 205.715C274.656 205.746 274.65 205.795 274.643 205.86C274.629 205.989 274.611 206.184 274.6 206.436C274.576 206.939 274.574 207.671 274.664 208.568C274.845 210.363 275.394 212.817 276.869 215.441" fill="#263238"/>
<path fill-rule="evenodd" clip-rule="evenodd" d="M279.254 168.626C279.478 168.464 279.791 168.515 279.952 168.739L279.547 169.031L279.142 169.324C278.98 169.1 279.03 168.788 279.254 168.626ZM279.547 169.031C279.142 169.324 279.141 169.324 279.142 169.324L279.151 169.337L279.178 169.374C279.202 169.407 279.237 169.455 279.283 169.518C279.375 169.643 279.511 169.828 279.688 170.063C280.04 170.534 280.552 171.209 281.193 172.03C282.475 173.67 284.274 175.892 286.342 178.217C288.409 180.54 290.751 182.973 293.118 185.031C295.478 187.083 297.896 188.793 300.115 189.634C300.374 189.732 300.662 189.602 300.76 189.343C300.858 189.085 300.728 188.796 300.47 188.699C298.417 187.921 296.106 186.304 293.775 184.277C291.451 182.256 289.14 179.858 287.089 177.552C285.039 175.248 283.254 173.043 281.981 171.414C281.345 170.6 280.837 169.93 280.488 169.464C280.314 169.231 280.18 169.049 280.089 168.926C280.044 168.864 280.009 168.817 279.986 168.786L279.961 168.75L279.952 168.739C279.952 168.738 279.952 168.739 279.547 169.031Z" fill="#263238"/>
<path fill-rule="evenodd" clip-rule="evenodd" d="M299.149 192.762C299.233 192.499 299.514 192.354 299.777 192.438C299.969 192.499 300.159 192.56 300.347 192.62C304.191 193.849 307.442 194.889 309.925 196.349C312.568 197.903 314.372 199.949 315.166 203.202C316.675 209.384 321.072 223.391 323.184 228.889C324.245 231.651 326.047 236.519 327.584 240.692C328.352 242.78 329.054 244.695 329.564 246.088C329.819 246.784 330.026 247.35 330.17 247.742L330.392 248.352C330.392 248.352 330.392 248.352 329.923 248.524C329.453 248.695 329.453 248.695 329.453 248.695L329.23 248.086C329.087 247.694 328.88 247.128 328.625 246.431C328.115 245.039 327.413 243.124 326.645 241.038C325.109 236.863 323.308 232.002 322.25 229.248C320.123 223.71 315.714 209.662 314.195 203.439C313.474 200.49 311.867 198.651 309.418 197.211C307.034 195.809 303.883 194.801 299.978 193.552C299.811 193.498 299.642 193.445 299.473 193.39C299.21 193.306 299.065 193.025 299.149 192.762ZM329.923 248.524L329.453 248.695C329.548 248.954 329.835 249.088 330.094 248.993C330.354 248.899 330.487 248.611 330.392 248.352L329.923 248.524Z" fill="#263238"/>
<path fill-rule="evenodd" clip-rule="evenodd" d="M279.75 242.736C279.969 242.568 280.283 242.609 280.451 242.828L280.055 243.133C280.451 242.828 280.451 242.828 280.451 242.828L280.453 242.83L280.457 242.835L280.47 242.853C280.482 242.868 280.498 242.89 280.52 242.919C280.562 242.977 280.624 243.062 280.701 243.171C280.856 243.391 281.074 243.71 281.331 244.115C281.843 244.924 282.512 246.079 283.138 247.462C284.384 250.215 285.485 253.934 284.768 257.651C284.716 257.922 284.454 258.1 284.183 258.047C283.912 257.995 283.734 257.733 283.786 257.462C284.446 254.041 283.437 250.548 282.227 247.874C281.625 246.543 280.98 245.43 280.486 244.65C280.239 244.261 280.03 243.955 279.884 243.748C279.811 243.645 279.754 243.566 279.715 243.513C279.696 243.487 279.681 243.468 279.671 243.455L279.661 243.441L279.659 243.438C279.49 243.219 279.531 242.905 279.75 242.736Z" fill="#263238"/>
<path fill-rule="evenodd" clip-rule="evenodd" d="M278.189 241.976C278.189 241.976 278.189 241.976 278.189 241.976L278.189 241.981L278.189 241.997L278.187 242.062C278.186 242.12 278.184 242.206 278.183 242.318C278.18 242.542 278.178 242.868 278.182 243.277C278.19 244.095 278.221 245.24 278.314 246.55C278.501 249.179 278.933 252.427 279.904 255.01C280.001 255.268 279.87 255.557 279.611 255.654C279.353 255.751 279.065 255.62 278.967 255.361C277.946 252.642 277.505 249.278 277.317 246.62C277.222 245.286 277.19 244.12 277.182 243.287C277.178 242.87 277.18 242.536 277.183 242.305C277.184 242.19 277.186 242.101 277.187 242.04L277.189 241.97L277.189 241.952L277.19 241.946C277.19 241.946 277.19 241.945 277.688 241.961L277.19 241.946C277.198 241.67 277.429 241.453 277.705 241.461C277.981 241.47 278.198 241.7 278.189 241.976Z" fill="#263238"/>
<path fill-rule="evenodd" clip-rule="evenodd" d="M273.732 205.356C273.863 205.113 274.166 205.023 274.409 205.154L274.172 205.594C274.409 205.154 274.409 205.154 274.409 205.154L274.411 205.154L274.414 205.156L274.425 205.162L274.466 205.185C274.501 205.204 274.552 205.233 274.616 205.27C274.746 205.344 274.93 205.453 275.154 205.592C275.603 205.87 276.212 206.272 276.857 206.765C278.124 207.735 279.617 209.127 280.206 210.696C280.303 210.954 280.172 211.242 279.914 211.339C279.655 211.436 279.367 211.306 279.27 211.047C278.787 209.761 277.497 208.514 276.249 207.559C275.636 207.09 275.055 206.707 274.627 206.442C274.413 206.309 274.239 206.206 274.118 206.137C274.058 206.102 274.011 206.076 273.98 206.059L273.945 206.039L273.936 206.035L273.935 206.034C273.692 205.903 273.601 205.599 273.732 205.356Z" fill="#263238"/>
<path fill-rule="evenodd" clip-rule="evenodd" d="M277.892 218.135C277.892 218.135 277.892 218.135 277.892 218.135L277.893 218.137L277.897 218.146L277.913 218.181C277.928 218.212 277.95 218.259 277.979 218.32C278.037 218.441 278.123 218.618 278.232 218.838C278.452 219.279 278.767 219.89 279.148 220.576C279.917 221.955 280.938 223.599 281.983 224.748C282.591 225.416 283.088 226.42 283.496 227.498C283.907 228.588 284.244 229.803 284.511 230.932C284.777 232.063 284.975 233.117 285.106 233.888C285.172 234.274 285.221 234.589 285.253 234.808C285.27 234.918 285.282 235.004 285.29 235.063L285.299 235.13L285.302 235.148L285.302 235.154C285.302 235.154 285.303 235.154 284.885 235.209L285.302 235.154C285.339 235.427 285.146 235.679 284.872 235.715C284.599 235.752 284.347 235.559 284.311 235.285C284.311 235.285 284.311 235.285 284.311 235.285L284.311 235.28L284.308 235.265L284.3 235.201C284.292 235.145 284.28 235.062 284.264 234.956C284.232 234.742 284.184 234.433 284.12 234.055C283.992 233.299 283.798 232.266 283.537 231.162C283.277 230.055 282.951 228.886 282.56 227.851C282.165 226.806 281.721 225.946 281.244 225.421C280.119 224.184 279.052 222.457 278.275 221.063C277.884 220.361 277.562 219.735 277.337 219.284C277.225 219.059 277.137 218.877 277.077 218.751C277.047 218.688 277.024 218.639 277.008 218.605L276.99 218.567L276.985 218.557L276.983 218.553C276.983 218.553 276.983 218.553 277.438 218.344L276.983 218.553C276.868 218.302 276.977 218.005 277.228 217.89C277.479 217.774 277.776 217.884 277.892 218.135Z" fill="#263238"/>
<path fill-rule="evenodd" clip-rule="evenodd" d="M254.743 223.271C254.783 223.544 254.595 223.798 254.321 223.838C251.952 224.188 249.575 225.668 247.757 227.109C246.856 227.823 246.107 228.516 245.584 229.029C245.323 229.286 245.118 229.497 244.98 229.644C244.911 229.717 244.858 229.774 244.823 229.812L244.784 229.855L244.775 229.866L244.773 229.868C244.589 230.074 244.273 230.093 244.066 229.91C243.86 229.727 243.841 229.411 244.025 229.204L244.398 229.536C244.025 229.204 244.025 229.204 244.025 229.204L244.026 229.203L244.029 229.199L244.041 229.186L244.085 229.137C244.124 229.095 244.18 229.034 244.253 228.957C244.399 228.802 244.612 228.582 244.883 228.316C245.425 227.784 246.201 227.066 247.136 226.325C248.992 224.854 251.54 223.238 254.176 222.849C254.449 222.809 254.703 222.998 254.743 223.271Z" fill="#263238"/>
<path fill-rule="evenodd" clip-rule="evenodd" d="M267.336 167.966L267.036 167.566C266.815 167.732 266.77 168.045 266.936 168.266C267.101 168.487 267.415 168.532 267.636 168.367L267.638 168.365L267.648 168.358C267.657 168.351 267.671 168.34 267.691 168.326C267.73 168.299 267.789 168.257 267.866 168.205C268.021 168.1 268.249 167.952 268.536 167.783C269.112 167.444 269.921 167.023 270.854 166.691C272.737 166.021 275.02 165.747 276.963 167.071C277.191 167.227 277.502 167.168 277.658 166.94C277.813 166.711 277.754 166.4 277.526 166.245C275.192 164.655 272.521 165.036 270.519 165.749C269.51 166.108 268.643 166.56 268.029 166.921C267.722 167.102 267.476 167.262 267.306 167.376C267.221 167.434 267.155 167.48 267.11 167.513C267.087 167.529 267.069 167.542 267.057 167.551L267.042 167.562L267.038 167.565L267.037 167.566C267.037 167.566 267.036 167.566 267.336 167.966Z" fill="#263238"/>
<path fill-rule="evenodd" clip-rule="evenodd" d="M360.992 228.343C361.252 228.248 361.539 228.381 361.634 228.641C361.929 229.449 362.509 231.808 363.227 234.898C363.858 237.615 364.603 240.934 365.369 244.345C365.48 244.838 365.591 245.332 365.702 245.827C366.584 249.751 367.475 253.698 368.236 256.912C369.001 260.142 369.626 262.592 369.976 263.548C370.071 263.807 369.938 264.095 369.678 264.189C369.419 264.284 369.132 264.151 369.037 263.892C368.662 262.867 368.022 260.348 367.263 257.143C366.501 253.922 365.608 249.969 364.727 246.047C364.615 245.551 364.504 245.057 364.394 244.564C363.627 241.153 362.883 237.838 362.252 235.124C361.527 231.999 360.963 229.719 360.694 228.984C360.6 228.725 360.733 228.438 360.992 228.343Z" fill="#263238"/>
<path fill-rule="evenodd" clip-rule="evenodd" d="M321.427 196.484C321.203 196.645 321.152 196.957 321.312 197.181C321.473 197.406 321.785 197.457 322.01 197.297" fill="#263238"/>
<path fill-rule="evenodd" clip-rule="evenodd" d="M343.011 216.015C343.283 215.969 343.541 216.152 343.587 216.424C343.822 217.815 344.228 220.412 344.74 223.692C345.38 227.785 346.186 232.941 347.033 238.141C348.563 247.535 350.226 257.06 351.303 260.861C351.378 261.127 351.223 261.403 350.958 261.478C350.692 261.553 350.416 261.399 350.34 261.133C349.244 257.263 347.572 247.67 346.046 238.301C345.196 233.082 344.39 227.929 343.752 223.842C343.24 220.57 342.836 217.982 342.601 216.591C342.555 216.319 342.738 216.061 343.011 216.015Z" fill="#263238"/>
</g>
</g>
<defs>
<clipPath id="clip0_122_234">
<rect width="440" height="470" fill="white"/>
</clipPath>
</defs>
</svg>
