<svg width="60" height="60" viewBox="0 0 60 60" fill="none" xmlns="http://www.w3.org/2000/svg">
<g clip-path="url(#clip0_97_16)">
<path d="M1.39298 26.7592C1.65595 26.754 1.90783 26.6523 2.10076 26.4736C2.29369 26.2948 2.4142 26.0514 2.43939 25.7896C2.46457 25.5278 2.39268 25.2658 2.23737 25.0536C2.08206 24.8413 1.85417 24.6935 1.59701 24.6383C1.4491 24.6065 1.29614 24.6064 1.14818 24.638C1.00022 24.6695 0.860605 24.732 0.738511 24.8213C0.616417 24.9107 0.514604 25.0248 0.43976 25.1563C0.364915 25.2878 0.318732 25.4336 0.304245 25.5842C0.289758 25.7348 0.307294 25.8867 0.355702 26.0301C0.40411 26.1734 0.482294 26.3049 0.585118 26.4158C0.687943 26.5268 0.813081 26.6148 0.952314 26.6739C1.09155 26.7331 1.24172 26.7622 1.39298 26.7592Z" fill="#3A59FC"/>
<path d="M14.313 6.7575C14.549 6.75542 14.7777 6.67481 14.9629 6.52839C15.1481 6.38198 15.2793 6.17808 15.3358 5.94885C15.3923 5.71963 15.3708 5.47813 15.2749 5.26242C15.1789 5.04672 15.0139 4.8691 14.8058 4.75756C14.5978 4.64603 14.3585 4.60693 14.1257 4.64643C13.893 4.68593 13.68 4.80178 13.5204 4.97572C13.3607 5.14966 13.2636 5.37179 13.2441 5.60707C13.2247 5.84235 13.2842 6.0774 13.4131 6.27515C13.5106 6.42462 13.6441 6.54715 13.8013 6.63144C13.9586 6.71574 14.1345 6.75909 14.313 6.7575Z" fill="#3A59FC"/>
<path d="M9.55576 10.6162C9.76004 10.6122 9.95904 10.5506 10.1298 10.4384C10.3006 10.3262 10.4361 10.168 10.5209 9.98207C10.6056 9.79615 10.6361 9.59006 10.6087 9.38758C10.5814 9.18509 10.4974 8.99445 10.3664 8.83765C10.2714 8.73211 10.1564 8.64652 10.028 8.58584C9.89959 8.52516 9.76043 8.49061 9.61858 8.48419C9.47673 8.47777 9.33502 8.49962 9.20168 8.54846C9.06835 8.5973 8.94605 8.67215 8.84191 8.76868C8.73776 8.86521 8.65385 8.98147 8.59504 9.11072C8.53623 9.23996 8.5037 9.37961 8.49934 9.52154C8.49499 9.66347 8.51889 9.80485 8.56966 9.93746C8.62043 10.0701 8.69706 10.1913 8.79509 10.294C8.89387 10.3959 9.0121 10.4769 9.14276 10.5322C9.27342 10.5876 9.41386 10.6161 9.55576 10.6162Z" fill="#3A59FC"/>
<path d="M19.7743 4.01004C20.0024 4.00927 20.2244 3.93571 20.4078 3.80008C20.5912 3.66446 20.7266 3.47383 20.7942 3.25595C20.8618 3.03806 20.8581 2.80429 20.7836 2.58866C20.7092 2.37302 20.5679 2.18677 20.3802 2.05701C20.1926 1.92725 19.9685 1.86075 19.7404 1.86719C19.5124 1.87363 19.2924 1.95267 19.1124 2.09281C18.9323 2.23295 18.8018 2.42688 18.7396 2.64637C18.6774 2.86587 18.6869 3.09947 18.7667 3.31319C18.8442 3.51781 18.9821 3.69403 19.162 3.81849C19.342 3.94294 19.5555 4.00975 19.7743 4.01004Z" fill="#3A59FC"/>
<path d="M5.11421 15.1985C5.28648 15.3103 5.48741 15.3699 5.69278 15.3701C5.95086 15.3709 6.20058 15.2787 6.39614 15.1103C6.59169 14.9419 6.71998 14.7086 6.75746 14.4533C6.79494 14.1979 6.73911 13.9376 6.6002 13.7201C6.46129 13.5026 6.24862 13.3425 6.00119 13.2691C5.75377 13.1957 5.48818 13.214 5.25315 13.3206C5.01811 13.4272 4.82939 13.6149 4.72159 13.8494C4.61379 14.0839 4.59415 14.3494 4.66627 14.5972C4.73838 14.845 4.89742 15.0585 5.11421 15.1985Z" fill="#3A59FC"/>
<path d="M2.55591 20.7562C2.67831 20.8067 2.80957 20.8324 2.942 20.8315C3.17858 20.8245 3.40634 20.7401 3.5903 20.5912C3.77425 20.4423 3.90424 20.2371 3.96029 20.0071C4.01635 19.7772 3.99537 19.5352 3.90059 19.3183C3.8058 19.1014 3.64245 18.9217 3.43561 18.8066C3.30079 18.7392 3.15347 18.7003 3.00291 18.6926C2.85235 18.6849 2.70183 18.7084 2.56081 18.7617C2.41979 18.815 2.29133 18.8969 2.18352 19.0023C2.07572 19.1077 1.99089 19.2342 1.9344 19.374C1.83557 19.6398 1.84537 19.9339 1.96168 20.1925C2.07799 20.4512 2.29146 20.6537 2.55591 20.7562Z" fill="#3A59FC"/>
<path d="M25.7088 2.46377C25.8649 2.45952 26.0182 2.42117 26.1579 2.35142C26.2976 2.28167 26.4203 2.18221 26.5175 2.06C26.6147 1.93779 26.684 1.7958 26.7206 1.64398C26.7571 1.49216 26.76 1.33419 26.729 1.18114C26.698 1.02809 26.6339 0.883673 26.5412 0.758011C26.4485 0.632349 26.3295 0.528484 26.1924 0.453701C26.0553 0.378917 25.9035 0.335025 25.7477 0.325101C25.5918 0.315178 25.4357 0.339463 25.2903 0.396255C25.0669 0.497139 24.8845 0.670859 24.7727 0.888974C24.661 1.10709 24.6266 1.35667 24.6753 1.59687C24.7239 1.83706 24.8526 2.05363 25.0404 2.21112C25.2281 2.36861 25.4638 2.45769 25.7088 2.46377Z" fill="#3A59FC"/>
<path d="M30 0C29.7158 0 29.4433 0.112882 29.2424 0.313814C29.0414 0.514746 28.9286 0.787268 28.9286 1.07143C28.9286 1.35559 29.0414 1.62811 29.2424 1.82904C29.4433 2.02997 29.7158 2.14286 30 2.14286C35.5096 2.14286 40.8955 3.77665 45.4766 6.83763C50.0577 9.89861 53.6282 14.2493 55.7366 19.3395C57.8451 24.4298 58.3967 30.0309 57.3219 35.4347C56.247 40.8384 53.5939 45.8021 49.698 49.698C45.8021 53.5939 40.8384 56.247 35.4347 57.3219C30.0309 58.3967 24.4298 57.8451 19.3395 55.7366C14.2493 53.6282 9.89861 50.0577 6.83763 45.4766C3.77665 40.8955 2.14286 35.5096 2.14286 30C2.14286 29.7158 2.02997 29.4433 1.82904 29.2424C1.62811 29.0414 1.35559 28.9286 1.07143 28.9286C0.787268 28.9286 0.514746 29.0414 0.313814 29.2424C0.112882 29.4433 0 29.7158 0 30C0 35.9334 1.75947 41.7336 5.05591 46.6671C8.35235 51.6006 13.0377 55.4457 18.5195 57.7164C24.0013 59.987 30.0333 60.5811 35.8527 59.4235C41.6721 58.266 47.0176 55.4088 51.2132 51.2132C55.4088 47.0176 58.266 41.6721 59.4235 35.8527C60.5811 30.0333 59.987 24.0013 57.7164 18.5195C55.4457 13.0377 51.6006 8.35235 46.6671 5.05591C41.7336 1.75947 35.9334 0 30 0Z" fill="#3A59FC"/>
<path d="M29.104 10.2847L28.9387 29.9942C28.9376 30.1364 28.9648 30.2775 29.0186 30.4091C29.0725 30.5408 29.1521 30.6605 29.2526 30.7611L39.3276 40.8361C39.427 40.9357 39.545 41.0148 39.675 41.0686C39.805 41.1225 39.9444 41.1502 40.0851 41.15C40.2955 41.1466 40.5002 41.0818 40.6742 40.9635C40.8482 40.8452 40.9838 40.6786 41.0643 40.4842C41.1448 40.2899 41.1667 40.0762 41.1273 39.8695C41.0879 39.6629 40.989 39.4722 40.8426 39.3211L31.0857 29.5631L31.2468 10.3036C31.2429 10.0237 31.1295 9.75644 30.931 9.55901C30.7325 9.36158 30.4646 9.24965 30.1847 9.24717C29.9047 9.2447 29.6349 9.35186 29.433 9.54575C29.231 9.73964 29.1129 10.0049 29.104 10.2847Z" fill="#3A59FC"/>
</g>
<defs>
<clipPath id="clip0_97_16">
<rect width="60" height="60" fill="white"/>
</clipPath>
</defs>
</svg>
