<svg width="40" height="40" viewBox="0 0 40 40" fill="none" xmlns="http://www.w3.org/2000/svg">
<path d="M21.7174 6.51736C22.4805 6.51736 23.0611 5.93672 23.0611 5.17362C23.0611 4.4271 22.4805 3.84647 21.7174 3.84647H9.57401L12.2117 6.51736H21.7174ZM26.379 11.2619C27.1255 11.2619 27.7227 10.6647 27.7227 9.90157C27.7227 9.15505 27.1255 8.59101 26.379 8.59101H14.2024L16.8401 11.2619H26.379ZM30.941 15.9898C31.6876 15.9898 32.2683 15.3926 32.2683 14.6295C32.2683 13.883 31.6876 13.319 30.941 13.319H18.8309L21.4685 15.9898H30.941ZM35.5529 18.047H23.4593C24.4546 19.0589 24.9025 19.6727 24.9689 20.7178H35.5529C36.2994 20.7178 36.8966 20.1372 36.8966 19.3741C36.8966 18.6275 36.2994 18.047 35.5529 18.047ZM20.2077 34.4372L14.2522 20.5188L13.4559 21.8791L21.7174 22.3435C22.8289 22.4099 23.3598 21.2154 22.5635 20.4026L6.14002 3.61422C5.41009 2.8677 4.28202 3.28244 4.28202 4.32756L4 27.6854C4 28.8299 5.27738 29.2945 6.00731 28.4484L11.3491 22.5426L9.80626 22.1445L15.5628 36.3782C15.795 36.9421 16.3756 37.2076 16.8899 36.9754L19.7433 35.7975C20.2741 35.5984 20.4566 34.9846 20.2077 34.4372Z" fill="white"/>
</svg>
