<svg width="40" height="40" viewBox="0 0 40 40" fill="none" xmlns="http://www.w3.org/2000/svg">
<g clip-path="url(#clip0_330_25291)">
<path d="M7.12639 29.8693L8.48242 32.1796L20.4189 26.1863L32.3551 32.1796L33.7113 29.8693L21.7749 23.8761V9.74665H19.0796V23.8761L7.12639 29.8693ZM2.8909 32.2633C2.8909 32.9498 3.1755 33.4521 3.77818 33.7868L7.12639 35.7455C7.56167 36.0133 7.86301 36.0636 8.44894 35.7288L11.7135 33.8371C12.3161 33.5022 12.4333 33.2176 12.4166 32.6652L12.4333 28.7812C12.4333 28.1116 12.132 27.6261 11.5628 27.2913L8.19782 25.3326C7.76255 25.0982 7.39425 25.0145 6.82505 25.3326L3.51032 27.2578C2.94113 27.5759 2.85742 27.9108 2.85742 28.3795L2.8909 32.2633ZM28.3206 32.6819C28.3039 33.2343 28.421 33.5189 29.0237 33.8538L32.2883 35.7455C32.8741 36.0804 33.1756 36.0302 33.6107 35.7622L36.959 33.8036C37.5617 33.4688 37.8463 32.9665 37.8463 32.2802L37.8797 28.3962C37.8797 27.9275 37.796 27.5926 37.2269 27.2745L33.9121 25.3493C33.3429 25.0312 32.9746 25.1149 32.5393 25.3493L29.1744 27.3081C28.6051 27.6429 28.3039 28.1283 28.3039 28.7979L28.3206 32.6819ZM16.1498 12.6094L19.5316 14.5513C20.1007 14.8694 20.6531 14.8694 21.2224 14.5513L24.6041 12.6094C25.0729 12.3415 25.2737 12.0904 25.2737 11.404V7.62053C25.2737 6.95089 25.0729 6.71652 24.6376 6.46541L21.2558 4.54018C20.6531 4.20536 20.084 4.20536 19.498 4.54018L16.1164 6.46541C15.6978 6.69978 15.4635 6.95089 15.4635 7.62053V11.404C15.4635 12.0904 15.7146 12.3583 16.1498 12.6094Z" fill="white"/>
</g>
<defs>
<clipPath id="clip0_330_25291">
<rect width="35.0223" height="31.7579" fill="white" transform="translate(2.85742 4.28906)"/>
</clipPath>
</defs>
</svg>
