<svg width="40" height="40" viewBox="0 0 40 40" fill="none" xmlns="http://www.w3.org/2000/svg">
<g clip-path="url(#clip0_330_25243)">
<path d="M5.72015 19.9352C5.72015 18.4118 5.95452 16.9386 6.38979 15.5826L3.76144 14.4777C3.19224 16.202 2.85742 18.0268 2.85742 19.9352C2.85742 21.8269 3.19224 23.6685 3.77818 25.3928L6.38979 24.2879C5.95452 22.9319 5.72015 21.4587 5.72015 19.9352ZM13.421 7.24553L12.3496 4.6674C9.03488 6.32477 6.30608 9.05358 4.64872 12.3683L7.26032 13.4565C8.59961 10.7946 10.776 8.6183 13.421 7.24553ZM19.9166 5.70536C21.44 5.70536 22.9133 5.93973 24.3027 6.39175L25.3741 3.78013C23.6499 3.1942 21.8083 2.85938 19.9166 2.85938C18.0248 2.85938 16.1666 3.1942 14.4423 3.78013L15.5472 6.39175C16.9199 5.93973 18.3931 5.70536 19.9166 5.70536ZM32.6063 13.4397L35.2011 12.3683C33.5271 9.05358 30.7983 6.32477 27.4836 4.65067L26.4121 7.24553C29.0571 8.60156 31.2503 10.7779 32.6063 13.4397ZM34.1633 19.9352C34.1633 21.4587 33.9289 22.9319 33.4936 24.3047L36.0884 25.4097C36.6744 23.6852 37.0091 21.8269 37.0091 19.9352C37.0091 18.0268 36.6744 16.1853 36.0884 14.4609L33.4769 15.5658C33.9289 16.9386 34.1633 18.4118 34.1633 19.9352ZM26.4121 32.6082L27.4836 35.2198C30.815 33.5458 33.5439 30.8169 35.1844 27.5022L32.623 26.4308C31.267 29.0927 29.074 31.2522 26.4121 32.6082ZM19.9333 34.1652C18.3931 34.1652 16.9199 33.9308 15.5472 33.4788L14.459 36.0904C16.1833 36.6764 18.0416 37.0111 19.9333 37.0111C21.825 37.0111 23.6666 36.6764 25.3741 36.1071L24.286 33.4955C22.9133 33.9308 21.4567 34.1652 19.9333 34.1652ZM7.26032 26.4308L4.66545 27.5022C6.33956 30.8169 9.03488 33.5458 12.3496 35.2031L13.421 32.5915C10.776 31.2355 8.59961 29.0759 7.26032 26.4308ZM19.8999 31.6205C26.4121 31.6205 31.6019 26.4308 31.5851 19.9352C31.5684 13.4397 26.3786 8.25 19.8831 8.25C13.3876 8.25 8.23131 13.423 8.23131 19.9352C8.23131 26.4475 13.4043 31.6205 19.8999 31.6205Z" fill="white"/>
</g>
<defs>
<clipPath id="clip0_330_25243">
<rect width="34.1517" height="34.1686" fill="white" transform="translate(2.85742 2.85938)"/>
</clipPath>
</defs>
</svg>
