<svg width="70" height="70" viewBox="0 0 70 70" fill="none" xmlns="http://www.w3.org/2000/svg">
<path d="M51.4062 4.375H18.5938C14.8238 4.3786 11.2093 5.8778 8.54355 8.54355C5.8778 11.2093 4.3786 14.8238 4.375 18.5938V51.4062C4.37861 55.1762 5.87781 58.7907 8.54356 61.4564C11.2093 64.1222 14.8238 65.6214 18.5938 65.625H51.4062C55.1762 65.6214 58.7907 64.1222 61.4564 61.4564C64.1222 58.7907 65.6214 55.1762 65.625 51.4062V18.5938C65.6214 14.8238 64.1222 11.2093 61.4565 8.54355C58.7907 5.8778 55.1762 4.3786 51.4062 4.375ZM63.4375 51.4062C63.4356 54.5966 62.1674 57.6556 59.9115 59.9115C57.6556 62.1674 54.5966 63.4356 51.4062 63.4375H18.5938C15.4034 63.4356 12.3444 62.1674 10.0885 59.9115C7.83259 57.6556 6.5644 54.5966 6.5625 51.4062V18.5938C6.5644 15.4034 7.83259 12.3444 10.0885 10.0885C12.3444 7.83259 15.4034 6.5644 18.5938 6.5625H51.4062C54.5966 6.5644 57.6556 7.83259 59.9115 10.0885C62.1674 12.3444 63.4356 15.4034 63.4375 18.5938V51.4062Z" fill="white"/>
<path d="M27.3503 26.2527C27.3495 26.5425 27.234 26.8202 27.029 27.0251C26.8241 27.2301 26.5464 27.3456 26.2566 27.3464H22.9753V52.5027C22.9707 52.7897 22.8534 53.0634 22.6488 53.2648C22.4442 53.4661 22.1686 53.5789 21.8816 53.5789C21.5945 53.5789 21.3189 53.4661 21.1143 53.2647C20.9097 53.0634 20.7925 52.7896 20.7878 52.5026V27.3464H17.5066C17.2195 27.342 16.9456 27.2248 16.7441 27.0201C16.5426 26.8155 16.4297 26.5398 16.4297 26.2527C16.4297 25.9655 16.5426 25.6898 16.7441 25.4852C16.9456 25.2806 17.2195 25.1634 17.5067 25.1589H20.7878V17.5027C20.7923 17.2155 20.9095 16.9417 21.1141 16.7402C21.3188 16.5387 21.5944 16.4258 21.8816 16.4258C22.1688 16.4258 22.4445 16.5387 22.6491 16.7402C22.8537 16.9417 22.9709 17.2156 22.9753 17.5027V25.1589H26.2566C26.5464 25.1598 26.8241 25.2753 27.029 25.4802C27.234 25.6852 27.3495 25.9629 27.3503 26.2527Z" fill="#3A59FC"/>
<path d="M53.5938 30.6277C53.5929 30.9175 53.4774 31.1952 53.2724 31.4001C53.0675 31.6051 52.7898 31.7206 52.5 31.7214H49.2188V52.5027C49.2141 52.7897 49.0969 53.0634 48.8922 53.2648C48.6876 53.4661 48.4121 53.5789 48.125 53.5789C47.8379 53.5789 47.5624 53.4661 47.3578 53.2648C47.1531 53.0634 47.0359 52.7897 47.0312 52.5027V31.7214H43.75C43.4599 31.7214 43.1817 31.6062 42.9766 31.4011C42.7715 31.196 42.6562 30.9178 42.6562 30.6277C42.6562 30.3376 42.7715 30.0594 42.9766 29.8543C43.1817 29.6492 43.4599 29.5339 43.75 29.5339H47.0312V17.5027C47.0357 17.2155 47.1529 16.9417 47.3575 16.7402C47.5622 16.5387 47.8378 16.4258 48.125 16.4258C48.4122 16.4258 48.6879 16.5387 48.8925 16.7402C49.0971 16.9417 49.2143 17.2156 49.2188 17.5027V29.5339H52.5C52.7898 29.5348 53.0675 29.6503 53.2724 29.8552C53.4774 30.0602 53.5929 30.3379 53.5938 30.6277Z" fill="#3A59FC"/>
<path d="M40.4682 35.0027C40.4674 35.2925 40.3519 35.5702 40.1469 35.7751C39.942 35.9801 39.6643 36.0956 39.3745 36.0964H36.0932V52.5027C36.0888 52.7898 35.9716 53.0637 35.767 53.2652C35.5623 53.4667 35.2867 53.5796 34.9995 53.5796C34.7123 53.5796 34.4367 53.4667 34.232 53.2652C34.0274 53.0637 33.9102 52.7898 33.9057 52.5027V36.0964H30.6245C30.3372 36.0922 30.0632 35.9751 29.8615 35.7704C29.6599 35.5657 29.5469 35.29 29.5469 35.0027C29.5469 34.7154 29.6599 34.4396 29.8616 34.2349C30.0632 34.0303 30.3373 33.9132 30.6245 33.9089H33.9057V17.5027C33.9102 17.2155 34.0274 16.9417 34.232 16.7402C34.4367 16.5387 34.7123 16.4258 34.9995 16.4258C35.2867 16.4258 35.5624 16.5387 35.767 16.7402C35.9716 16.9417 36.0888 17.2156 36.0932 17.5027V33.9089H39.3745C39.6643 33.9098 39.942 34.0253 40.1469 34.2303C40.3519 34.4352 40.4674 34.7129 40.4682 35.0027Z" fill="#3A59FC"/>
</svg>
