<svg width="70" height="70" viewBox="0 0 70 70" fill="none" xmlns="http://www.w3.org/2000/svg"><path d="M64.5391 61.0748H51.4578C51.4459 60.1437 51.6933 58.7708 50.364 58.7127C50.0739 58.7127 49.7957 58.828 49.5906 59.0331C49.3855 59.2382 49.2703 59.5164 49.2703 59.8064V61.0748H37.2828V59.8064C37.2775 59.5199 37.16 59.2468 36.9554 59.046C36.7509 58.8452 36.4757 58.7327 36.189 58.7327C35.9024 58.7327 35.6272 58.8452 35.4227 59.046C35.2181 59.2469 35.1006 59.5199 35.0953 59.8065V61.0748H23.1078V59.8064C23.1078 59.5164 22.9926 59.2382 22.7875 59.033C22.5823 58.8279 22.3041 58.7127 22.0141 58.7127C21.724 58.7127 21.4458 58.8279 21.2407 59.033C21.0355 59.2382 20.9203 59.5164 20.9203 59.8064V61.0748H8.93281V49.0873H10.2014C10.4879 49.0819 10.7608 48.9642 10.9615 48.7597C11.1621 48.5552 11.2745 48.2801 11.2745 47.9935C11.2745 47.707 11.1621 47.4319 10.9614 47.2274C10.7607 47.0229 10.4878 46.9053 10.2013 46.8998H8.93299V34.9123H10.2014C10.4886 34.9081 10.7627 34.7909 10.9643 34.5863C11.166 34.3816 11.279 34.1058 11.279 33.8185C11.279 33.5312 11.1659 33.2555 10.9643 33.0508C10.7626 32.8462 10.4886 32.7291 10.2013 32.7248H8.93299V20.7375H10.2014C10.4885 20.733 10.7624 20.6158 10.9639 20.4112C11.1654 20.2066 11.2783 19.9309 11.2783 19.6437C11.2783 19.3565 11.1653 19.0809 10.9638 18.8762C10.7623 18.6716 10.4885 18.5544 10.2013 18.55H8.93299V5.46875C8.93299 5.17867 8.81775 4.90047 8.61264 4.69535C8.40752 4.49023 8.12932 4.375 7.83924 4.375C7.54916 4.375 7.27096 4.49023 7.06584 4.69535C6.86072 4.90047 6.74549 5.17867 6.74549 5.46875V18.55H5.47656C5.19008 18.5554 4.91716 18.6731 4.71649 18.8776C4.51581 19.0821 4.40339 19.3572 4.4034 19.6438C4.40341 19.9303 4.51584 20.2054 4.71653 20.4099C4.91722 20.6145 5.19014 20.7321 5.47663 20.7375H6.74549V32.725H5.47656C5.18649 32.725 4.9083 32.8403 4.70318 33.0454C4.49807 33.2505 4.38283 33.5287 4.38281 33.8188C4.45198 35.1602 5.81496 34.8965 6.74549 34.9124V46.8999H5.47656C5.18648 46.8999 4.90828 47.0152 4.70316 47.2203C4.49805 47.4254 4.38281 47.7036 4.38281 47.9937C4.38281 48.2838 4.49805 48.562 4.70316 48.7671C4.90828 48.9722 5.18648 49.0874 5.47656 49.0874H6.74549V62.1687C6.74549 62.4588 6.86072 62.737 7.06584 62.9421C7.27096 63.1472 7.54916 63.2624 7.83924 63.2624H20.9205V64.5312C20.9205 64.8213 21.0357 65.0995 21.2408 65.3046C21.446 65.5098 21.7242 65.625 22.0142 65.625C22.3043 65.625 22.5825 65.5098 22.7876 65.3046C22.9928 65.0995 23.108 64.8213 23.108 64.5312V63.2623H35.0955V64.5312C35.0955 64.8213 35.2107 65.0995 35.4158 65.3046C35.621 65.5098 35.8992 65.625 36.1892 65.625C36.4793 65.625 36.7575 65.5098 36.9626 65.3046C37.1678 65.0995 37.283 64.8213 37.283 64.5312V63.2623H49.2705V64.5312C49.2705 64.8213 49.3857 65.0995 49.5908 65.3046C49.796 65.5098 50.0742 65.625 50.3642 65.625C50.6543 65.625 50.9325 65.5098 51.1376 65.3046C51.3428 65.0995 51.458 64.8213 51.458 64.5312V63.2623H64.5392C64.8264 63.2579 65.1003 63.1406 65.3017 62.936C65.5032 62.7313 65.6161 62.4557 65.6161 62.1685C65.6161 61.8813 65.5031 61.6057 65.3016 61.401C65.1001 61.1964 64.8262 61.0793 64.5391 61.0748Z" fill="white"/><path d="M19.6406 45.7812H28.3906C28.6807 45.7812 28.9589 45.666 29.164 45.4609C29.3691 45.2558 29.4844 44.9776 29.4844 44.6875V25C29.4844 24.7099 29.3691 24.4317 29.164 24.2266C28.9589 24.0215 28.6807 23.9062 28.3906 23.9062H19.6406C19.3505 23.9062 19.0723 24.0215 18.8672 24.2266C18.6621 24.4317 18.5469 24.7099 18.5469 25V44.6875C18.5469 44.9776 18.6621 45.2558 18.8672 45.4609C19.0723 45.666 19.3505 45.7812 19.6406 45.7812ZM20.7344 26.0938H27.2969V43.5938H20.7344V26.0938Z" fill="#3A59FC"/><path d="M33.8594 15.1521C33.5693 15.1521 33.2911 15.2673 33.086 15.4725C32.8809 15.6776 32.7656 15.9558 32.7656 16.2458V44.6833C32.7656 44.9734 32.8809 45.2516 33.086 45.4567C33.2911 45.6619 33.5693 45.7771 33.8594 45.7771H42.6094C42.8995 45.7771 43.1777 45.6619 43.3828 45.4567C43.5879 45.2516 43.7031 44.9734 43.7031 44.6833V16.2458C43.7031 15.9558 43.5879 15.6776 43.3828 15.4725C43.1777 15.2673 42.8995 15.1521 42.6094 15.1521H33.8594ZM41.5156 43.5896H34.9531V17.3396H41.5156V43.5896Z" fill="#3A59FC"/><path d="M46.9844 25V44.6875C46.9844 44.9776 47.0996 45.2558 47.3047 45.4609C47.5098 45.666 47.788 45.7812 48.0781 45.7812H56.8281C57.1182 45.7812 57.3964 45.666 57.6015 45.4609C57.8066 45.2558 57.9219 44.9776 57.9219 44.6875V25C57.9219 24.7099 57.8066 24.4317 57.6015 24.2266C57.3964 24.0215 57.1182 23.9062 56.8281 23.9062H48.0781C47.788 23.9062 47.5098 24.0215 47.3047 24.2266C47.0996 24.4317 46.9844 24.7099 46.9844 25ZM49.1719 26.0938H55.7344V43.5938H49.1719V26.0938Z" fill="#3A59FC"/></svg>