<svg width="70" height="70" viewBox="0 0 70 70" fill="none" xmlns="http://www.w3.org/2000/svg">
<g clip-path="url(#clip0_198_2)">
<path fill-rule="evenodd" clip-rule="evenodd" d="M51.2228 5.83021H18.7385C16.9444 5.83021 15.49 7.13534 15.49 8.74531V61.2172C15.49 62.8273 16.9444 64.1323 18.7385 64.1323H51.2228C53.017 64.1323 54.4713 62.8273 54.4713 61.2172V8.74531C54.4713 7.13534 53.017 5.83021 51.2228 5.83021ZM18.7385 0C13.3563 0 8.99316 3.9154 8.99316 8.74531V61.2172C8.99316 66.0472 13.3563 69.9625 18.7385 69.9625H51.2228C56.6051 69.9625 60.9682 66.0472 60.9682 61.2172V8.74531C60.9682 3.9154 56.6051 0 51.2228 0H18.7385Z" fill="#3A59FC"/>
</g>
<path d="M38.251 54.4886C38.251 56.6379 36.9078 58.3802 35.251 58.3802C33.5941 58.3802 32.251 56.6379 32.251 54.4886C32.251 52.3394 33.5941 50.597 35.251 50.597C36.9078 50.597 38.251 52.3394 38.251 54.4886Z" fill="#3A59FC"/>
<defs>
<clipPath id="clip0_198_2">
<rect width="51.975" height="69.9625" fill="white" transform="translate(8.99316)"/>
</clipPath>
</defs>
</svg>
