<svg width="70" height="70" viewBox="0 0 70 70" fill="none" xmlns="http://www.w3.org/2000/svg">
<g clip-path="url(#clip0_198_7)">
<path d="M25.623 56.8333H31.873V62.6666H38.123V56.8333H44.373V62.6666H47.498C49.224 62.6666 50.623 63.9724 50.623 65.5833C50.623 67.1941 49.224 68.4999 47.498 68.4999H22.498C20.7721 68.4999 19.373 67.1941 19.373 65.5833C19.373 63.9724 20.7721 62.6666 22.498 62.6666H25.623V56.8333Z" fill="#3A59FC"/>
</g>
<path fill-rule="evenodd" clip-rule="evenodd" d="M8.07452 16.9974V43.6641C8.07452 47.3459 11.088 50.3307 14.8053 50.3307H55.1899C58.9072 50.3307 61.9207 47.3459 61.9207 43.6641V16.9974C61.9207 13.3155 58.9072 10.3307 55.1899 10.3307H14.8053C11.088 10.3307 8.07452 13.3155 8.07452 16.9974ZM1.34375 43.6641C1.34375 51.0278 7.3707 56.9974 14.8053 56.9974H55.1899C62.6244 56.9974 68.6514 51.0278 68.6514 43.6641V16.9974C68.6514 9.63361 62.6244 3.66406 55.1899 3.66406L14.8053 3.66407C7.3707 3.66407 1.34375 9.63361 1.34375 16.9974L1.34375 43.6641Z" fill="#3A59FC"/>
<g clip-path="url(#clip1_198_7)">
<path d="M20.4153 22.1667C18.8045 22.1667 17.4986 23.4726 17.4986 25.0834C17.4986 26.6943 18.8045 28.0001 20.4153 28.0001H40.832C42.4429 28.0001 43.7486 26.6943 43.7486 25.0834C43.7486 23.4726 42.4429 22.1667 40.832 22.1667H20.4153Z" fill="#3A59FC"/>
<path d="M20.4153 33.8334C18.8045 33.8334 17.4986 35.1392 17.4986 36.75C17.4986 38.3609 18.8045 39.6667 20.4153 39.6667H26.2486C27.8595 39.6667 29.1653 38.3609 29.1653 36.75C29.1653 35.1392 27.8595 33.8334 26.2486 33.8334H20.4153Z" fill="#3A59FC"/>
</g>
<defs>
<clipPath id="clip0_198_7">
<rect width="35" height="14" fill="white" transform="translate(17.499 53.6666)"/>
</clipPath>
<clipPath id="clip1_198_7">
<rect width="28" height="18.6667" fill="white" transform="translate(16.3326 21)"/>
</clipPath>
</defs>
</svg>
