<svg width="36" height="37" viewBox="0 0 36 37" fill="none" xmlns="http://www.w3.org/2000/svg">
<path d="M13.5 5.58984V3.33984M7.59099 7.93083L6 6.33984M7.59099 19.8398L6 21.4308M19.5 7.93083L21.091 6.33984M5.25 13.8398H3M23.7967 24.6242L20.0591 31.5654C19.6321 32.3583 19.4186 32.7548 19.1618 32.8551C18.9388 32.9421 18.6878 32.9175 18.486 32.7889C18.2534 32.6408 18.1208 32.2104 17.8557 31.3497L12.6678 14.5077C12.4512 13.8046 12.3429 13.453 12.43 13.2156C12.5059 13.0087 12.6689 12.8457 12.8757 12.7698C13.1132 12.6827 13.4648 12.791 14.1679 13.0076L31.0098 18.1956C31.8705 18.4607 32.3009 18.5933 32.4491 18.8258C32.5777 19.0276 32.6023 19.2787 32.5152 19.5016C32.4149 19.7585 32.0185 19.972 31.2255 20.399L24.2844 24.1365C24.1665 24.2 24.1076 24.2317 24.056 24.2725C24.0102 24.3086 23.9688 24.35 23.9327 24.3958C23.8919 24.4474 23.8602 24.5063 23.7967 24.6242Z" stroke="url(#paint0_linear_346_24214)" stroke-width="2.5" stroke-linecap="round" stroke-linejoin="round"/>
<defs>
<linearGradient id="paint0_linear_346_24214" x1="2.16492" y1="3.33984" x2="40.2853" y2="35.6539" gradientUnits="userSpaceOnUse">
<stop stop-color="#2D5DFF"/>
<stop offset="1" stop-color="#F51AD6"/>
</linearGradient>
</defs>
</svg>
