<svg width="54" height="54" viewBox="0 0 54 54" fill="none" xmlns="http://www.w3.org/2000/svg">
<path d="M51.3844 1.95972H2.61563C1.92192 1.95972 1.25662 2.23529 0.766099 2.72582C0.275574 3.21634 0 3.88164 0 4.57534L0 38.0553C0 38.7491 0.275574 39.4143 0.766099 39.9049C1.25662 40.3954 1.92192 40.671 2.61563 40.671H20.7225L17.6428 45.7335H14.0231C13.7993 45.7335 13.5847 45.8224 13.4265 45.9806C13.2683 46.1388 13.1794 46.3534 13.1794 46.5772V51.2432C13.1794 51.4669 13.2683 51.6815 13.4265 51.8398C13.5847 51.998 13.7993 52.0869 14.0231 52.0869H39.9769C40.2007 52.0869 40.4153 51.998 40.5735 51.8398C40.7317 51.6815 40.8206 51.4669 40.8206 51.2432V46.5603C40.8206 46.3366 40.7317 46.122 40.5735 45.9637C40.4153 45.8055 40.2007 45.7166 39.9769 45.7166H36.3572L33.2775 40.6541H51.3844C52.0752 40.6541 52.7379 40.3809 53.228 39.894C53.718 39.4071 53.9955 38.7461 54 38.0553V4.57534C54 3.88164 53.7244 3.21634 53.2339 2.72582C52.7434 2.23529 52.0781 1.95972 51.3844 1.95972ZM39.1584 47.3788V50.4078H14.8416V47.3788H39.1584ZM34.4419 45.7419H19.5581L22.6378 40.6794H31.3622L34.4419 45.7419ZM52.3631 38.0553C52.3631 38.3149 52.26 38.5639 52.0765 38.7474C51.8929 38.931 51.644 39.0341 51.3844 39.0341H2.61563C2.35604 39.0341 2.1071 38.931 1.92354 38.7474C1.73999 38.5639 1.63688 38.3149 1.63688 38.0553V32.9928H52.3631V38.0553ZM52.3631 31.3053H1.63688V4.57534C1.63688 4.31576 1.73999 4.06681 1.92354 3.88326C2.1071 3.69971 2.35604 3.59659 2.61563 3.59659H51.3844C51.644 3.59659 51.8929 3.69971 52.0765 3.88326C52.26 4.06681 52.3631 4.31576 52.3631 4.57534V31.3053Z" fill="white"/>
<path d="M27.0013 38.6061C27.5187 38.6061 28.0244 38.4527 28.4545 38.1653C28.8846 37.8779 29.2199 37.4694 29.4179 36.9914C29.6158 36.5135 29.6676 35.9876 29.5667 35.4802C29.4658 34.9728 29.2167 34.5068 28.8509 34.141C28.4851 33.7752 28.019 33.5261 27.5116 33.4251C27.0042 33.3242 26.4783 33.376 26.0004 33.574C25.5224 33.7719 25.1139 34.1072 24.8265 34.5373C24.5391 34.9675 24.3857 35.4732 24.3857 35.9905C24.3857 36.6842 24.6613 37.3495 25.1518 37.84C25.6423 38.3305 26.3076 38.6061 27.0013 38.6061ZM27.0013 35.0202C27.1953 35.0202 27.3848 35.0778 27.546 35.1857C27.7071 35.2937 27.8325 35.447 27.9064 35.6264C27.9802 35.8057 27.9991 36.0029 27.9606 36.193C27.9222 36.3831 27.8281 36.5575 27.6904 36.694C27.5527 36.8305 27.3775 36.9231 27.1871 36.9599C26.9967 36.9967 26.7996 36.9761 26.6209 36.9007C26.4422 36.8254 26.29 36.6986 26.1834 36.5365C26.0769 36.3745 26.0209 36.1844 26.0226 35.9905C26.0248 35.7324 26.1289 35.4856 26.3122 35.3039C26.4955 35.1221 26.7432 35.0202 27.0013 35.0202Z" fill="white"/>
<path d="M37.2213 24.9169H36.4282V16.0322C36.3825 15.8497 36.2771 15.6878 36.1288 15.5721C35.9806 15.4564 35.7979 15.3935 35.6098 15.3935C35.4217 15.3935 35.239 15.4564 35.0907 15.5721C34.9424 15.6878 34.8371 15.8497 34.7913 16.0322V24.9169H31.5851V19.2722C31.5394 19.0897 31.434 18.9278 31.2857 18.8121C31.1374 18.6964 30.9547 18.6335 30.7667 18.6335C30.5786 18.6335 30.3959 18.6964 30.2476 18.8121C30.0993 18.9278 29.9939 19.0897 29.9482 19.2722V24.9169H26.7335V17.1206C26.6878 16.9382 26.5824 16.7762 26.4342 16.6605C26.2859 16.5448 26.1032 16.482 25.9151 16.482C25.727 16.482 25.5443 16.5448 25.396 16.6605C25.2478 16.7762 25.1424 16.9382 25.0967 17.1206V24.9169H21.9326V20.8837C21.8869 20.7013 21.7815 20.5394 21.6332 20.4237C21.4849 20.308 21.3022 20.2451 21.1142 20.2451C20.9261 20.2451 20.7434 20.308 20.5951 20.4237C20.4468 20.5394 20.3414 20.7013 20.2957 20.8837V24.9169H17.5873V12.2606C17.5416 12.0782 17.4362 11.9162 17.2879 11.8005C17.1396 11.6848 16.9569 11.622 16.7688 11.622C16.5808 11.622 16.3981 11.6848 16.2498 11.8005C16.1015 11.9162 15.9961 12.0782 15.9504 12.2606V25.7606C15.9504 25.9844 16.0393 26.199 16.1975 26.3572C16.3558 26.5155 16.5704 26.6044 16.7942 26.6044H37.2213C37.4038 26.5586 37.5657 26.4533 37.6814 26.305C37.7971 26.1567 37.86 25.974 37.86 25.7859C37.86 25.5978 37.7971 25.4152 37.6814 25.2669C37.5657 25.1186 37.4038 25.0132 37.2213 24.9675V24.9169Z" fill="white"/>
<path d="M20.0085 16.5466C20.1151 16.5478 20.2209 16.5275 20.3195 16.4869C20.4181 16.4463 20.5074 16.3863 20.5823 16.3104L24.9276 11.9735L28.6907 14.7747C28.8503 14.8885 29.0446 14.9432 29.2402 14.9293C29.4357 14.9155 29.6203 14.834 29.7623 14.6988L33.2217 11.231C33.2213 11.4463 33.3032 11.6535 33.4506 11.8104C33.5981 11.9673 33.7999 12.0618 34.0148 12.0747C34.2287 12.0753 34.4348 11.9945 34.5915 11.8488C34.7481 11.7032 34.8436 11.5034 34.8585 11.2901L34.9345 9.17224C34.9418 9.11058 34.9418 9.04827 34.9345 8.98662C34.9384 8.94452 34.9384 8.90215 34.9345 8.86005C34.9345 8.86005 34.8838 8.79255 34.867 8.75037C34.8373 8.6925 34.8005 8.63863 34.7573 8.59005C34.636 8.47509 34.4833 8.39874 34.3185 8.37068C34.2652 8.36597 34.2116 8.36597 34.1582 8.37068L31.9476 8.42974C31.7652 8.47547 31.6032 8.58084 31.4875 8.72912C31.3718 8.8774 31.309 9.0601 31.309 9.24818C31.309 9.43626 31.3718 9.61896 31.4875 9.76724C31.6032 9.91552 31.7652 10.0209 31.9476 10.0666H32.0657L29.1042 13.0282L25.3157 10.2354C25.1561 10.1216 24.9618 10.0669 24.7663 10.0808C24.5708 10.0946 24.3861 10.1761 24.2442 10.3113L19.4095 15.1797C19.3073 15.2985 19.2402 15.4433 19.2157 15.598C19.1911 15.7527 19.2101 15.9111 19.2706 16.0557C19.331 16.2002 19.4305 16.325 19.5578 16.4162C19.6852 16.5074 19.8354 16.5613 19.9917 16.5719L20.0085 16.5466Z" fill="white"/>
</svg>
