<svg width="24" height="24" viewBox="0 0 24 24" xmlns="http://www.w3.org/2000/svg"><path fill-rule="evenodd" clip-rule="evenodd" d="M20.8 6.4C21.1314 6.84183 21.0418 7.46863 20.6 7.8L14.4 12.45L14.4 12.45C12.9777 13.5167 11.0223 13.5167 9.60001 12.45L9.6 12.45L3.4 7.80005C2.95817 7.46868 2.86863 6.84188 3.19999 6.40005C3.53136 5.95822 4.15816 5.86868 4.59999 6.20005L10.8 10.85C10.8 10.85 10.8 10.85 10.8 10.85C11.5111 11.3833 12.4889 11.3833 13.2 10.85C13.2 10.85 13.2 10.85 13.2 10.85L19.4 6.2C19.8418 5.86863 20.4686 5.95817 20.8 6.4Z"/><path fill-rule="evenodd" clip-rule="evenodd" d="M5 6C4.44772 6 4 6.44772 4 7V17C4 17.5523 4.44772 18 5 18H19C19.5523 18 20 17.5523 20 17V7C20 6.44772 19.5523 6 19 6H5ZM2 7C2 5.34315 3.34315 4 5 4H19C20.6569 4 22 5.34315 22 7V17C22 18.6569 20.6569 20 19 20H5C3.34315 20 2 18.6569 2 17V7Z"/></svg>