<svg width="24" height="24" viewBox="0 0 24 24" xmlns="http://www.w3.org/2000/svg"><path fill-rule="evenodd" clip-rule="evenodd" d="M14.4726 3.6189L5.17274 12.9188C4.33076 13.7606 3.85764 14.9025 3.85754 16.0931C3.85744 17.2838 4.33033 18.4257 5.17218 19.2677C6.01402 20.1097 7.15586 20.5827 8.34651 20.5828C9.53715 20.5829 10.6791 20.11 11.521 19.2682L20.8247 9.96325C21.1874 9.60052 21.7755 9.60048 22.1382 9.96316C22.501 10.3258 22.501 10.9139 22.1383 11.2766L12.8345 20.5817C11.6442 21.7718 10.0297 22.4405 8.34636 22.4404C6.66306 22.4402 5.04876 21.7714 3.85859 20.581C2.66842 19.3907 1.99986 17.7763 2 16.093C2.00014 14.4097 2.66893 12.7954 3.85926 11.6053C3.85928 11.6053 3.85925 11.6053 3.85926 11.6053L13.1704 2.29409C14.0253 1.45829 15.1752 0.993348 16.3707 1.00007C17.5662 1.0068 18.7108 1.48469 19.5562 2.33005C20.4016 3.17541 20.8795 4.32003 20.8862 5.51553C20.8929 6.71102 20.4279 7.86095 19.5921 8.71576L19.5849 8.72319L10.6451 17.6641C10.1321 18.1769 9.43622 18.465 8.7109 18.4648C7.98559 18.4647 7.29005 18.1764 6.7773 17.6634C6.26455 17.1504 5.97659 16.4547 5.97676 15.7294C5.97694 15.0041 6.26518 14.3087 6.77808 13.7959C6.77813 13.7959 6.77802 13.796 6.77808 13.7959L14.6218 5.95216C14.9846 5.58945 15.5726 5.58945 15.9353 5.95216C16.298 6.31487 16.298 6.90293 15.9353 7.26564L8.09156 15.1094C7.927 15.2739 7.83436 15.4972 7.8343 15.7298C7.83425 15.9625 7.92662 16.1856 8.0911 16.3502C8.25557 16.5148 8.47869 16.6072 8.71135 16.6073C8.94392 16.6074 9.16699 16.5151 9.33153 16.3507C9.3316 16.3506 9.33146 16.3508 9.33153 16.3507L18.2673 7.41367C18.7591 6.90888 19.0326 6.23083 19.0287 5.52597C19.0247 4.8195 18.7423 4.14309 18.2427 3.64353C17.7432 3.14396 17.0668 2.86156 16.3603 2.85758C15.6554 2.85362 14.9774 3.12713 14.4726 3.6189Z"/></svg>