<?xml version="1.0" encoding="utf-8"?><svg viewBox="0 0 34 34" xmlns="http://www.w3.org/2000/svg" xmlns:xlink="http://www.w3.org/1999/xlink"><style>:root>svg{display:none}:root>svg:target{display:block}</style><svg viewBox="0 0 24 24" id="arrow-down-1" xmlns="http://www.w3.org/2000/svg"><path fill-rule="evenodd" clip-rule="evenodd" d="M5.692 9.093a.625.625 0 01.881-.068L12 13.677l5.427-4.652a.625.625 0 01.813.95l-5.833 5c-.234.2-.58.2-.814 0l-5.833-5a.625.625 0 01-.068-.882z"/></svg><svg viewBox="0 0 24 24" id="arrow-type-2" xmlns="http://www.w3.org/2000/svg"><path fill-rule="evenodd" clip-rule="evenodd" d="M15.414 6.293a1 1 0 00-1.414 0L8.293 12 14 17.707a1 1 0 001.414-1.414L11.121 12l4.293-4.293a1 1 0 000-1.414z"/></svg><svg viewBox="0 0 18 18" id="arrow-type-3" xmlns="http://www.w3.org/2000/svg"><path fill-rule="evenodd" clip-rule="evenodd" d="M3.966 6.22a.75.75 0 011.06 0l3.97 3.97 3.97-3.97a.75.75 0 111.06 1.06l-4.5 4.5a.75.75 0 01-1.06 0l-4.5-4.5a.75.75 0 010-1.06z"/></svg><svg viewBox="0 0 30 30" id="close" xmlns="http://www.w3.org/2000/svg"><path fill-rule="evenodd" clip-rule="evenodd" d="M6.952 6.951a1.2 1.2 0 011.697 0L15 13.303l6.352-6.352a1.2 1.2 0 111.697 1.698L16.697 15l6.352 6.352a1.2 1.2 0 11-1.697 1.697L15 16.697 8.65 23.05a1.2 1.2 0 11-1.697-1.697L13.303 15 6.952 8.649a1.2 1.2 0 010-1.698z"/></svg><svg viewBox="0 0 24 24" id="email" xmlns="http://www.w3.org/2000/svg"><path fill-rule="evenodd" clip-rule="evenodd" d="M20.8 6.4a1 1 0 01-.2 1.4l-6.2 4.65a4 4 0 01-4.8 0L3.4 7.8a1 1 0 011.2-1.6l6.2 4.65a2 2 0 002.4 0l6.2-4.65a1 1 0 011.4.2z"/><path fill-rule="evenodd" clip-rule="evenodd" d="M5 6a1 1 0 00-1 1v10a1 1 0 001 1h14a1 1 0 001-1V7a1 1 0 00-1-1H5zM2 7a3 3 0 013-3h14a3 3 0 013 3v10a3 3 0 01-3 3H5a3 3 0 01-3-3V7z"/></svg><svg viewBox="0 0 24 24" id="file-attach" xmlns="http://www.w3.org/2000/svg"><path fill-rule="evenodd" clip-rule="evenodd" d="M14.473 3.619l-9.3 9.3a4.49 4.49 0 106.348 6.35l9.304-9.306a.929.929 0 011.313 1.314l-9.304 9.305a6.347 6.347 0 01-8.975-8.977l9.311-9.31a4.541 4.541 0 016.422 6.42l-.007.008-8.94 8.941a2.735 2.735 0 01-3.867-3.868l7.844-7.844a.929.929 0 011.313 1.314l-7.843 7.843a.878.878 0 001.24 1.242l8.935-8.937a2.684 2.684 0 00-3.794-3.795z"/></svg><svg viewBox="0 0 34 34" id="menu-close" xmlns="http://www.w3.org/2000/svg"><path fill-rule="evenodd" clip-rule="evenodd" d="M4.908 4.908C6.983 2.833 10.322 2.833 17 2.833c6.678 0 10.017 0 12.092 2.075 2.075 2.075 2.075 5.414 2.075 12.092 0 6.678 0 10.017-2.075 12.092-2.075 2.075-5.414 2.075-12.092 2.075-6.678 0-10.017 0-12.092-2.075C2.833 27.017 2.833 23.678 2.833 17c0-6.678 0-10.017 2.075-12.092zM18.414 17l6.01 6.01-1.414 1.415-6.01-6.01-6.01 6.01-1.415-1.415 6.01-6.01-6.01-6.01 1.415-1.415 6.01 6.01 6.01-6.01 1.415 1.415-6.01 6.01z"/></svg><svg viewBox="0 0 34 34" id="menu-open" xmlns="http://www.w3.org/2000/svg"><path fill-rule="evenodd" clip-rule="evenodd" d="M4.908 29.092c2.075 2.075 5.414 2.075 12.092 2.075 6.678 0 10.017 0 12.092-2.075 2.075-2.075 2.075-5.414 2.075-12.092 0-6.678 0-10.017-2.075-12.092C27.017 2.833 23.678 2.833 17 2.833c-6.678 0-10.017 0-12.092 2.075C2.833 6.983 2.833 10.322 2.833 17c0 6.678 0 10.017 2.075 12.092zm21.654-6.425c0 .586-.475 1.062-1.062 1.062h-17a1.063 1.063 0 010-2.125h17c.587 0 1.063.476 1.063 1.063zM25.5 18.062a1.063 1.063 0 000-2.125h-17a1.063 1.063 0 000 2.126h17zm1.063-6.729c0 .587-.476 1.063-1.063 1.063h-17a1.063 1.063 0 010-2.125h17c.587 0 1.063.475 1.063 1.062z"/></svg><svg viewBox="0 0 24 24" id="phone" xmlns="http://www.w3.org/2000/svg"><path d="M17.4 22A15.42 15.42 0 012 6.6 4.6 4.6 0 016.6 2a3.94 3.94 0 01.77.07c.245.036.486.097.72.18a1 1 0 01.65.75l1.37 6a1 1 0 01-.26.92c-.13.14-.14.15-1.37.79a9.91 9.91 0 004.87 4.89c.65-1.24.66-1.25.8-1.38a1 1 0 01.92-.26l6 1.37a1 1 0 01.72.65 4.338 4.338 0 01.25 1.49A4.6 4.6 0 0117.4 22zM6.6 4A2.61 2.61 0 004 6.6 13.41 13.41 0 0017.4 20a2.61 2.61 0 002.6-2.6v-.33L15.36 16l-.29.55c-.45.87-.78 1.5-1.62 1.16a11.85 11.85 0 01-7.18-7.21c-.36-.78.32-1.14 1.18-1.59L8 8.64 6.93 4H6.6z"/></svg><svg viewBox="0 0 24 24" id="sc-dribbble" xmlns="http://www.w3.org/2000/svg"><path d="M12.005 4c-1.089 0-2.13.208-3.122.625-.95.406-1.796.98-2.538 1.722a8.012 8.012 0 00-1.72 2.54A8.002 8.002 0 004 12.01c0 1.09.208 2.13.624 3.124.406.95.98 1.797 1.721 2.54a8.006 8.006 0 002.538 1.721 7.989 7.989 0 003.122.625c1.089 0 2.13-.208 3.122-.625a8.005 8.005 0 002.537-1.722 8.012 8.012 0 001.722-2.54 8 8 0 00.624-3.123c0-1.09-.213-2.125-.64-3.108a7.932 7.932 0 00-1.713-2.547A7.927 7.927 0 0015.11 4.64 7.702 7.702 0 0012.005 4zm5.3 3.7a6.644 6.644 0 011.128 1.995c.262.732.398 1.487.408 2.267a16.13 16.13 0 00-4.755-.224l-.16-.353c-.075-.192-.197-.47-.368-.833l-.08-.16a9.175 9.175 0 003.826-2.691zm-5.3-2.515c.832 0 1.638.147 2.417.441.78.294 1.484.718 2.114 1.274a7.646 7.646 0 01-1.617 1.49 7.885 7.885 0 01-1.97.977 35.706 35.706 0 00-2.545-4.005 7.283 7.283 0 011.601-.177zm-2.914.641a43.781 43.781 0 012.546 3.957c-2.07.545-4.179.823-6.324.833a6.867 6.867 0 011.329-2.835 6.724 6.724 0 012.45-1.955zm-3.922 6.2v-.208c2.39.01 4.733-.315 7.028-.977.256.512.443.897.56 1.153l-.272.08a10.835 10.835 0 00-5.555 4.518c-.566-.63-1-1.338-1.305-2.123a6.704 6.704 0 01-.456-2.443zm6.836 6.84a6.827 6.827 0 01-2.217-.368 6.646 6.646 0 01-1.978-1.073 9.148 9.148 0 012.274-2.644 9.451 9.451 0 013.09-1.634l.048-.016a28.425 28.425 0 011.457 5.19 6.764 6.764 0 01-2.674.546zm3.826-1.169a28.771 28.771 0 00-1.328-4.886 9.896 9.896 0 014.258.288 6.77 6.77 0 01-.984 2.604 6.79 6.79 0 01-1.946 1.994z"/></svg><svg viewBox="0 0 24 24" id="sc-facebook" xmlns="http://www.w3.org/2000/svg"><path d="M13.014 9.518V7.513c0-.278.096-.516.289-.714a.945.945 0 01.704-.297h1.01V4h-2.003a2.94 2.94 0 00-1.506.401c-.459.267-.825.63-1.097 1.09-.272.46-.409.963-.409 1.508v2.519H8v2.502h2.002v8.036h3.012V12.02h2.003l.993-2.502h-2.996z"/></svg><svg viewBox="0 0 24 24" id="sc-instagram" xmlns="http://www.w3.org/2000/svg"><path d="M15.015 4H9.01c-.907 0-1.75.23-2.53.689a4.82 4.82 0 00-1.793 1.794A4.819 4.819 0 004 8.998v6.008c0 .908.23 1.751.688 2.53a4.82 4.82 0 001.794 1.795c.779.46 1.622.689 2.53.689h6.003a4.81 4.81 0 002.513-.689 4.819 4.819 0 001.794-1.794c.459-.78.688-1.623.688-2.531V8.998a4.82 4.82 0 00-.688-2.515 4.82 4.82 0 00-1.794-1.794A4.81 4.81 0 0015.015 4zm3.49 11.006a3.42 3.42 0 01-.472 1.754 3.53 3.53 0 01-1.273 1.281 3.371 3.371 0 01-1.745.473H9.01a3.4 3.4 0 01-1.761-.473 3.549 3.549 0 01-1.273-1.273 3.406 3.406 0 01-.472-1.762V8.998c0-.63.157-1.212.472-1.746a3.53 3.53 0 011.281-1.274 3.414 3.414 0 011.753-.472h6.004c.63 0 1.211.157 1.745.472.534.316.958.74 1.273 1.274.315.534.472 1.116.472 1.746v6.008zm-6.5-7.001c-.726 0-1.396.179-2.01.537-.613.357-1.099.843-1.456 1.457a3.925 3.925 0 00-.537 2.011c0 .726.18 1.396.537 2.01.357.615.843 1.1 1.457 1.458a3.919 3.919 0 002.009.537 3.92 3.92 0 002.01-.537 3.975 3.975 0 001.456-1.457 3.926 3.926 0 00.537-2.011c0-.726-.18-1.396-.537-2.01a3.976 3.976 0 00-1.457-1.458 3.92 3.92 0 00-2.009-.537zm0 6.504c-.448 0-.865-.112-1.249-.336a2.496 2.496 0 01-.912-.913 2.438 2.438 0 01-.337-1.25c0-.449.113-.865.337-1.25.224-.384.528-.688.912-.913.384-.224.8-.336 1.249-.336.448 0 .864.112 1.249.336.384.225.688.529.912.913.224.385.337.801.337 1.25 0 .449-.113.865-.337 1.25a2.496 2.496 0 01-.912.913c-.384.224-.8.336-1.249.336zm4.307-7.337c.15 0 .274.05.376.152a.512.512 0 01.152.377c0 .15-.053.277-.16.384a.515.515 0 01-.376.16.515.515 0 01-.377-.16.525.525 0 01-.16-.384c0-.15.054-.275.16-.377a.538.538 0 01.385-.152z"/></svg><svg viewBox="0 0 24 24" id="sc-twitter" xmlns="http://www.w3.org/2000/svg"><path d="M5.032 6l5.073 6.77L5 18.29h1.152l4.465-4.833 3.6 4.833h3.905l-5.345-7.153L17.514 6h-1.152l-4.097 4.449L8.937 6H5.032zm1.696.848h1.793l7.921 10.594H14.65L6.728 6.848z"/></svg><svg viewBox="0 0 24 24" id="triangle-1" xmlns="http://www.w3.org/2000/svg"><path d="M20.409 9.353a2.998 2.998 0 010 5.294L7.597 21.614C5.534 22.736 3 21.276 3 18.968V5.033c0-2.31 2.534-3.769 4.597-2.648l12.812 6.968z"/></svg></svg>