<?xml version="1.0" encoding="utf-8"?><svg viewBox="0 0 30 30" xmlns="http://www.w3.org/2000/svg" xmlns:xlink="http://www.w3.org/1999/xlink"><style>:root>svg{display:none}:root>svg:target{display:block}</style><svg viewBox="0 0 24 24" id="arrow-down-1" xmlns="http://www.w3.org/2000/svg"><path fill-rule="evenodd" clip-rule="evenodd" d="M5.692 9.093a.625.625 0 01.881-.068L12 13.677l5.427-4.652a.625.625 0 01.813.95l-5.833 5c-.234.2-.58.2-.814 0l-5.833-5a.625.625 0 01-.068-.882z"/></svg><svg viewBox="0 0 30 30" id="close" xmlns="http://www.w3.org/2000/svg"><path fill-rule="evenodd" clip-rule="evenodd" d="M6.952 6.951a1.2 1.2 0 011.697 0L15 13.303l6.352-6.352a1.2 1.2 0 111.697 1.698L16.697 15l6.352 6.352a1.2 1.2 0 11-1.697 1.697L15 16.697 8.65 23.05a1.2 1.2 0 11-1.697-1.697L13.303 15 6.952 8.649a1.2 1.2 0 010-1.698z"/></svg><svg viewBox="0 0 30 30" id="menu-open" xmlns="http://www.w3.org/2000/svg"><path d="M6 10h18v2H6v-2zM6 14h13v2H6v-2zM6 18h18v2H6v-2z"/></svg><svg viewBox="0 0 24 24" id="triangle-1" xmlns="http://www.w3.org/2000/svg"><path d="M20.409 9.353a2.998 2.998 0 010 5.294L7.597 21.614C5.534 22.736 3 21.276 3 18.968V5.033c0-2.31 2.534-3.769 4.597-2.648l12.812 6.968z"/></svg></svg>