<svg width="34" height="34" viewBox="0 0 34 34" xmlns="http://www.w3.org/2000/svg"><path fill-rule="evenodd" clip-rule="evenodd" d="M4.90803 4.90797C6.98269 2.83331 10.3218 2.83331 17 2.83331C23.6783 2.83331 27.0174 2.83331 29.092 4.90797C31.1667 6.98263 31.1667 10.3217 31.1667 17C31.1667 23.6782 31.1667 27.0173 29.092 29.092C27.0174 31.1666 23.6783 31.1666 17 31.1666C10.3218 31.1666 6.98269 31.1666 4.90803 29.092C2.83337 27.0173 2.83337 23.6782 2.83337 17C2.83337 10.3217 2.83337 6.98263 4.90803 4.90797ZM18.4142 17L24.4246 23.0104L23.0103 24.4246L17 18.4142L10.9896 24.4247L9.57535 23.0104L15.5858 17L9.57532 10.9896L10.9895 9.57538L17 15.5858L23.0104 9.57541L24.4246 10.9896L18.4142 17Z"/></svg>