<svg width="24" height="24" viewBox="0 0 24 24" xmlns="http://www.w3.org/2000/svg"><path d="M12.005 4C10.9163 4 9.87567 4.20826 8.88305 4.62478C7.93312 5.03062 7.08726 5.60467 6.34546 6.34693C5.60367 7.08919 5.02998 7.93558 4.62439 8.8861C4.20813 9.87934 4 10.9206 4 12.01C4 13.0994 4.20813 14.1407 4.62439 15.1339C5.02998 16.0844 5.60367 16.9308 6.34546 17.6731C7.08726 18.4153 7.93312 18.9894 8.88305 19.3952C9.87567 19.8117 10.9163 20.02 12.005 20.02C13.0937 20.02 14.1343 19.8117 15.1269 19.3952C16.0769 18.9894 16.9227 18.4153 17.6645 17.6731C18.4063 16.9308 18.98 16.0844 19.3856 15.1339C19.8019 14.1407 20.01 13.0994 20.01 12.01C20.01 10.9206 19.7965 9.88468 19.3696 8.90212C18.964 7.94092 18.393 7.09186 17.6565 6.35494C16.9201 5.61802 16.0715 5.04664 15.1109 4.6408C14.129 4.2136 13.0937 4 12.005 4ZM17.3043 7.70062C17.7953 8.2987 18.1715 8.96353 18.433 9.69511C18.6945 10.4267 18.8306 11.1823 18.8413 11.9619C17.2723 11.6522 15.6873 11.5775 14.0863 11.7377L13.9262 11.3852C13.8515 11.193 13.7287 10.9153 13.558 10.5522L13.4779 10.392C14.2251 10.1143 14.9215 9.74851 15.5672 9.29461C16.213 8.84071 16.792 8.30938 17.3043 7.70062ZM12.005 5.18548C12.8375 5.18548 13.6434 5.33233 14.4225 5.62603C15.2017 5.91973 15.9061 6.34426 16.5358 6.89962C16.0662 7.47634 15.5272 7.97296 14.9188 8.38948C14.3104 8.806 13.654 9.13174 12.9496 9.3667C12.1918 7.9783 11.3433 6.6433 10.404 5.3617C10.927 5.24422 11.4607 5.18548 12.005 5.18548ZM9.09118 5.82628C10.0091 7.0972 10.8576 8.41618 11.6368 9.78322C9.56614 10.3279 7.45816 10.6056 5.31282 10.6163C5.53696 9.56962 5.9799 8.62444 6.64165 7.78072C7.3034 6.937 8.11991 6.28552 9.09118 5.82628ZM5.16873 12.026V11.8178C7.55956 11.8284 9.90235 11.5027 12.1971 10.8405C12.4533 11.3532 12.6401 11.7377 12.7575 11.994L12.4853 12.0741C11.3326 12.4906 10.2786 13.086 9.32332 13.8603C8.36806 14.6346 7.57023 15.5451 6.92983 16.5917C6.36414 15.9616 5.9292 15.2541 5.62501 14.4691C5.32082 13.6841 5.16873 12.8697 5.16873 12.026ZM12.005 18.8666C11.2472 18.8666 10.5081 18.7437 9.78761 18.4981C9.06716 18.2525 8.40809 17.8947 7.81038 17.4248C8.39741 16.3995 9.15522 15.5184 10.0838 14.7815C11.0124 14.0445 12.0424 13.4999 13.1737 13.1474L13.2218 13.1314C13.8728 14.8188 14.3585 16.549 14.6787 18.3219C13.8248 18.685 12.9336 18.8666 12.005 18.8666ZM15.8314 17.6971C15.5325 16.031 15.0896 14.4023 14.5026 12.811C15.9435 12.5974 17.363 12.6935 18.7612 13.0994C18.6118 14.0392 18.2836 14.907 17.7766 15.7026C17.2696 16.4983 16.6212 17.1631 15.8314 17.6971Z"/></svg>