<svg width="24" height="24" viewBox="0 0 24 24" xmlns="http://www.w3.org/2000/svg"><path d="M15.0149 4H9.01113C8.1039 4 7.2607 4.22962 6.48155 4.68886C5.72374 5.12674 5.12604 5.72482 4.68843 6.4831C4.22948 7.25206 4 8.09044 4 8.99824V15.0057C4 15.9135 4.22948 16.7573 4.68843 17.5369C5.12604 18.2952 5.72374 18.8933 6.48155 19.3311C7.2607 19.7904 8.1039 20.02 9.01113 20.02H15.0149C15.9221 20.02 16.76 19.7904 17.5284 19.3311C18.2863 18.8933 18.884 18.2952 19.3216 17.5369C19.7805 16.7573 20.01 15.9135 20.01 15.0057V8.99824C20.01 8.09044 19.7805 7.25206 19.3216 6.4831C18.884 5.72482 18.2863 5.12674 17.5284 4.68886C16.76 4.22962 15.9221 4 15.0149 4ZM18.5051 15.0057C18.5051 15.6359 18.3476 16.2206 18.0328 16.7599C17.7179 17.2993 17.2936 17.7265 16.76 18.0415C16.2263 18.3566 15.6446 18.5141 15.0149 18.5141H9.01113C8.37073 18.5141 7.7837 18.3566 7.25003 18.0415C6.71636 17.7265 6.2921 17.3019 5.97723 16.7679C5.66237 16.2339 5.50494 15.6465 5.50494 15.0057V8.99824C5.50494 8.36812 5.66237 7.78606 5.97723 7.25206C6.2921 6.71806 6.71903 6.29353 7.25803 5.97847C7.79704 5.66341 8.3814 5.50588 9.01113 5.50588H15.0149C15.6446 5.50588 16.2263 5.66341 16.76 5.97847C17.2936 6.29353 17.7179 6.71806 18.0328 7.25206C18.3476 7.78606 18.5051 8.36812 18.5051 8.99824V15.0057ZM12.005 8.005C11.2792 8.005 10.6095 8.18389 9.99574 8.54167C9.38203 8.89945 8.89639 9.38539 8.53883 9.99949C8.18128 10.6136 8.0025 11.2838 8.0025 12.01C8.0025 12.7362 8.18128 13.4064 8.53883 14.0205C8.89639 14.6346 9.38203 15.1206 9.99574 15.4783C10.6095 15.8361 11.2792 16.015 12.005 16.015C12.7308 16.015 13.4005 15.8361 14.0143 15.4783C14.628 15.1206 15.1136 14.6346 15.4712 14.0205C15.8287 13.4064 16.0075 12.7362 16.0075 12.01C16.0075 11.2838 15.8287 10.6136 15.4712 9.99949C15.1136 9.38539 14.628 8.89945 14.0143 8.54167C13.4005 8.18389 12.7308 8.005 12.005 8.005ZM12.005 14.5091C11.5567 14.5091 11.1405 14.397 10.7562 14.1727C10.372 13.9484 10.0678 13.644 9.84365 13.2596C9.61951 12.8751 9.50744 12.4586 9.50744 12.01C9.50744 11.5614 9.61951 11.1449 9.84365 10.7604C10.0678 10.376 10.372 10.0716 10.7562 9.8473C11.1405 9.62302 11.5567 9.51088 12.005 9.51088C12.4533 9.51088 12.8695 9.62302 13.2538 9.8473C13.638 10.0716 13.9422 10.376 14.1663 10.7604C14.3905 11.1449 14.5026 11.5614 14.5026 12.01C14.5026 12.4586 14.3905 12.8751 14.1663 13.2596C13.9422 13.644 13.638 13.9484 13.2538 14.1727C12.8695 14.397 12.4533 14.5091 12.005 14.5091ZM16.3117 7.17196C16.4611 7.17196 16.5865 7.22269 16.6879 7.32415C16.7893 7.42561 16.84 7.5511 16.84 7.70062C16.84 7.85014 16.7867 7.9783 16.6799 8.0851C16.5732 8.1919 16.4478 8.2453 16.3037 8.2453C16.1596 8.2453 16.0342 8.1919 15.9274 8.0851C15.8207 7.9783 15.7673 7.85014 15.7673 7.70062C15.7673 7.5511 15.8207 7.42561 15.9274 7.32415C16.0342 7.22269 16.1623 7.17196 16.3117 7.17196Z"/></svg>