<svg width="34" height="34" viewBox="0 0 34 34" xmlns="http://www.w3.org/2000/svg"><path fill-rule="evenodd" clip-rule="evenodd" d="M4.90803 29.092C6.98269 31.1666 10.3218 31.1666 17 31.1666C23.6783 31.1666 27.0174 31.1666 29.092 29.092C31.1667 27.0173 31.1667 23.6782 31.1667 17C31.1667 10.3217 31.1667 6.98263 29.092 4.90797C27.0174 2.83331 23.6783 2.83331 17 2.83331C10.3218 2.83331 6.98269 2.83331 4.90803 4.90797C2.83337 6.98263 2.83337 10.3217 2.83337 17C2.83337 23.6782 2.83337 27.0173 4.90803 29.092ZM26.5625 22.6666C26.5625 23.2534 26.0868 23.7291 25.5 23.7291H8.50004C7.91324 23.7291 7.43754 23.2534 7.43754 22.6666C7.43754 22.0798 7.91324 21.6041 8.50004 21.6041H25.5C26.0868 21.6041 26.5625 22.0798 26.5625 22.6666ZM25.5 18.0625C26.0868 18.0625 26.5625 17.5868 26.5625 17C26.5625 16.4132 26.0868 15.9375 25.5 15.9375H8.50004C7.91324 15.9375 7.43754 16.4132 7.43754 17C7.43754 17.5868 7.91324 18.0625 8.50004 18.0625H25.5ZM26.5625 11.3333C26.5625 11.9201 26.0868 12.3958 25.5 12.3958H8.50004C7.91324 12.3958 7.43754 11.9201 7.43754 11.3333C7.43754 10.7465 7.91324 10.2708 8.50004 10.2708H25.5C26.0868 10.2708 26.5625 10.7465 26.5625 11.3333Z"/></svg>